{
	"asset": {
		"generator": "Unity 2018.3.6f1",
		"extras": {
			"exporterVersion" : "2.2.1"
		},
		"version": "2.0"
	},
	"accessors": [
		{
			"bufferView": 3,
			"byteOffset": 0,
			"componentType": 5126,
			"count": 31,
			"max": [ 2.418938, 0.2309452, 2.094862 ],
			"min": [ -2.418938, -0.6453201, -2.094862 ],
			"type": "VEC3"
		},
		{
			"bufferView": 3,
			"byteOffset": 372,
			"componentType": 5126,
			"count": 31,
			"max": [ 0.5748222, -0.8182781, 0.4978108 ],
			"min": [ -0.5748219, -1, -0.4978115 ],
			"type": "VEC3"
		},
		{
			"bufferView": 2,
			"byteOffset": 0,
			"componentType": 5126,
			"count": 31,
			"max": [ 1.734874, 0.9740162 ],
			"min": [ 0.349324, 0.4513912 ],
			"type": "VEC2"
		},
		{
			"bufferView": 4,
			"byteOffset": 0,
			"componentType": 5126,
			"count": 31,
			"max": [ 0.9738253, 0.4542381, 0.9042445, 1 ],
			"min": [ -1, -0.4542384, -0.9042442, 1 ],
			"type": "VEC4"
		},
		{
			"bufferView": 0,
			"byteOffset": 0,
			"componentType": 5123,
			"count": 18,
			"max": [ 6 ],
			"min": [ 0 ],
			"type": "SCALAR"
		},
		{
			"bufferView": 0,
			"byteOffset": 36,
			"componentType": 5123,
			"count": 36,
			"max": [ 30 ],
			"min": [ 7 ],
			"type": "SCALAR"
		},
		{
			"bufferView": 1,
			"byteOffset": 0,
			"componentType": 5126,
			"count": 750,
			"max": [ 24.96667 ],
			"min": [ 0 ],
			"type": "SCALAR"
		},
		{
			"bufferView": 5,
			"byteOffset": 0,
			"componentType": 5126,
			"count": 750,
			"max": [ 0, 2.45, 0 ],
			"min": [ 0, -0.9199804, 0 ],
			"type": "VEC3"
		},
		{
			"bufferView": 6,
			"byteOffset": 0,
			"componentType": 5126,
			"count": 750,
			"max": [ 0, 1, 0, 0.9999912 ],
			"min": [ 0, 0, 0, -1 ],
			"type": "VEC4"
		},
		{
			"bufferView": 5,
			"byteOffset": 9000,
			"componentType": 5126,
			"count": 750,
			"max": [ 1, 1, 1 ],
			"min": [ 1, 1, 1 ],
			"type": "VEC3"
		},
		{
			"bufferView": 3,
			"byteOffset": 744,
			"componentType": 5126,
			"count": 192,
			"max": [ 7.033868, -3.580526, 6.091508 ],
			"min": [ -7.033868, -4.932536, -6.091508 ],
			"type": "VEC3"
		},
		{
			"bufferView": 3,
			"byteOffset": 3048,
			"componentType": 5126,
			"count": 192,
			"max": [ 0.8660257, 0.989198, 1 ],
			"min": [ -0.8660255, -1, -1 ],
			"type": "VEC3"
		},
		{
			"bufferView": 2,
			"byteOffset": 248,
			"componentType": 5126,
			"count": 192,
			"max": [ 2.200088, 1.49664 ],
			"min": [ -1.680445, 0.001992032 ],
			"type": "VEC2"
		},
		{
			"bufferView": 4,
			"byteOffset": 496,
			"componentType": 5126,
			"count": 192,
			"max": [ 1, 1, 0.8660257, 1 ],
			"min": [ -1, -1, -0.8660256, -1 ],
			"type": "VEC4"
		},
		{
			"bufferView": 0,
			"byteOffset": 108,
			"componentType": 5123,
			"count": 252,
			"max": [ 167 ],
			"min": [ 0 ],
			"type": "SCALAR"
		},
		{
			"bufferView": 0,
			"byteOffset": 612,
			"componentType": 5123,
			"count": 36,
			"max": [ 191 ],
			"min": [ 168 ],
			"type": "SCALAR"
		},
		{
			"bufferView": 3,
			"byteOffset": 5352,
			"componentType": 5126,
			"count": 48,
			"max": [ 6.714491, 0.06341232, 5.81492 ],
			"min": [ -6.714491, -8.654049, -5.81492 ],
			"type": "VEC3"
		},
		{
			"bufferView": 3,
			"byteOffset": 5928,
			"componentType": 5126,
			"count": 48,
			"max": [ 1, 0, 0.8660254 ],
			"min": [ -1, 0, -0.8660255 ],
			"type": "VEC3"
		},
		{
			"bufferView": 2,
			"byteOffset": 1784,
			"componentType": 5126,
			"count": 48,
			"max": [ 1, 0.6671566 ],
			"min": [ 0, 0.139447 ],
			"type": "VEC2"
		},
		{
			"bufferView": 4,
			"byteOffset": 3568,
			"componentType": 5126,
			"count": 48,
			"max": [ 0.8660255, 0, 1, 1 ],
			"min": [ -0.8660255, 0, -1, -1 ],
			"type": "VEC4"
		},
		{
			"bufferView": 0,
			"byteOffset": 684,
			"componentType": 5123,
			"count": 72,
			"max": [ 47 ],
			"min": [ 0 ],
			"type": "SCALAR"
		}
	],
	"animations": [
		{
			"name": "Museum_Hex_Propeler_01_c (2)",
			"channels": [
				{
					"sampler": 0,
					"target": {
						"node": 2,
						"path": "translation"
					}
				},
				{
					"sampler": 1,
					"target": {
						"node": 2,
						"path": "rotation"
					}
				},
				{
					"sampler": 2,
					"target": {
						"node": 2,
						"path": "scale"
					}
				}
			],
			"samplers": [
				{
					"input": 6,
					"interpolation": "LINEAR",
					"output": 7
				},
				{
					"input": 6,
					"interpolation": "LINEAR",
					"output": 8
				},
				{
					"input": 6,
					"interpolation": "LINEAR",
					"output": 9
				}
			]
		}
	],
	"buffers": [
		{
			"byteLength": 46836,
			"uri": "entity13800.bin"
		}
	],
	"bufferViews": [
		{
			"buffer": 0,
			"byteLength": 828,
			"target": 34963,
			"byteOffset": 16008
		},
		{
			"buffer": 0,
			"byteLength": 3000,
			"byteOffset": 0
		},
		{
			"buffer": 0,
			"byteLength": 2168,
			"target": 34962,
			"byteStride": 8,
			"byteOffset": 3000
		},
		{
			"buffer": 0,
			"byteLength": 6504,
			"target": 34962,
			"byteStride": 12,
			"byteOffset": 5168
		},
		{
			"buffer": 0,
			"byteLength": 4336,
			"target": 34962,
			"byteStride": 16,
			"byteOffset": 11672
		},
		{
			"buffer": 0,
			"byteLength": 18000,
			"byteStride": 12,
			"byteOffset": 16836
		},
		{
			"buffer": 0,
			"byteLength": 12000,
			"byteStride": 16,
			"byteOffset": 34836
		}
	],
	"images": [
		{
			"uri": "Assets/Visuals/Materials/Textures/Tileset_Metal_03_Albedo.jpg"
		},
		{
			"uri": "Assets/Visuals/Materials/Textures/Tileset_Metal_03_Metallic_converted_metalRoughness.jpg"
		},
		{
			"uri": "Assets/Visuals/Materials/Textures/Tileset_Metal_03_Normal.jpg"
		},
		{
			"uri": "Assets/Visuals/Materials/Textures/Tileset_Metal_02_Albedo.jpg"
		},
		{
			"uri": "Assets/Visuals/Materials/Textures/Tileset_Metal_02_Metallic_converted_metalRoughness.jpg"
		},
		{
			"uri": "Assets/Visuals/Materials/Textures/Tileset_Metal_02_Normal.jpg"
		},
		{
			"uri": "Assets/Visuals/Materials/Textures/Tileset_Metal_02_Metallic.jpg"
		},
		{
			"uri": "Assets/Visuals/Materials/Textures/Tileset_Transparencies_01_Albedo.png"
		}
	],
	"materials": [
		{
			"pbrMetallicRoughness": {
				"baseColorFactor": [1, 1, 1, 1],
				"metallicFactor": 0,
				"roughnessFactor": 0.5
			},
			"emissiveFactor": [0.9722661, 0.6941177, 1],
			"doubleSided": false,
			"name": "Tileset_Emissive_01_Mat"
		},
		{
			"pbrMetallicRoughness": {
				"baseColorTexture" : {
					"index" : 0,
					"texCoord" : 0
				},
				"baseColorFactor": [1, 1, 1, 1],
				"metallicRoughnessTexture" : {
					"index" : 1,
					"texCoord" : 0
				},
				"metallicFactor": 1,
				"roughnessFactor": 1
			},
			"normalTexture" : {
				"index" : 2,
				"texCoord" : 0,
				"scale" : 1
			},
			"emissiveFactor": [0, 0, 0],
			"doubleSided": false,
			"name": "Tileset_Metal_03_Mat"
		},
		{
			"pbrMetallicRoughness": {
				"baseColorTexture" : {
					"index" : 3,
					"texCoord" : 0
				},
				"baseColorFactor": [1, 1, 1, 1],
				"metallicRoughnessTexture" : {
					"index" : 4,
					"texCoord" : 0
				},
				"metallicFactor": 1,
				"roughnessFactor": 1
			},
			"normalTexture" : {
				"index" : 5,
				"texCoord" : 0,
				"scale" : 1
			},
			"emissiveFactor": [0, 0, 0],
			"occlusionTexture" : {
				"index" : 6,
				"texCoord" : 0,
				"strength" : 1
			},
			"doubleSided": false,
			"name": "Tileset_Metal_02_Mat"
		},
		{
			"pbrMetallicRoughness": {
				"baseColorTexture" : {
					"index" : 7,
					"texCoord" : 0
				},
				"baseColorFactor": [1, 1, 1, 1],
				"metallicFactor": 0,
				"roughnessFactor": 0.5
			},
			"alphaMode": "BLEND",
			"alphaCutoff": 0.5,
			"emissiveTexture" : {
				"index" : 7,
				"texCoord" : 0
			},
			"emissiveFactor": [0.3867925, 0.3867925, 0.3867925],
			"doubleSided": false,
			"name": "Tileset_Transparencies_01_Mat"
		}
	],
	"meshes": [
		{
			"name": "mesh_Museum_Hex_Propeler_01_10118Museum_Hex_Propeler_01_c (2)",
			"primitives": [
				{
					"attributes": {
						"POSITION": 0,
						"NORMAL": 1,
						"TEXCOORD_0": 2,
						"TANGENT": 3
					},
					"indices": 4,
					"material": 0,
					"mode": 4
				},
				{
					"attributes": {
						"POSITION": 0,
						"NORMAL": 1,
						"TEXCOORD_0": 2,
						"TANGENT": 3
					},
					"indices": 5,
					"material": 1,
					"mode": 4
				}
			]
		},
		{
			"name": "mesh_Museum_Hex_Propeler_01_Gear_0_10120Museum_Hex_Propeler_01_Gear_0",
			"primitives": [
				{
					"attributes": {
						"POSITION": 10,
						"NORMAL": 11,
						"TEXCOORD_0": 12,
						"TANGENT": 13
					},
					"indices": 14,
					"material": 2,
					"mode": 4
				},
				{
					"attributes": {
						"POSITION": 10,
						"NORMAL": 11,
						"TEXCOORD_0": 12,
						"TANGENT": 13
					},
					"indices": 15,
					"material": 0,
					"mode": 4
				}
			]
		},
		{
			"name": "mesh_Museum_Hex_Propeler_Fade_10128Museum_Hex_Propeler_Fade",
			"primitives": [
				{
					"attributes": {
						"POSITION": 16,
						"NORMAL": 17,
						"TEXCOORD_0": 18,
						"TANGENT": 19
					},
					"indices": 20,
					"material": 3,
					"mode": 4
				}
			]
		}
	],
	"nodes": [
		{
			"name": "UnityGlTF_root",
			"children": [
				1
			]
		},
		{
			"name": "node_Museum_Hex_Propeler_01_c (2)",
			"mesh": 0,
			"children": [
				2
			],
			"matrix": [1, 0, 0, 0, 0, 1, 0, 0, 0, 0, 1, 0, 0, 0, 0, 1]
		},
		{
			"name": "node_Museum_Hex_Propeler_01_Gear_0",
			"mesh": 1,
			"children": [
				3
			]
		},
		{
			"name": "node_Museum_Hex_Propeler_Fade",
			"mesh": 2
		}
	],
	"samplers": [
		{
			"magFilter": 9729,
			"minFilter": 9985,
			"wrapS": 10497,
			"wrapT": 10497
		}
	],
	"scenes": [
		{
			"name":"defaultScene",
			"nodes": [
				0
			]
		}
	],
	"scene": 0,
	"textures": [
		{
			"sampler": 0,
			"source": 0
		},
		{
			"sampler": 0,
			"source": 1
		},
		{
			"sampler": 0,
			"source": 2
		},
		{
			"sampler": 0,
			"source": 3
		},
		{
			"sampler": 0,
			"source": 4
		},
		{
			"sampler": 0,
			"source": 5
		},
		{
			"sampler": 0,
			"source": 6
		},
		{
			"sampler": 0,
			"source": 7
		}
	]
}