{
	"asset": {
		"generator": "Unity 2018.3.6f1",
		"extras": {
			"exporterVersion" : "2.2.1"
		},
		"version": "2.0"
	},
	"accessors": [
		{
			"bufferView": 2,
			"byteOffset": 0,
			"componentType": 5126,
			"count": 901,
			"max": [ 17.36864, 69.54649, 21.13806 ],
			"min": [ -18.49415, -2.669705, -13.96924 ],
			"type": "VEC3"
		},
		{
			"bufferView": 2,
			"byteOffset": 10812,
			"componentType": 5126,
			"count": 901,
			"max": [ 0.999908, 0.9987327, 0.9999608 ],
			"min": [ -0.9998168, -0.9981472, -0.9999909 ],
			"type": "VEC3"
		},
		{
			"bufferView": 1,
			"byteOffset": 0,
			"componentType": 5126,
			"count": 901,
			"max": [ 1, 1 ],
			"min": [ 0, 0 ],
			"type": "VEC2"
		},
		{
			"bufferView": 3,
			"byteOffset": 0,
			"componentType": 5126,
			"count": 901,
			"max": [ 1, 0.9626618, 0.9976336, 1 ],
			"min": [ -0.9416684, -0.6617932, -0.9495269, -1 ],
			"type": "VEC4"
		},
		{
			"bufferView": 0,
			"byteOffset": 0,
			"componentType": 5123,
			"count": 924,
			"max": [ 371 ],
			"min": [ 0 ],
			"type": "SCALAR"
		},
		{
			"bufferView": 0,
			"byteOffset": 1848,
			"componentType": 5123,
			"count": 1380,
			"max": [ 838 ],
			"min": [ 0 ],
			"type": "SCALAR"
		},
		{
			"bufferView": 0,
			"byteOffset": 4608,
			"componentType": 5123,
			"count": 204,
			"max": [ 900 ],
			"min": [ 80 ],
			"type": "SCALAR"
		}
	],
	"buffers": [
		{
			"byteLength": 48264,
			"uri": "entity11314.bin"
		}
	],
	"bufferViews": [
		{
			"buffer": 0,
			"byteLength": 5016,
			"target": 34963,
			"byteOffset": 43248
		},
		{
			"buffer": 0,
			"byteLength": 7208,
			"target": 34962,
			"byteStride": 8,
			"byteOffset": 0
		},
		{
			"buffer": 0,
			"byteLength": 21624,
			"target": 34962,
			"byteStride": 12,
			"byteOffset": 7208
		},
		{
			"buffer": 0,
			"byteLength": 14416,
			"target": 34962,
			"byteStride": 16,
			"byteOffset": 28832
		}
	],
	"materials": [
		{
			"pbrMetallicRoughness": {
				"baseColorFactor": [1, 1, 1, 1],
				"metallicFactor": 0,
				"roughnessFactor": 0.5
			},
			"emissiveFactor": [0, 0, 0],
			"doubleSided": false,
			"name": "Default-Material"
		}
	],
	"meshes": [
		{
			"name": "mesh_museum_building_02_016_10842museum_building_02_016",
			"primitives": [
				{
					"attributes": {
						"POSITION": 0,
						"NORMAL": 1,
						"TEXCOORD_0": 2,
						"TANGENT": 3
					},
					"indices": 4,
					"material": 0,
					"mode": 4
				},
				{
					"attributes": {
						"POSITION": 0,
						"NORMAL": 1,
						"TEXCOORD_0": 2,
						"TANGENT": 3
					},
					"indices": 5,
					"material": 0,
					"mode": 4
				},
				{
					"attributes": {
						"POSITION": 0,
						"NORMAL": 1,
						"TEXCOORD_0": 2,
						"TANGENT": 3
					},
					"indices": 6,
					"material": 0,
					"mode": 4
				}
			]
		}
	],
	"nodes": [
		{
			"name": "UnityGlTF_root",
			"children": [
				1
			]
		},
		{
			"name": "node_museum_building_02_016",
			"mesh": 0,
			"matrix": [1, 0, 0, 0, 0, 1, 0, 0, 0, 0, 1, 0, 0, 0, 0, 1]
		}
	],
	"scenes": [
		{
			"name":"defaultScene",
			"nodes": [
				0
			]
		}
	],
	"scene": 0
}