{
	"asset": {
		"generator": "Unity 2018.3.6f1",
		"extras": {
			"exporterVersion" : "2.2.1"
		},
		"version": "2.0"
	},
	"accessors": [
		{
			"bufferView": 2,
			"byteOffset": 0,
			"componentType": 5126,
			"count": 299,
			"max": [ 12.97707, 31.6184, 1.220703E-06 ],
			"min": [ -25.93577, 15.45864, -25.77726 ],
			"type": "VEC3"
		},
		{
			"bufferView": 2,
			"byteOffset": 3588,
			"componentType": 5126,
			"count": 299,
			"max": [ 0.9677096, 0.9735007, 1 ],
			"min": [ -0.9676951, -0.9659056, -0.9995271 ],
			"type": "VEC3"
		},
		{
			"bufferView": 1,
			"byteOffset": 0,
			"componentType": 5126,
			"count": 299,
			"max": [ 1.844881, 0.9998995 ],
			"min": [ 1.844881, 0.401612 ],
			"type": "VEC2"
		},
		{
			"bufferView": 3,
			"byteOffset": 0,
			"componentType": 5126,
			"count": 299,
			"max": [ 1, 0, 0, 1 ],
			"min": [ 1, 0, 0, 1 ],
			"type": "VEC4"
		},
		{
			"bufferView": 0,
			"byteOffset": 0,
			"componentType": 5123,
			"count": 630,
			"max": [ 298 ],
			"min": [ 0 ],
			"type": "SCALAR"
		}
	],
	"buffers": [
		{
			"byteLength": 15612,
			"uri": "entity5882n.bin"
		}
	],
	"bufferViews": [
		{
			"buffer": 0,
			"byteLength": 1260,
			"target": 34963,
			"byteOffset": 14352
		},
		{
			"buffer": 0,
			"byteLength": 2392,
			"target": 34962,
			"byteStride": 8,
			"byteOffset": 0
		},
		{
			"buffer": 0,
			"byteLength": 7176,
			"target": 34962,
			"byteStride": 12,
			"byteOffset": 2392
		},
		{
			"buffer": 0,
			"byteLength": 4784,
			"target": 34962,
			"byteStride": 16,
			"byteOffset": 9568
		}
	],
	"materials": [
		{
			"pbrMetallicRoughness": {
				"baseColorFactor": [1, 1, 1, 1],
				"metallicFactor": 0,
				"roughnessFactor": 0.5
			},
			"emissiveFactor": [0, 0, 0],
			"doubleSided": false,
			"name": "Default-Material"
		}
	],
	"meshes": [
		{
			"name": "mesh_Museum_Hex_Base13_12556Museum_Hex_Base13",
			"primitives": [
				{
					"attributes": {
						"POSITION": 0,
						"NORMAL": 1,
						"TEXCOORD_0": 2,
						"TANGENT": 3
					},
					"indices": 4,
					"material": 0,
					"mode": 4
				}
			]
		}
	],
	"nodes": [
		{
			"name": "UnityGlTF_root",
			"children": [
				1
			]
		},
		{
			"name": "node_Museum_Hex_Base13",
			"mesh": 0,
			"matrix": [1, 0, 0, 0, 0, 1, 0, 0, 0, 0, 1, 0, 0, 0, 0, 1]
		}
	],
	"scenes": [
		{
			"name":"defaultScene",
			"nodes": [
				0
			]
		}
	],
	"scene": 0
}