{
	"asset": {
		"generator": "Unity 2018.3.6f1",
		"extras": {
			"exporterVersion" : "2.2.1"
		},
		"version": "2.0"
	},
	"accessors": [
		{
			"bufferView": 2,
			"byteOffset": 0,
			"componentType": 5126,
			"count": 378,
			"max": [ 41.13621, 0.2753789, 47.5 ],
			"min": [ -41.13621, -0.2753789, -47.5 ],
			"type": "VEC3"
		},
		{
			"bufferView": 2,
			"byteOffset": 4536,
			"componentType": 5126,
			"count": 378,
			"max": [ 1, 1, 0.8660255 ],
			"min": [ -1, 0, -0.8660255 ],
			"type": "VEC3"
		},
		{
			"bufferView": 1,
			"byteOffset": 0,
			"componentType": 5126,
			"count": 378,
			"max": [ 5.461804, 2.094947 ],
			"min": [ 0, -3.097415E-07 ],
			"type": "VEC2"
		},
		{
			"bufferView": 3,
			"byteOffset": 0,
			"componentType": 5126,
			"count": 378,
			"max": [ 0.8660256, 0, 1, 1 ],
			"min": [ -0.8660256, 0, -1, -1 ],
			"type": "VEC4"
		},
		{
			"bufferView": 0,
			"byteOffset": 0,
			"componentType": 5123,
			"count": 252,
			"max": [ 131 ],
			"min": [ 0 ],
			"type": "SCALAR"
		},
		{
			"bufferView": 0,
			"byteOffset": 504,
			"componentType": 5123,
			"count": 414,
			"max": [ 377 ],
			"min": [ 132 ],
			"type": "SCALAR"
		},
		{
			"bufferView": 2,
			"byteOffset": 9072,
			"componentType": 5126,
			"count": 38,
			"max": [ 41.20319, 0.4757735, 47.57735 ],
			"min": [ -41.20319, -0.4757735, -47.57735 ],
			"type": "VEC3"
		},
		{
			"bufferView": 2,
			"byteOffset": 9528,
			"componentType": 5126,
			"count": 38,
			"max": [ 1, 1, 0.8660255 ],
			"min": [ -1, -1, -0.8660254 ],
			"type": "VEC3"
		},
		{
			"bufferView": 1,
			"byteOffset": 3024,
			"componentType": 5126,
			"count": 38,
			"max": [ 0.65625, 0.9790665 ],
			"min": [ 0.34375, 0.02093351 ],
			"type": "VEC2"
		},
		{
			"bufferView": 3,
			"byteOffset": 6048,
			"componentType": 5126,
			"count": 38,
			"max": [ 0.8660255, 0, 1, 1 ],
			"min": [ -0.8853274, 0, -1, 1 ],
			"type": "VEC4"
		},
		{
			"bufferView": 0,
			"byteOffset": 1332,
			"componentType": 5123,
			"count": 72,
			"max": [ 37 ],
			"min": [ 0 ],
			"type": "SCALAR"
		}
	],
	"buffers": [
		{
			"byteLength": 21444,
			"uri": "entity11252.bin"
		}
	],
	"bufferViews": [
		{
			"buffer": 0,
			"byteLength": 1476,
			"target": 34963,
			"byteOffset": 19968
		},
		{
			"buffer": 0,
			"byteLength": 3328,
			"target": 34962,
			"byteStride": 8,
			"byteOffset": 0
		},
		{
			"buffer": 0,
			"byteLength": 9984,
			"target": 34962,
			"byteStride": 12,
			"byteOffset": 3328
		},
		{
			"buffer": 0,
			"byteLength": 6656,
			"target": 34962,
			"byteStride": 16,
			"byteOffset": 13312
		}
	],
	"images": [
		{
			"uri": "Assets/Visuals/Materials/Textures/Tileset_Metal_01_Albedo.jpg"
		},
		{
			"uri": "Assets/Visuals/Materials/Textures/Tileset_Metal_01_Metallic_converted_metalRoughness.jpg"
		},
		{
			"uri": "Assets/Visuals/Materials/Textures/Tileset_Metal_01_Normal.jpg"
		},
		{
			"uri": "Assets/Visuals/Materials/Textures/Tileset_Metal_02_Albedo.jpg"
		},
		{
			"uri": "Assets/Visuals/Materials/Textures/Tileset_Metal_02_Metallic_converted_metalRoughness.jpg"
		},
		{
			"uri": "Assets/Visuals/Materials/Textures/Tileset_Metal_02_Normal.jpg"
		}
	],
	"materials": [
		{
			"pbrMetallicRoughness": {
				"baseColorTexture" : {
					"index" : 0,
					"texCoord" : 0
				},
				"baseColorFactor": [1, 1, 1, 1],
				"metallicRoughnessTexture" : {
					"index" : 1,
					"texCoord" : 0
				},
				"metallicFactor": 1,
				"roughnessFactor": 1
			},
			"normalTexture" : {
				"index" : 2,
				"texCoord" : 0,
				"scale" : 1
			},
			"emissiveFactor": [0, 0, 0],
			"doubleSided": false,
			"name": "Tileset_Metal_01_Mat"
		},
		{
			"pbrMetallicRoughness": {
				"baseColorTexture" : {
					"index" : 3,
					"texCoord" : 0
				},
				"baseColorFactor": [1, 1, 1, 1],
				"metallicRoughnessTexture" : {
					"index" : 4,
					"texCoord" : 0
				},
				"metallicFactor": 1,
				"roughnessFactor": 1
			},
			"normalTexture" : {
				"index" : 5,
				"texCoord" : 0,
				"scale" : 1
			},
			"emissiveFactor": [0, 0, 0],
			"doubleSided": false,
			"name": "Tileset_Metal_02_Mat"
		},
		{
			"pbrMetallicRoughness": {
				"baseColorFactor": [0.2036906, 1, 0, 1],
				"metallicFactor": 0,
				"roughnessFactor": 0.5
			},
			"emissiveFactor": [0, 0, 0],
			"doubleSided": false,
			"name": "Collider_Mat"
		}
	],
	"meshes": [
		{
			"name": "mesh_Museum_Hex_Base_10464Museum_Hex_Base",
			"primitives": [
				{
					"attributes": {
						"POSITION": 0,
						"NORMAL": 1,
						"TEXCOORD_0": 2,
						"TANGENT": 3
					},
					"indices": 4,
					"material": 0,
					"mode": 4
				},
				{
					"attributes": {
						"POSITION": 0,
						"NORMAL": 1,
						"TEXCOORD_0": 2,
						"TANGENT": 3
					},
					"indices": 5,
					"material": 1,
					"mode": 4
				}
			]
		},
		{
			"name": "mesh_Museum_Hex_Base_Collider_10466Museum_Hex_Base_Collider",
			"primitives": [
				{
					"attributes": {
						"POSITION": 6,
						"NORMAL": 7,
						"TEXCOORD_0": 8,
						"TANGENT": 9
					},
					"indices": 10,
					"material": 2,
					"mode": 4
				}
			]
		}
	],
	"nodes": [
		{
			"name": "UnityGlTF_root",
			"children": [
				1
			]
		},
		{
			"name": "node_Museum_Hex_Base",
			"mesh": 0,
			"children": [
				2
			],
			"matrix": [1, 0, 0, 0, 0, 1, 0, 0, 0, 0, 1, 0, 0, 0, 0, 1]
		},
		{
			"name": "node_Museum_Hex_Base_Collider",
			"mesh": 1,
			"translation": [ -2.407536E-14, -0.2753792, 4.015477E-14]
		}
	],
	"samplers": [
		{
			"magFilter": 9729,
			"minFilter": 9985,
			"wrapS": 10497,
			"wrapT": 10497
		}
	],
	"scenes": [
		{
			"name":"defaultScene",
			"nodes": [
				0
			]
		}
	],
	"scene": 0,
	"textures": [
		{
			"sampler": 0,
			"source": 0
		},
		{
			"sampler": 0,
			"source": 1
		},
		{
			"sampler": 0,
			"source": 2
		},
		{
			"sampler": 0,
			"source": 3
		},
		{
			"sampler": 0,
			"source": 4
		},
		{
			"sampler": 0,
			"source": 5
		}
	]
}