{
	"asset": {
		"generator": "Unity 2018.3.6f1",
		"extras": {
			"exporterVersion" : "2.2.1"
		},
		"version": "2.0"
	},
	"accessors": [
		{
			"bufferView": 3,
			"byteOffset": 0,
			"componentType": 5126,
			"count": 318,
			"max": [ 1.455181, 3.330504, 1.453352 ],
			"min": [ -1.455181, 0.006257934, -1.453351 ],
			"type": "VEC3"
		},
		{
			"bufferView": 3,
			"byteOffset": 3816,
			"componentType": 5126,
			"count": 318,
			"max": [ 1, 0.9905973, 0.9933356 ],
			"min": [ -1, -0.9976416, -0.9737194 ],
			"type": "VEC3"
		},
		{
			"bufferView": 2,
			"byteOffset": 0,
			"componentType": 5126,
			"count": 318,
			"max": [ 0.9867163, 0.8613586 ],
			"min": [ 0.03372075, 0.2806562 ],
			"type": "VEC2"
		},
		{
			"bufferView": 4,
			"byteOffset": 0,
			"componentType": 5126,
			"count": 318,
			"max": [ 1, 0.9389148, 0.9999801, 1 ],
			"min": [ -1, -0.9580313, -0.9999814, 1 ],
			"type": "VEC4"
		},
		{
			"bufferView": 0,
			"byteOffset": 0,
			"componentType": 5123,
			"count": 1344,
			"max": [ 317 ],
			"min": [ 0 ],
			"type": "SCALAR"
		},
		{
			"bufferView": 1,
			"byteOffset": 0,
			"componentType": 5126,
			"count": 60,
			"max": [ 1.966667 ],
			"min": [ 0 ],
			"type": "SCALAR"
		},
		{
			"bufferView": 5,
			"byteOffset": 0,
			"componentType": 5126,
			"count": 60,
			"max": [ 34.69, 2.944, -0.8399999 ],
			"min": [ 34.69, 2.73, -0.8399999 ],
			"type": "VEC3"
		},
		{
			"bufferView": 6,
			"byteOffset": 0,
			"componentType": 5126,
			"count": 60,
			"max": [ 0, 0.2621594, 0, 0.9650247 ],
			"min": [ 0, 0.2621594, 0, 0.9650247 ],
			"type": "VEC4"
		},
		{
			"bufferView": 5,
			"byteOffset": 720,
			"componentType": 5126,
			"count": 60,
			"max": [ 0.6646965, 0.664696, 0.6646965 ],
			"min": [ 0.6646965, 0.664696, 0.6646965 ],
			"type": "VEC3"
		}
	],
	"animations": [
		{
			"name": "Logo_PolyMind_01_Art",
			"channels": [
				{
					"sampler": 0,
					"target": {
						"node": 1,
						"path": "translation"
					}
				},
				{
					"sampler": 1,
					"target": {
						"node": 1,
						"path": "rotation"
					}
				},
				{
					"sampler": 2,
					"target": {
						"node": 1,
						"path": "scale"
					}
				}
			],
			"samplers": [
				{
					"input": 5,
					"interpolation": "LINEAR",
					"output": 6
				},
				{
					"input": 5,
					"interpolation": "LINEAR",
					"output": 7
				},
				{
					"input": 5,
					"interpolation": "LINEAR",
					"output": 8
				}
			]
		}
	],
	"buffers": [
		{
			"byteLength": 20592,
			"uri": "entity20594.bin"
		}
	],
	"bufferViews": [
		{
			"buffer": 0,
			"byteLength": 2688,
			"target": 34963,
			"byteOffset": 15504
		},
		{
			"buffer": 0,
			"byteLength": 240,
			"byteOffset": 0
		},
		{
			"buffer": 0,
			"byteLength": 2544,
			"target": 34962,
			"byteStride": 8,
			"byteOffset": 240
		},
		{
			"buffer": 0,
			"byteLength": 7632,
			"target": 34962,
			"byteStride": 12,
			"byteOffset": 2784
		},
		{
			"buffer": 0,
			"byteLength": 5088,
			"target": 34962,
			"byteStride": 16,
			"byteOffset": 10416
		},
		{
			"buffer": 0,
			"byteLength": 1440,
			"byteStride": 12,
			"byteOffset": 18192
		},
		{
			"buffer": 0,
			"byteLength": 960,
			"byteStride": 16,
			"byteOffset": 19632
		}
	],
	"images": [
		{
			"uri": "Assets/Visuals/Materials/Textures/Logo_PolyMind_Albedo.jpg"
		}
	],
	"materials": [
		{
			"pbrMetallicRoughness": {
				"baseColorTexture" : {
					"index" : 0,
					"texCoord" : 0
				},
				"baseColorFactor": [1, 1, 1, 1],
				"metallicFactor": 0,
				"roughnessFactor": 1
			},
			"emissiveFactor": [0, 0, 0],
			"doubleSided": false,
			"name": "Logo_PolyMind_Mat"
		}
	],
	"meshes": [
		{
			"name": "mesh_PolygonalMind_01_Pyramid_2888Logo_PolyMind_01_Art",
			"primitives": [
				{
					"attributes": {
						"POSITION": 0,
						"NORMAL": 1,
						"TEXCOORD_0": 2,
						"TANGENT": 3
					},
					"indices": 4,
					"material": 0,
					"mode": 4
				}
			]
		}
	],
	"nodes": [
		{
			"name": "UnityGlTF_root",
			"children": [
				1
			]
		},
		{
			"name": "node_Logo_PolyMind_01_Art",
			"mesh": 0,
			"matrix": [1, 0, 0, 0, 0, 1, 0, 0, 0, 0, 1, 0, 0, 0, 0, 1]
		}
	],
	"samplers": [
		{
			"magFilter": 9729,
			"minFilter": 9985,
			"wrapS": 10497,
			"wrapT": 10497
		}
	],
	"scenes": [
		{
			"name":"defaultScene",
			"nodes": [
				0
			]
		}
	],
	"scene": 0,
	"textures": [
		{
			"sampler": 0,
			"source": 0
		}
	]
}