{
	"asset": {
		"generator": "Unity 2018.3.6f1",
		"extras": {
			"exporterVersion" : "2.2.1"
		},
		"version": "2.0"
	},
	"accessors": [
		{
			"bufferView": 2,
			"byteOffset": 0,
			"componentType": 5126,
			"count": 544,
			"max": [ 11.65958, 91.50553, 18.48881 ],
			"min": [ -14.628, 81.65004, -8.904853 ],
			"type": "VEC3"
		},
		{
			"bufferView": 2,
			"byteOffset": 6528,
			"componentType": 5126,
			"count": 544,
			"max": [ 0.9998167, 1, 0.9999592 ],
			"min": [ -0.9998167, -1, -0.9999592 ],
			"type": "VEC3"
		},
		{
			"bufferView": 1,
			"byteOffset": 0,
			"componentType": 5126,
			"count": 544,
			"max": [ 1, 1 ],
			"min": [ 0, 0 ],
			"type": "VEC2"
		},
		{
			"bufferView": 3,
			"byteOffset": 0,
			"componentType": 5126,
			"count": 544,
			"max": [ 1, 0, 0.9997464, 1 ],
			"min": [ -0.9997464, 0, -0.9997464, -1 ],
			"type": "VEC4"
		},
		{
			"bufferView": 0,
			"byteOffset": 0,
			"componentType": 5123,
			"count": 420,
			"max": [ 271 ],
			"min": [ 0 ],
			"type": "SCALAR"
		},
		{
			"bufferView": 0,
			"byteOffset": 840,
			"componentType": 5123,
			"count": 396,
			"max": [ 511 ],
			"min": [ 64 ],
			"type": "SCALAR"
		},
		{
			"bufferView": 0,
			"byteOffset": 1632,
			"componentType": 5123,
			"count": 48,
			"max": [ 543 ],
			"min": [ 512 ],
			"type": "SCALAR"
		}
	],
	"buffers": [
		{
			"byteLength": 27840,
			"uri": "entity11312.bin"
		}
	],
	"bufferViews": [
		{
			"buffer": 0,
			"byteLength": 1728,
			"target": 34963,
			"byteOffset": 26112
		},
		{
			"buffer": 0,
			"byteLength": 4352,
			"target": 34962,
			"byteStride": 8,
			"byteOffset": 0
		},
		{
			"buffer": 0,
			"byteLength": 13056,
			"target": 34962,
			"byteStride": 12,
			"byteOffset": 4352
		},
		{
			"buffer": 0,
			"byteLength": 8704,
			"target": 34962,
			"byteStride": 16,
			"byteOffset": 17408
		}
	],
	"materials": [
		{
			"pbrMetallicRoughness": {
				"baseColorFactor": [1, 0.6179246, 0.6179246, 0.5176471],
				"metallicFactor": 0,
				"roughnessFactor": 1
			},
			"alphaMode": "BLEND",
			"alphaCutoff": 0.5,
			"emissiveFactor": [0, 0, 0],
			"doubleSided": false,
			"name": "Trans_mat"
		}
	],
	"meshes": [
		{
			"name": "mesh_museum_building_02_017_10844museum_building_02_017",
			"primitives": [
				{
					"attributes": {
						"POSITION": 0,
						"NORMAL": 1,
						"TEXCOORD_0": 2,
						"TANGENT": 3
					},
					"indices": 4,
					"material": 0,
					"mode": 4
				},
				{
					"attributes": {
						"POSITION": 0,
						"NORMAL": 1,
						"TEXCOORD_0": 2,
						"TANGENT": 3
					},
					"indices": 5,
					"material": 0,
					"mode": 4
				},
				{
					"attributes": {
						"POSITION": 0,
						"NORMAL": 1,
						"TEXCOORD_0": 2,
						"TANGENT": 3
					},
					"indices": 6,
					"material": 0,
					"mode": 4
				}
			]
		}
	],
	"nodes": [
		{
			"name": "UnityGlTF_root",
			"children": [
				1
			]
		},
		{
			"name": "node_museum_building_02_017",
			"mesh": 0,
			"matrix": [1, 0, 0, 0, 0, 1, 0, 0, 0, 0, 1, 0, 0, 0, 0, 1]
		}
	],
	"scenes": [
		{
			"name":"defaultScene",
			"nodes": [
				0
			]
		}
	],
	"scene": 0
}