{
	"asset": {
		"generator": "Unity 2018.3.6f1",
		"extras": {
			"exporterVersion" : "2.2.1"
		},
		"version": "2.0"
	},
	"accessors": [
		{
			"bufferView": 2,
			"byteOffset": 0,
			"componentType": 5126,
			"count": 951,
			"max": [ 2.479463, 6.556077, 3.894247 ],
			"min": [ -1.489409, 2.288818E-06, -4.32555 ],
			"type": "VEC3"
		},
		{
			"bufferView": 2,
			"byteOffset": 11412,
			"componentType": 5126,
			"count": 951,
			"max": [ 1, 1, 1 ],
			"min": [ -1, -1, -1 ],
			"type": "VEC3"
		},
		{
			"bufferView": 1,
			"byteOffset": 0,
			"componentType": 5126,
			"count": 951,
			"max": [ 5.311096, 0.9973167 ],
			"min": [ -4.576509, -0.811793 ],
			"type": "VEC2"
		},
		{
			"bufferView": 3,
			"byteOffset": 0,
			"componentType": 5126,
			"count": 951,
			"max": [ 1, 0.7071069, 1, 1 ],
			"min": [ -1, -0.9986122, -1, -1 ],
			"type": "VEC4"
		},
		{
			"bufferView": 0,
			"byteOffset": 0,
			"componentType": 5123,
			"count": 504,
			"max": [ 308 ],
			"min": [ 0 ],
			"type": "SCALAR"
		},
		{
			"bufferView": 0,
			"byteOffset": 1008,
			"componentType": 5123,
			"count": 78,
			"max": [ 344 ],
			"min": [ 309 ],
			"type": "SCALAR"
		},
		{
			"bufferView": 0,
			"byteOffset": 1164,
			"componentType": 5123,
			"count": 126,
			"max": [ 407 ],
			"min": [ 345 ],
			"type": "SCALAR"
		},
		{
			"bufferView": 0,
			"byteOffset": 1416,
			"componentType": 5123,
			"count": 522,
			"max": [ 604 ],
			"min": [ 408 ],
			"type": "SCALAR"
		},
		{
			"bufferView": 0,
			"byteOffset": 2460,
			"componentType": 5123,
			"count": 144,
			"max": [ 688 ],
			"min": [ 605 ],
			"type": "SCALAR"
		},
		{
			"bufferView": 0,
			"byteOffset": 2748,
			"componentType": 5123,
			"count": 252,
			"max": [ 784 ],
			"min": [ 689 ],
			"type": "SCALAR"
		},
		{
			"bufferView": 0,
			"byteOffset": 3252,
			"componentType": 5123,
			"count": 396,
			"max": [ 950 ],
			"min": [ 785 ],
			"type": "SCALAR"
		},
		{
			"bufferView": 2,
			"byteOffset": 22824,
			"componentType": 5126,
			"count": 75,
			"max": [ 2.587174, 0.8719884, 3.445759 ],
			"min": [ -1.816676, 2.598776E-06, -3.445758 ],
			"type": "VEC3"
		},
		{
			"bufferView": 2,
			"byteOffset": 23724,
			"componentType": 5126,
			"count": 75,
			"max": [ 0.9999996, 1, 1 ],
			"min": [ -1, -1, -1 ],
			"type": "VEC3"
		},
		{
			"bufferView": 1,
			"byteOffset": 7608,
			"componentType": 5126,
			"count": 75,
			"max": [ 0.875, 1 ],
			"min": [ 0.25, 0 ],
			"type": "VEC2"
		},
		{
			"bufferView": 3,
			"byteOffset": 15216,
			"componentType": 5126,
			"count": 75,
			"max": [ 1, 0.630497, 0.9974777, 1 ],
			"min": [ -1, -0.7687184, -1, -1 ],
			"type": "VEC4"
		},
		{
			"bufferView": 0,
			"byteOffset": 4044,
			"componentType": 5123,
			"count": 156,
			"max": [ 74 ],
			"min": [ 0 ],
			"type": "SCALAR"
		},
		{
			"bufferView": 2,
			"byteOffset": 24624,
			"componentType": 5126,
			"count": 468,
			"max": [ 1, 1.498636, 0.8660255 ],
			"min": [ -1, -1.480023, -0.8660254 ],
			"type": "VEC3"
		},
		{
			"bufferView": 2,
			"byteOffset": 30240,
			"componentType": 5126,
			"count": 468,
			"max": [ 0.97215, 1, 0.9998717 ],
			"min": [ -0.9721501, -1, -0.9998716 ],
			"type": "VEC3"
		},
		{
			"bufferView": 1,
			"byteOffset": 8208,
			"componentType": 5126,
			"count": 468,
			"max": [ 1.037607, 1 ],
			"min": [ -1.41784, 0 ],
			"type": "VEC2"
		},
		{
			"bufferView": 3,
			"byteOffset": 16416,
			"componentType": 5126,
			"count": 468,
			"max": [ 1, 0.6108406, 0.9752569, 1 ],
			"min": [ -1, -0.5284344, -0.981697, -1 ],
			"type": "VEC4"
		},
		{
			"bufferView": 0,
			"byteOffset": 4356,
			"componentType": 5123,
			"count": 444,
			"max": [ 275 ],
			"min": [ 0 ],
			"type": "SCALAR"
		},
		{
			"bufferView": 0,
			"byteOffset": 5244,
			"componentType": 5123,
			"count": 216,
			"max": [ 419 ],
			"min": [ 276 ],
			"type": "SCALAR"
		},
		{
			"bufferView": 0,
			"byteOffset": 5676,
			"componentType": 5123,
			"count": 72,
			"max": [ 467 ],
			"min": [ 420 ],
			"type": "SCALAR"
		},
		{
			"bufferView": 2,
			"byteOffset": 35856,
			"componentType": 5126,
			"count": 36,
			"max": [ 1, 1.456583, 0.8660255 ],
			"min": [ -1, -1.456583, -0.8660254 ],
			"type": "VEC3"
		},
		{
			"bufferView": 2,
			"byteOffset": 36288,
			"componentType": 5126,
			"count": 36,
			"max": [ 0.7234394, 1, 0.6265171 ],
			"min": [ -0.7234395, -1, -0.626517 ],
			"type": "VEC3"
		},
		{
			"bufferView": 1,
			"byteOffset": 11952,
			"componentType": 5126,
			"count": 36,
			"max": [ 0.2911283, 0.9977365 ],
			"min": [ 0.07621294, 0.811614 ],
			"type": "VEC2"
		},
		{
			"bufferView": 3,
			"byteOffset": 23904,
			"componentType": 5126,
			"count": 36,
			"max": [ 1, 0.2678667, 0.9289261, 1 ],
			"min": [ -1, -0.2678676, -0.9289265, 1 ],
			"type": "VEC4"
		},
		{
			"bufferView": 0,
			"byteOffset": 5820,
			"componentType": 5123,
			"count": 36,
			"max": [ 35 ],
			"min": [ 0 ],
			"type": "SCALAR"
		},
		{
			"bufferView": 2,
			"byteOffset": 36720,
			"componentType": 5126,
			"count": 468,
			"max": [ 1, 1.498636, 0.8660255 ],
			"min": [ -1, -1.480023, -0.8660254 ],
			"type": "VEC3"
		},
		{
			"bufferView": 2,
			"byteOffset": 42336,
			"componentType": 5126,
			"count": 468,
			"max": [ 0.97215, 1, 0.9998717 ],
			"min": [ -0.9721501, -1, -0.9998716 ],
			"type": "VEC3"
		},
		{
			"bufferView": 1,
			"byteOffset": 12240,
			"componentType": 5126,
			"count": 468,
			"max": [ 1.037607, 1 ],
			"min": [ -1.41784, 0 ],
			"type": "VEC2"
		},
		{
			"bufferView": 3,
			"byteOffset": 24480,
			"componentType": 5126,
			"count": 468,
			"max": [ 1, 0.6108406, 0.9752569, 1 ],
			"min": [ -1, -0.5284344, -0.981697, -1 ],
			"type": "VEC4"
		},
		{
			"bufferView": 0,
			"byteOffset": 5892,
			"componentType": 5123,
			"count": 444,
			"max": [ 275 ],
			"min": [ 0 ],
			"type": "SCALAR"
		},
		{
			"bufferView": 0,
			"byteOffset": 6780,
			"componentType": 5123,
			"count": 216,
			"max": [ 419 ],
			"min": [ 276 ],
			"type": "SCALAR"
		},
		{
			"bufferView": 0,
			"byteOffset": 7212,
			"componentType": 5123,
			"count": 72,
			"max": [ 467 ],
			"min": [ 420 ],
			"type": "SCALAR"
		},
		{
			"bufferView": 2,
			"byteOffset": 47952,
			"componentType": 5126,
			"count": 36,
			"max": [ 1, 1.456583, 0.8660255 ],
			"min": [ -1, -1.456583, -0.8660254 ],
			"type": "VEC3"
		},
		{
			"bufferView": 2,
			"byteOffset": 48384,
			"componentType": 5126,
			"count": 36,
			"max": [ 0.7234394, 1, 0.6265171 ],
			"min": [ -0.7234395, -1, -0.626517 ],
			"type": "VEC3"
		},
		{
			"bufferView": 1,
			"byteOffset": 15984,
			"componentType": 5126,
			"count": 36,
			"max": [ 0.2911283, 0.9977365 ],
			"min": [ 0.07621294, 0.811614 ],
			"type": "VEC2"
		},
		{
			"bufferView": 3,
			"byteOffset": 31968,
			"componentType": 5126,
			"count": 36,
			"max": [ 1, 0.2678667, 0.9289261, 1 ],
			"min": [ -1, -0.2678676, -0.9289265, 1 ],
			"type": "VEC4"
		},
		{
			"bufferView": 0,
			"byteOffset": 7356,
			"componentType": 5123,
			"count": 36,
			"max": [ 35 ],
			"min": [ 0 ],
			"type": "SCALAR"
		},
		{
			"bufferView": 2,
			"byteOffset": 48816,
			"componentType": 5126,
			"count": 496,
			"max": [ 0.2052322, 0.8223776, 0.2052322 ],
			"min": [ -0.2052322, 0, -0.2052322 ],
			"type": "VEC3"
		},
		{
			"bufferView": 2,
			"byteOffset": 54768,
			"componentType": 5126,
			"count": 496,
			"max": [ 1, 1, 1 ],
			"min": [ -1, -1, -1 ],
			"type": "VEC3"
		},
		{
			"bufferView": 1,
			"byteOffset": 16272,
			"componentType": 5126,
			"count": 496,
			"max": [ 1.267423, 1.4587 ],
			"min": [ -2.164506, 0.1517334 ],
			"type": "VEC2"
		},
		{
			"bufferView": 3,
			"byteOffset": 32544,
			"componentType": 5126,
			"count": 496,
			"max": [ 1, 1, 1, 1 ],
			"min": [ -1, -0.7810583, -1, -1 ],
			"type": "VEC4"
		},
		{
			"bufferView": 0,
			"byteOffset": 7428,
			"componentType": 5123,
			"count": 30,
			"max": [ 11 ],
			"min": [ 0 ],
			"type": "SCALAR"
		},
		{
			"bufferView": 0,
			"byteOffset": 7488,
			"componentType": 5123,
			"count": 30,
			"max": [ 23 ],
			"min": [ 12 ],
			"type": "SCALAR"
		},
		{
			"bufferView": 0,
			"byteOffset": 7548,
			"componentType": 5123,
			"count": 630,
			"max": [ 387 ],
			"min": [ 24 ],
			"type": "SCALAR"
		},
		{
			"bufferView": 0,
			"byteOffset": 8808,
			"componentType": 5123,
			"count": 78,
			"max": [ 439 ],
			"min": [ 388 ],
			"type": "SCALAR"
		},
		{
			"bufferView": 0,
			"byteOffset": 8964,
			"componentType": 5123,
			"count": 84,
			"max": [ 495 ],
			"min": [ 440 ],
			"type": "SCALAR"
		},
		{
			"bufferView": 2,
			"byteOffset": 60720,
			"componentType": 5126,
			"count": 240,
			"max": [ 0.5801904, 0.1391595, 0.510664 ],
			"min": [ -0.5801855, -0.001339416, -0.5110645 ],
			"type": "VEC3"
		},
		{
			"bufferView": 2,
			"byteOffset": 63600,
			"componentType": 5126,
			"count": 240,
			"max": [ 0.8799063, 0.9999971, 0.9999964 ],
			"min": [ -1, -0.9999964, -0.9995921 ],
			"type": "VEC3"
		},
		{
			"bufferView": 1,
			"byteOffset": 20240,
			"componentType": 5126,
			"count": 240,
			"max": [ 1.709227, 1.277208 ],
			"min": [ -1.14484, 0.001992064 ],
			"type": "VEC2"
		},
		{
			"bufferView": 3,
			"byteOffset": 40480,
			"componentType": 5126,
			"count": 240,
			"max": [ 1, 0.2553741, 0.9999971, 1 ],
			"min": [ -1, -0.2523012, -0.9999964, 1 ],
			"type": "VEC4"
		},
		{
			"bufferView": 0,
			"byteOffset": 9132,
			"componentType": 5123,
			"count": 18,
			"max": [ 6 ],
			"min": [ 0 ],
			"type": "SCALAR"
		},
		{
			"bufferView": 0,
			"byteOffset": 9168,
			"componentType": 5123,
			"count": 360,
			"max": [ 178 ],
			"min": [ 7 ],
			"type": "SCALAR"
		},
		{
			"bufferView": 0,
			"byteOffset": 9888,
			"componentType": 5123,
			"count": 162,
			"max": [ 239 ],
			"min": [ 179 ],
			"type": "SCALAR"
		},
		{
			"bufferView": 2,
			"byteOffset": 66480,
			"componentType": 5126,
			"count": 240,
			"max": [ 0.5801904, 0.1391595, 0.510664 ],
			"min": [ -0.5801855, -0.001339416, -0.5110645 ],
			"type": "VEC3"
		},
		{
			"bufferView": 2,
			"byteOffset": 69360,
			"componentType": 5126,
			"count": 240,
			"max": [ 0.8799063, 0.9999971, 0.9999964 ],
			"min": [ -1, -0.9999964, -0.9995921 ],
			"type": "VEC3"
		},
		{
			"bufferView": 1,
			"byteOffset": 22160,
			"componentType": 5126,
			"count": 240,
			"max": [ 1.709227, 1.277208 ],
			"min": [ -1.14484, 0.001992064 ],
			"type": "VEC2"
		},
		{
			"bufferView": 3,
			"byteOffset": 44320,
			"componentType": 5126,
			"count": 240,
			"max": [ 1, 0.2553741, 0.9999971, 1 ],
			"min": [ -1, -0.2523012, -0.9999964, 1 ],
			"type": "VEC4"
		},
		{
			"bufferView": 0,
			"byteOffset": 10212,
			"componentType": 5123,
			"count": 18,
			"max": [ 6 ],
			"min": [ 0 ],
			"type": "SCALAR"
		},
		{
			"bufferView": 0,
			"byteOffset": 10248,
			"componentType": 5123,
			"count": 360,
			"max": [ 178 ],
			"min": [ 7 ],
			"type": "SCALAR"
		},
		{
			"bufferView": 0,
			"byteOffset": 10968,
			"componentType": 5123,
			"count": 162,
			"max": [ 239 ],
			"min": [ 179 ],
			"type": "SCALAR"
		}
	],
	"buffers": [
		{
			"byteLength": 155772,
			"uri": "entity12848.bin"
		}
	],
	"bufferViews": [
		{
			"buffer": 0,
			"byteLength": 11292,
			"target": 34963,
			"byteOffset": 144480
		},
		{
			"buffer": 0,
			"byteLength": 24080,
			"target": 34962,
			"byteStride": 8,
			"byteOffset": 0
		},
		{
			"buffer": 0,
			"byteLength": 72240,
			"target": 34962,
			"byteStride": 12,
			"byteOffset": 24080
		},
		{
			"buffer": 0,
			"byteLength": 48160,
			"target": 34962,
			"byteStride": 16,
			"byteOffset": 96320
		}
	],
	"images": [
		{
			"uri": "Assets/Visuals/Materials/Textures/Tileset_Metal_03_Albedo.jpg"
		},
		{
			"uri": "Assets/Visuals/Materials/Textures/Tileset_Metal_03_Metallic_converted_metalRoughness.jpg"
		},
		{
			"uri": "Assets/Visuals/Materials/Textures/Tileset_Metal_03_Normal.jpg"
		},
		{
			"uri": "Assets/Visuals/Materials/Textures/Tileset_Metal_02_Albedo.jpg"
		},
		{
			"uri": "Assets/Visuals/Materials/Textures/Tileset_Metal_02_Metallic_converted_metalRoughness.jpg"
		},
		{
			"uri": "Assets/Visuals/Materials/Textures/Tileset_Metal_02_Normal.jpg"
		},
		{
			"uri": "Assets/Visuals/Materials/Textures/Tileset_Metal_02_Emissive.jpg"
		},
		{
			"uri": "Assets/Visuals/Materials/Textures/Tileset_Metal_02_Metallic.jpg"
		},
		{
			"uri": "Assets/Visuals/Materials/Textures/Tileset_Transparencies_01_Albedo.png"
		}
	],
	"materials": [
		{
			"pbrMetallicRoughness": {
				"baseColorTexture" : {
					"index" : 0,
					"texCoord" : 0
				},
				"baseColorFactor": [1, 1, 1, 1],
				"metallicRoughnessTexture" : {
					"index" : 1,
					"texCoord" : 0
				},
				"metallicFactor": 1,
				"roughnessFactor": 1
			},
			"normalTexture" : {
				"index" : 2,
				"texCoord" : 0,
				"scale" : 1
			},
			"emissiveFactor": [0, 0, 0],
			"doubleSided": false,
			"name": "Tileset_Metal_03_Mat"
		},
		{
			"pbrMetallicRoughness": {
				"baseColorFactor": [1, 1, 1, 1],
				"metallicFactor": 0,
				"roughnessFactor": 0.5
			},
			"emissiveFactor": [0, 0, 0],
			"doubleSided": false,
			"name": "Default-Material"
		},
		{
			"pbrMetallicRoughness": {
				"baseColorFactor": [1, 0.4039216, 0.4941177, 1],
				"metallicFactor": 0,
				"roughnessFactor": 0.5
			},
			"emissiveFactor": [1, 0.1356334, 0.2086369],
			"doubleSided": false,
			"name": "Tileset_Emissive_02_Mat"
		},
		{
			"pbrMetallicRoughness": {
				"baseColorFactor": [1, 0.8588236, 0, 1],
				"metallicFactor": 0,
				"roughnessFactor": 0.5
			},
			"emissiveFactor": [1, 0.708376, 0],
			"doubleSided": false,
			"name": "Tileset_Emissive_03_Mat"
		},
		{
			"pbrMetallicRoughness": {
				"baseColorTexture" : {
					"index" : 3,
					"texCoord" : 0
				},
				"baseColorFactor": [1, 1, 1, 1],
				"metallicRoughnessTexture" : {
					"index" : 4,
					"texCoord" : 0
				},
				"metallicFactor": 1,
				"roughnessFactor": 1
			},
			"normalTexture" : {
				"index" : 5,
				"texCoord" : 0,
				"scale" : 1
			},
			"emissiveTexture" : {
				"index" : 6,
				"texCoord" : 0
			},
			"emissiveFactor": [0.5, 0.5, 0.5],
			"occlusionTexture" : {
				"index" : 7,
				"texCoord" : 0,
				"strength" : 1
			},
			"doubleSided": false,
			"name": "Tileset_Metal_02_Mat"
		},
		{
			"pbrMetallicRoughness": {
				"baseColorFactor": [0.2075472, 0.2075472, 0.2075472, 0.4],
				"metallicFactor": 0,
				"roughnessFactor": 0.2
			},
			"alphaMode": "BLEND",
			"alphaCutoff": 0.5,
			"emissiveFactor": [0, 0, 0],
			"doubleSided": false,
			"name": "Glass_Windowed_Mat"
		},
		{
			"pbrMetallicRoughness": {
				"baseColorTexture" : {
					"index" : 8,
					"texCoord" : 0
				},
				"baseColorFactor": [1, 1, 1, 1],
				"metallicFactor": 0,
				"roughnessFactor": 0.5
			},
			"alphaMode": "BLEND",
			"alphaCutoff": 0.5,
			"emissiveTexture" : {
				"index" : 8,
				"texCoord" : 0
			},
			"emissiveFactor": [0.3867925, 0.3867925, 0.3867925],
			"doubleSided": false,
			"name": "Tileset_Transparencies_01_Mat"
		},
		{
			"pbrMetallicRoughness": {
				"baseColorFactor": [0.2036906, 1, 0, 1],
				"metallicFactor": 0,
				"roughnessFactor": 0.5
			},
			"emissiveFactor": [0, 0, 0],
			"doubleSided": false,
			"name": "Collider_Mat"
		},
		{
			"pbrMetallicRoughness": {
				"baseColorFactor": [1, 1, 1, 1],
				"metallicFactor": 0,
				"roughnessFactor": 0.5
			},
			"emissiveFactor": [0.7098798, 0.2883886, 0.3493939],
			"doubleSided": false,
			"name": "Tileset_Emissive_01_Mat"
		}
	],
	"meshes": [
		{
			"name": "mesh_Museum_SignBook_01_10520Mesh_information_Desktop_01",
			"primitives": [
				{
					"attributes": {
						"POSITION": 0,
						"NORMAL": 1,
						"TEXCOORD_0": 2,
						"TANGENT": 3
					},
					"indices": 4,
					"material": 0,
					"mode": 4
				},
				{
					"attributes": {
						"POSITION": 0,
						"NORMAL": 1,
						"TEXCOORD_0": 2,
						"TANGENT": 3
					},
					"indices": 5,
					"material": 1,
					"mode": 4
				},
				{
					"attributes": {
						"POSITION": 0,
						"NORMAL": 1,
						"TEXCOORD_0": 2,
						"TANGENT": 3
					},
					"indices": 6,
					"material": 2,
					"mode": 4
				},
				{
					"attributes": {
						"POSITION": 0,
						"NORMAL": 1,
						"TEXCOORD_0": 2,
						"TANGENT": 3
					},
					"indices": 7,
					"material": 3,
					"mode": 4
				},
				{
					"attributes": {
						"POSITION": 0,
						"NORMAL": 1,
						"TEXCOORD_0": 2,
						"TANGENT": 3
					},
					"indices": 8,
					"material": 4,
					"mode": 4
				},
				{
					"attributes": {
						"POSITION": 0,
						"NORMAL": 1,
						"TEXCOORD_0": 2,
						"TANGENT": 3
					},
					"indices": 9,
					"material": 5,
					"mode": 4
				},
				{
					"attributes": {
						"POSITION": 0,
						"NORMAL": 1,
						"TEXCOORD_0": 2,
						"TANGENT": 3
					},
					"indices": 10,
					"material": 6,
					"mode": 4
				}
			]
		},
		{
			"name": "mesh_Museum_SignBook_01_Collider_10522Museum_SignBook_01_Collider",
			"primitives": [
				{
					"attributes": {
						"POSITION": 11,
						"NORMAL": 12,
						"TEXCOORD_0": 13,
						"TANGENT": 14
					},
					"indices": 15,
					"material": 7,
					"mode": 4
				}
			]
		},
		{
			"name": "mesh_Museum_Deco_Lamp_01_10502Museum_Deco_Lamp_01 (3)",
			"primitives": [
				{
					"attributes": {
						"POSITION": 16,
						"NORMAL": 17,
						"TEXCOORD_0": 18,
						"TANGENT": 19
					},
					"indices": 20,
					"material": 4,
					"mode": 4
				},
				{
					"attributes": {
						"POSITION": 16,
						"NORMAL": 17,
						"TEXCOORD_0": 18,
						"TANGENT": 19
					},
					"indices": 21,
					"material": 0,
					"mode": 4
				},
				{
					"attributes": {
						"POSITION": 16,
						"NORMAL": 17,
						"TEXCOORD_0": 18,
						"TANGENT": 19
					},
					"indices": 22,
					"material": 8,
					"mode": 4
				}
			]
		},
		{
			"name": "mesh_Museum_Deco_Lamp_01_Fade_10504Museum_Deco_Lamp_01_Fade",
			"primitives": [
				{
					"attributes": {
						"POSITION": 23,
						"NORMAL": 24,
						"TEXCOORD_0": 25,
						"TANGENT": 26
					},
					"indices": 27,
					"material": 6,
					"mode": 4
				}
			]
		},
		{
			"name": "mesh_Museum_Deco_Lamp_01_10502Museum_Deco_Lamp_01 (4)",
			"primitives": [
				{
					"attributes": {
						"POSITION": 28,
						"NORMAL": 29,
						"TEXCOORD_0": 30,
						"TANGENT": 31
					},
					"indices": 32,
					"material": 4,
					"mode": 4
				},
				{
					"attributes": {
						"POSITION": 28,
						"NORMAL": 29,
						"TEXCOORD_0": 30,
						"TANGENT": 31
					},
					"indices": 33,
					"material": 0,
					"mode": 4
				},
				{
					"attributes": {
						"POSITION": 28,
						"NORMAL": 29,
						"TEXCOORD_0": 30,
						"TANGENT": 31
					},
					"indices": 34,
					"material": 8,
					"mode": 4
				}
			]
		},
		{
			"name": "mesh_Museum_Deco_Lamp_01_Fade_10504Museum_Deco_Lamp_01_Fade",
			"primitives": [
				{
					"attributes": {
						"POSITION": 35,
						"NORMAL": 36,
						"TEXCOORD_0": 37,
						"TANGENT": 38
					},
					"indices": 39,
					"material": 6,
					"mode": 4
				}
			]
		},
		{
			"name": "mesh_Museum_Deco_Trashcan_01_10858Museum_Deco_Trashcan_01 (3)",
			"primitives": [
				{
					"attributes": {
						"POSITION": 40,
						"NORMAL": 41,
						"TEXCOORD_0": 42,
						"TANGENT": 43
					},
					"indices": 44,
					"material": 5,
					"mode": 4
				},
				{
					"attributes": {
						"POSITION": 40,
						"NORMAL": 41,
						"TEXCOORD_0": 42,
						"TANGENT": 43
					},
					"indices": 45,
					"material": 3,
					"mode": 4
				},
				{
					"attributes": {
						"POSITION": 40,
						"NORMAL": 41,
						"TEXCOORD_0": 42,
						"TANGENT": 43
					},
					"indices": 46,
					"material": 0,
					"mode": 4
				},
				{
					"attributes": {
						"POSITION": 40,
						"NORMAL": 41,
						"TEXCOORD_0": 42,
						"TANGENT": 43
					},
					"indices": 47,
					"material": 4,
					"mode": 4
				},
				{
					"attributes": {
						"POSITION": 40,
						"NORMAL": 41,
						"TEXCOORD_0": 42,
						"TANGENT": 43
					},
					"indices": 48,
					"material": 2,
					"mode": 4
				}
			]
		},
		{
			"name": "mesh_Hex_Deco_01_10260Hex_Deco (1)",
			"primitives": [
				{
					"attributes": {
						"POSITION": 49,
						"NORMAL": 50,
						"TEXCOORD_0": 51,
						"TANGENT": 52
					},
					"indices": 53,
					"material": 5,
					"mode": 4
				},
				{
					"attributes": {
						"POSITION": 49,
						"NORMAL": 50,
						"TEXCOORD_0": 51,
						"TANGENT": 52
					},
					"indices": 54,
					"material": 4,
					"mode": 4
				},
				{
					"attributes": {
						"POSITION": 49,
						"NORMAL": 50,
						"TEXCOORD_0": 51,
						"TANGENT": 52
					},
					"indices": 55,
					"material": 2,
					"mode": 4
				}
			]
		},
		{
			"name": "mesh_Hex_Deco_01_10260Hex_Deco (2)",
			"primitives": [
				{
					"attributes": {
						"POSITION": 56,
						"NORMAL": 57,
						"TEXCOORD_0": 58,
						"TANGENT": 59
					},
					"indices": 60,
					"material": 5,
					"mode": 4
				},
				{
					"attributes": {
						"POSITION": 56,
						"NORMAL": 57,
						"TEXCOORD_0": 58,
						"TANGENT": 59
					},
					"indices": 61,
					"material": 4,
					"mode": 4
				},
				{
					"attributes": {
						"POSITION": 56,
						"NORMAL": 57,
						"TEXCOORD_0": 58,
						"TANGENT": 59
					},
					"indices": 62,
					"material": 2,
					"mode": 4
				}
			]
		}
	],
	"nodes": [
		{
			"name": "UnityGlTF_root",
			"children": [
				1
			]
		},
		{
			"name": "node_Mesh_information_Desktop_01",
			"mesh": 0,
			"children": [
				2,
				3,
				5,
				7,
				8,
				9
			],
			"matrix": [1, 0, 0, 0, 0, 1, 0, 0, 0, 0, 1, 0, 0, 0, 0, 1]
		},
		{
			"name": "node_Museum_SignBook_01_Collider",
			"mesh": 1
		},
		{
			"name": "node_Museum_Deco_Lamp_01 (3)",
			"mesh": 2,
			"children": [
				4
			],
			"translation": [ 3.300559, 4.111578, -8.079342],
			"rotation": [0, 0.4999992, 0, -0.8660259]
		},
		{
			"name": "node_Museum_Deco_Lamp_01_Fade",
			"mesh": 3
		},
		{
			"name": "node_Museum_Deco_Lamp_01 (4)",
			"mesh": 4,
			"children": [
				4
			],
			"translation": [ 3.018656, 4.111578, 8.268434],
			"rotation": [0, 0.4999992, 0, -0.8660259]
		},
		{
			"name": "node_Museum_Deco_Lamp_01_Fade",
			"mesh": 5
		},
		{
			"name": "node_Museum_Deco_Trashcan_01 (3)",
			"mesh": 6,
			"translation": [ 1.050319, 0.008955419, 3.839196],
			"rotation": [0, 0.7071058, 0, -0.7071078]
		},
		{
			"name": "node_Hex_Deco (1)",
			"mesh": 7,
			"translation": [ 3.187566, 0.08695662, -7.977139],
			"rotation": [0, 0.4999992, 0, -0.8660259]
		},
		{
			"name": "node_Hex_Deco (2)",
			"mesh": 8,
			"translation": [ 2.929382, 0.08695662, 8.30381],
			"rotation": [0, 0.4999992, 0, -0.8660259]
		}
	],
	"samplers": [
		{
			"magFilter": 9729,
			"minFilter": 9985,
			"wrapS": 10497,
			"wrapT": 10497
		}
	],
	"scenes": [
		{
			"name":"defaultScene",
			"nodes": [
				0
			]
		}
	],
	"scene": 0,
	"textures": [
		{
			"sampler": 0,
			"source": 0
		},
		{
			"sampler": 0,
			"source": 1
		},
		{
			"sampler": 0,
			"source": 2
		},
		{
			"sampler": 0,
			"source": 3
		},
		{
			"sampler": 0,
			"source": 4
		},
		{
			"sampler": 0,
			"source": 5
		},
		{
			"sampler": 0,
			"source": 6
		},
		{
			"sampler": 0,
			"source": 7
		},
		{
			"sampler": 0,
			"source": 8
		}
	]
}