{
	"asset": {
		"generator": "Unity 2018.3.6f1",
		"extras": {
			"exporterVersion" : "2.2.1"
		},
		"version": "2.0"
	},
	"accessors": [
		{
			"bufferView": 2,
			"byteOffset": 0,
			"componentType": 5126,
			"count": 448,
			"max": [ 0.997021, 0.689527, 0.4187961 ],
			"min": [ -1.157167, -0.05361023, -1.436903 ],
			"type": "VEC3"
		},
		{
			"bufferView": 2,
			"byteOffset": 5376,
			"componentType": 5126,
			"count": 448,
			"max": [ 0.9993151, 0.9636049, 0.9998531 ],
			"min": [ -0.9993149, -1, -0.9984885 ],
			"type": "VEC3"
		},
		{
			"bufferView": 1,
			"byteOffset": 0,
			"componentType": 5126,
			"count": 448,
			"max": [ 0.6537244, 0.9758017 ],
			"min": [ 0.3462756, 0.02093351 ],
			"type": "VEC2"
		},
		{
			"bufferView": 3,
			"byteOffset": 0,
			"componentType": 5126,
			"count": 448,
			"max": [ 1, 0.4972882, 0.9999986, 1 ],
			"min": [ -1, -0.4973315, -0.9997812, 1 ],
			"type": "VEC4"
		},
		{
			"bufferView": 0,
			"byteOffset": 0,
			"componentType": 5123,
			"count": 306,
			"max": [ 154 ],
			"min": [ 0 ],
			"type": "SCALAR"
		},
		{
			"bufferView": 0,
			"byteOffset": 612,
			"componentType": 5123,
			"count": 270,
			"max": [ 243 ],
			"min": [ 1 ],
			"type": "SCALAR"
		},
		{
			"bufferView": 0,
			"byteOffset": 1152,
			"componentType": 5123,
			"count": 72,
			"max": [ 273 ],
			"min": [ 103 ],
			"type": "SCALAR"
		},
		{
			"bufferView": 0,
			"byteOffset": 1296,
			"componentType": 5123,
			"count": 396,
			"max": [ 447 ],
			"min": [ 15 ],
			"type": "SCALAR"
		},
		{
			"bufferView": 2,
			"byteOffset": 10752,
			"componentType": 5126,
			"count": 271,
			"max": [ 0.716831, 0.08531921, -1.612773 ],
			"min": [ -0.4435449, -0.06956756, -2.635967 ],
			"type": "VEC3"
		},
		{
			"bufferView": 2,
			"byteOffset": 14004,
			"componentType": 5126,
			"count": 271,
			"max": [ 0.8799063, 0.9998583, 0.9998531 ],
			"min": [ -1, -0.9998535, -0.9994491 ],
			"type": "VEC3"
		},
		{
			"bufferView": 1,
			"byteOffset": 3584,
			"componentType": 5126,
			"count": 271,
			"max": [ 1.118223, 1.019244 ],
			"min": [ -0.1061307, -0.04555392 ],
			"type": "VEC2"
		},
		{
			"bufferView": 3,
			"byteOffset": 7168,
			"componentType": 5126,
			"count": 271,
			"max": [ 1, 0.7288788, 0.9998531, 1 ],
			"min": [ -1, -0.7340596, -0.9998531, 1 ],
			"type": "VEC4"
		},
		{
			"bufferView": 0,
			"byteOffset": 2088,
			"componentType": 5123,
			"count": 18,
			"max": [ 6 ],
			"min": [ 0 ],
			"type": "SCALAR"
		},
		{
			"bufferView": 0,
			"byteOffset": 2124,
			"componentType": 5123,
			"count": 54,
			"max": [ 24 ],
			"min": [ 7 ],
			"type": "SCALAR"
		},
		{
			"bufferView": 0,
			"byteOffset": 2232,
			"componentType": 5123,
			"count": 144,
			"max": [ 120 ],
			"min": [ 25 ],
			"type": "SCALAR"
		},
		{
			"bufferView": 0,
			"byteOffset": 2520,
			"componentType": 5123,
			"count": 252,
			"max": [ 236 ],
			"min": [ 9 ],
			"type": "SCALAR"
		},
		{
			"bufferView": 0,
			"byteOffset": 3024,
			"componentType": 5123,
			"count": 72,
			"max": [ 270 ],
			"min": [ 237 ],
			"type": "SCALAR"
		},
		{
			"bufferView": 2,
			"byteOffset": 17256,
			"componentType": 5126,
			"count": 24,
			"max": [ 0.5, 0.5, 0.5 ],
			"min": [ -0.5, -0.5, -0.5 ],
			"type": "VEC3"
		},
		{
			"bufferView": 2,
			"byteOffset": 17544,
			"componentType": 5126,
			"count": 24,
			"max": [ 1, 1, 1 ],
			"min": [ -1, -1, -1 ],
			"type": "VEC3"
		},
		{
			"bufferView": 1,
			"byteOffset": 5752,
			"componentType": 5126,
			"count": 24,
			"max": [ 1, 1 ],
			"min": [ 0, 0 ],
			"type": "VEC2"
		},
		{
			"bufferView": 1,
			"byteOffset": 5944,
			"componentType": 5126,
			"count": 24,
			"max": [ 0.9966581, 0.6528358 ],
			"min": [ 0.004055766, 0.004055766 ],
			"type": "VEC2"
		},
		{
			"bufferView": 3,
			"byteOffset": 11504,
			"componentType": 5126,
			"count": 24,
			"max": [ 0, 0, 1, 1 ],
			"min": [ -1, 0, -1, 1 ],
			"type": "VEC4"
		},
		{
			"bufferView": 0,
			"byteOffset": 3168,
			"componentType": 5123,
			"count": 36,
			"max": [ 23 ],
			"min": [ 0 ],
			"type": "SCALAR"
		}
	],
	"buffers": [
		{
			"byteLength": 39096,
			"uri": "entity29750n.bin"
		}
	],
	"bufferViews": [
		{
			"buffer": 0,
			"byteLength": 3240,
			"target": 34963,
			"byteOffset": 35856
		},
		{
			"buffer": 0,
			"byteLength": 6136,
			"target": 34962,
			"byteStride": 8,
			"byteOffset": 0
		},
		{
			"buffer": 0,
			"byteLength": 17832,
			"target": 34962,
			"byteStride": 12,
			"byteOffset": 6136
		},
		{
			"buffer": 0,
			"byteLength": 11888,
			"target": 34962,
			"byteStride": 16,
			"byteOffset": 23968
		}
	],
	"materials": [
		{
			"pbrMetallicRoughness": {
				"baseColorFactor": [1, 0.135, 0.2734865, 1],
				"metallicFactor": 0,
				"roughnessFactor": 1
			},
			"emissiveFactor": [0, 0, 0],
			"doubleSided": false,
			"name": "dark_light14"
		},
		{
			"pbrMetallicRoughness": {
				"baseColorFactor": [0.02121905, 0.06124734, 0.1119327, 1],
				"metallicFactor": 0,
				"roughnessFactor": 1
			},
			"emissiveFactor": [0, 0, 0],
			"doubleSided": false,
			"name": "dark_floor_mid_tone12"
		},
		{
			"pbrMetallicRoughness": {
				"baseColorFactor": [0.001213806, 0.006995456, 0.01161246, 1],
				"metallicFactor": 0,
				"roughnessFactor": 1
			},
			"emissiveFactor": [0, 0, 0],
			"doubleSided": false,
			"name": "dark_floor_base12"
		},
		{
			"pbrMetallicRoughness": {
				"baseColorFactor": [0.1946184, 0.3049946, 0.376263, 1],
				"metallicFactor": 0,
				"roughnessFactor": 1
			},
			"emissiveFactor": [0, 0, 0],
			"doubleSided": false,
			"name": "dark_floorlighter_tone8"
		},
		{
			"pbrMetallicRoughness": {
				"baseColorFactor": [1, 1, 1, 0.7820513],
				"metallicFactor": 0,
				"roughnessFactor": 1
			},
			"alphaMode": "BLEND",
			"alphaCutoff": 0.5,
			"emissiveFactor": [0, 0, 0],
			"doubleSided": false,
			"name": "art_example"
		},
		{
			"pbrMetallicRoughness": {
				"baseColorFactor": [1, 1, 1, 1],
				"metallicFactor": 0,
				"roughnessFactor": 0.5
			},
			"emissiveFactor": [0, 0, 0],
			"doubleSided": false,
			"name": "Default-Material"
		}
	],
	"meshes": [
		{
			"name": "mesh_stand_exhibit_01_2_15730museum_art_exhibit",
			"primitives": [
				{
					"attributes": {
						"POSITION": 0,
						"NORMAL": 1,
						"TEXCOORD_0": 2,
						"TANGENT": 3
					},
					"indices": 4,
					"material": 0,
					"mode": 4
				},
				{
					"attributes": {
						"POSITION": 0,
						"NORMAL": 1,
						"TEXCOORD_0": 2,
						"TANGENT": 3
					},
					"indices": 5,
					"material": 1,
					"mode": 4
				},
				{
					"attributes": {
						"POSITION": 0,
						"NORMAL": 1,
						"TEXCOORD_0": 2,
						"TANGENT": 3
					},
					"indices": 6,
					"material": 2,
					"mode": 4
				},
				{
					"attributes": {
						"POSITION": 0,
						"NORMAL": 1,
						"TEXCOORD_0": 2,
						"TANGENT": 3
					},
					"indices": 7,
					"material": 3,
					"mode": 4
				}
			]
		},
		{
			"name": "mesh_exhibit_zoom_01_1_15732exhibit_zoom_01_1",
			"primitives": [
				{
					"attributes": {
						"POSITION": 8,
						"NORMAL": 9,
						"TEXCOORD_0": 10,
						"TANGENT": 11
					},
					"indices": 12,
					"material": 4,
					"mode": 4
				},
				{
					"attributes": {
						"POSITION": 8,
						"NORMAL": 9,
						"TEXCOORD_0": 10,
						"TANGENT": 11
					},
					"indices": 13,
					"material": 2,
					"mode": 4
				},
				{
					"attributes": {
						"POSITION": 8,
						"NORMAL": 9,
						"TEXCOORD_0": 10,
						"TANGENT": 11
					},
					"indices": 14,
					"material": 0,
					"mode": 4
				},
				{
					"attributes": {
						"POSITION": 8,
						"NORMAL": 9,
						"TEXCOORD_0": 10,
						"TANGENT": 11
					},
					"indices": 15,
					"material": 1,
					"mode": 4
				},
				{
					"attributes": {
						"POSITION": 8,
						"NORMAL": 9,
						"TEXCOORD_0": 10,
						"TANGENT": 11
					},
					"indices": 16,
					"material": 3,
					"mode": 4
				}
			]
		},
		{
			"name": "mesh_Cube_76NFT_Measures",
			"primitives": [
				{
					"attributes": {
						"POSITION": 17,
						"NORMAL": 18,
						"TEXCOORD_0": 19,
						"TEXCOORD_1": 20,
						"TANGENT": 21
					},
					"indices": 22,
					"material": 5,
					"mode": 4
				}
			]
		}
	],
	"nodes": [
		{
			"name": "UnityGlTF_root",
			"children": [
				1
			]
		},
		{
			"name": "node_museum_art_exhibit",
			"mesh": 0,
			"children": [
				2,
				3,
				4
			],
			"matrix": [1, 0, 0, 0, 0, 1, 0, 0, 0, 0, 1, 0, 0, 0, 0, 1]
		},
		{
			"name": "node_exhibit_zoom_01_1",
			"mesh": 1
		},
		{
			"name": "node_NFT_Placement",
			"translation": [ 0, 2.28, 0],
			"scale": [ 3.552656, 2.501288, 0.3380502]
		},
		{
			"name": "node_NFT_Measures",
			"mesh": 2,
			"translation": [ 0, 2.28, 0],
			"scale": [ 3.552656, 2.501288, 0.3380502]
		}
	],
	"scenes": [
		{
			"name":"defaultScene",
			"nodes": [
				0
			]
		}
	],
	"scene": 0
}