{
	"asset": {
		"generator": "Unity 2018.3.6f1",
		"extras": {
			"exporterVersion" : "2.2.1"
		},
		"version": "2.0"
	},
	"accessors": [
		{
			"bufferView": 2,
			"byteOffset": 0,
			"componentType": 5126,
			"count": 2712,
			"max": [ 1.537392, 5.285924, 1.331422 ],
			"min": [ -1.537392, 2.441406E-06, -1.331422 ],
			"type": "VEC3"
		},
		{
			"bufferView": 2,
			"byteOffset": 32544,
			"componentType": 5126,
			"count": 2712,
			"max": [ 1, 1, 1 ],
			"min": [ -1, -1, -1 ],
			"type": "VEC3"
		},
		{
			"bufferView": 1,
			"byteOffset": 0,
			"componentType": 5126,
			"count": 2712,
			"max": [ 2.545769, 2.09426 ],
			"min": [ -1.321531, -1.311239 ],
			"type": "VEC2"
		},
		{
			"bufferView": 3,
			"byteOffset": 0,
			"componentType": 5126,
			"count": 2712,
			"max": [ 1, 0.9376373, 1, 1 ],
			"min": [ -1, -0.8861208, -1, 1 ],
			"type": "VEC4"
		},
		{
			"bufferView": 0,
			"byteOffset": 0,
			"componentType": 5123,
			"count": 3420,
			"max": [ 1983 ],
			"min": [ 0 ],
			"type": "SCALAR"
		},
		{
			"bufferView": 0,
			"byteOffset": 6840,
			"componentType": 5123,
			"count": 36,
			"max": [ 2019 ],
			"min": [ 1984 ],
			"type": "SCALAR"
		},
		{
			"bufferView": 0,
			"byteOffset": 6912,
			"componentType": 5123,
			"count": 504,
			"max": [ 2357 ],
			"min": [ 2020 ],
			"type": "SCALAR"
		},
		{
			"bufferView": 0,
			"byteOffset": 7920,
			"componentType": 5123,
			"count": 108,
			"max": [ 2429 ],
			"min": [ 2358 ],
			"type": "SCALAR"
		},
		{
			"bufferView": 0,
			"byteOffset": 8136,
			"componentType": 5123,
			"count": 36,
			"max": [ 2453 ],
			"min": [ 2430 ],
			"type": "SCALAR"
		},
		{
			"bufferView": 0,
			"byteOffset": 8208,
			"componentType": 5123,
			"count": 36,
			"max": [ 2465 ],
			"min": [ 2454 ],
			"type": "SCALAR"
		},
		{
			"bufferView": 0,
			"byteOffset": 8280,
			"componentType": 5123,
			"count": 414,
			"max": [ 2711 ],
			"min": [ 2466 ],
			"type": "SCALAR"
		},
		{
			"bufferView": 2,
			"byteOffset": 65088,
			"componentType": 5126,
			"count": 38,
			"max": [ 1.012397, 5.359538, 0.8767619 ],
			"min": [ -1.012397, -0.01799439, -0.8767619 ],
			"type": "VEC3"
		},
		{
			"bufferView": 2,
			"byteOffset": 65544,
			"componentType": 5126,
			"count": 38,
			"max": [ 0.8660255, 1, 1 ],
			"min": [ -0.8660255, -1, -1 ],
			"type": "VEC3"
		},
		{
			"bufferView": 1,
			"byteOffset": 21696,
			"componentType": 5126,
			"count": 38,
			"max": [ 0.65625, 0.9790665 ],
			"min": [ 0.34375, 0.02093351 ],
			"type": "VEC2"
		},
		{
			"bufferView": 3,
			"byteOffset": 43392,
			"componentType": 5126,
			"count": 38,
			"max": [ 1, 0, 0.8660255, 1 ],
			"min": [ -1, 0, -0.8660255, 1 ],
			"type": "VEC4"
		},
		{
			"bufferView": 0,
			"byteOffset": 9108,
			"componentType": 5123,
			"count": 72,
			"max": [ 37 ],
			"min": [ 0 ],
			"type": "SCALAR"
		}
	],
	"buffers": [
		{
			"byteLength": 141252,
			"uri": "entity12458.bin"
		}
	],
	"bufferViews": [
		{
			"buffer": 0,
			"byteLength": 9252,
			"target": 34963,
			"byteOffset": 132000
		},
		{
			"buffer": 0,
			"byteLength": 22000,
			"target": 34962,
			"byteStride": 8,
			"byteOffset": 0
		},
		{
			"buffer": 0,
			"byteLength": 66000,
			"target": 34962,
			"byteStride": 12,
			"byteOffset": 22000
		},
		{
			"buffer": 0,
			"byteLength": 44000,
			"target": 34962,
			"byteStride": 16,
			"byteOffset": 88000
		}
	],
	"materials": [
		{
			"pbrMetallicRoughness": {
				"baseColorFactor": [1, 1, 1, 1],
				"metallicFactor": 0,
				"roughnessFactor": 0.5
			},
			"emissiveFactor": [0, 0, 0],
			"doubleSided": false,
			"name": "Default-Material"
		},
		{
			"pbrMetallicRoughness": {
				"baseColorFactor": [0.2036906, 1, 0, 1],
				"metallicFactor": 0,
				"roughnessFactor": 0.5
			},
			"emissiveFactor": [0, 0, 0],
			"doubleSided": false,
			"name": "Collider_Mat"
		}
	],
	"meshes": [
		{
			"name": "mesh_Museum_Deco_FishTank_01_11314Mesh_fish_tank_01",
			"primitives": [
				{
					"attributes": {
						"POSITION": 0,
						"NORMAL": 1,
						"TEXCOORD_0": 2,
						"TANGENT": 3
					},
					"indices": 4,
					"material": 0,
					"mode": 4
				},
				{
					"attributes": {
						"POSITION": 0,
						"NORMAL": 1,
						"TEXCOORD_0": 2,
						"TANGENT": 3
					},
					"indices": 5,
					"material": 0,
					"mode": 4
				},
				{
					"attributes": {
						"POSITION": 0,
						"NORMAL": 1,
						"TEXCOORD_0": 2,
						"TANGENT": 3
					},
					"indices": 6,
					"material": 0,
					"mode": 4
				},
				{
					"attributes": {
						"POSITION": 0,
						"NORMAL": 1,
						"TEXCOORD_0": 2,
						"TANGENT": 3
					},
					"indices": 7,
					"material": 0,
					"mode": 4
				},
				{
					"attributes": {
						"POSITION": 0,
						"NORMAL": 1,
						"TEXCOORD_0": 2,
						"TANGENT": 3
					},
					"indices": 8,
					"material": 0,
					"mode": 4
				},
				{
					"attributes": {
						"POSITION": 0,
						"NORMAL": 1,
						"TEXCOORD_0": 2,
						"TANGENT": 3
					},
					"indices": 9,
					"material": 0,
					"mode": 4
				},
				{
					"attributes": {
						"POSITION": 0,
						"NORMAL": 1,
						"TEXCOORD_0": 2,
						"TANGENT": 3
					},
					"indices": 10,
					"material": 0,
					"mode": 4
				}
			]
		},
		{
			"name": "mesh_Museum_Deco_FishTank_01_Collider_16272Museum_Deco_FishTank_01_Collider",
			"primitives": [
				{
					"attributes": {
						"POSITION": 11,
						"NORMAL": 12,
						"TEXCOORD_0": 13,
						"TANGENT": 14
					},
					"indices": 15,
					"material": 1,
					"mode": 4
				}
			]
		}
	],
	"nodes": [
		{
			"name": "UnityGlTF_root",
			"children": [
				1
			]
		},
		{
			"name": "node_Mesh_fish_tank_01",
			"mesh": 0,
			"children": [
				2
			],
			"matrix": [1, 0, 0, 0, 0, 1, 0, 0, 0, 0, 1, 0, 0, 0, 0, 1]
		},
		{
			"name": "node_Museum_Deco_FishTank_01_Collider",
			"mesh": 1
		}
	],
	"scenes": [
		{
			"name":"defaultScene",
			"nodes": [
				0
			]
		}
	],
	"scene": 0
}