{
	"asset": {
		"generator": "Unity 2018.3.6f1",
		"extras": {
			"exporterVersion" : "2.2.1"
		},
		"version": "2.0"
	},
	"accessors": [
		{
			"bufferView": 2,
			"byteOffset": 0,
			"componentType": 5126,
			"count": 1366,
			"max": [ 3.510328, 12.17362, 3.510328 ],
			"min": [ -3.510328, 0, -3.510328 ],
			"type": "VEC3"
		},
		{
			"bufferView": 2,
			"byteOffset": 16392,
			"componentType": 5126,
			"count": 1366,
			"max": [ 0.999951, 1, 0.999951 ],
			"min": [ -0.999951, -0.9849799, -0.999951 ],
			"type": "VEC3"
		},
		{
			"bufferView": 1,
			"byteOffset": 0,
			"componentType": 5126,
			"count": 1366,
			"max": [ 2.538963, 0.9988194 ],
			"min": [ -1.124731, 0 ],
			"type": "VEC2"
		},
		{
			"bufferView": 3,
			"byteOffset": 0,
			"componentType": 5126,
			"count": 1366,
			"max": [ 1, 0.9547568, 1, 1 ],
			"min": [ -1, -0.9999707, -1, -1 ],
			"type": "VEC4"
		},
		{
			"bufferView": 0,
			"byteOffset": 0,
			"componentType": 5123,
			"count": 1416,
			"max": [ 819 ],
			"min": [ 0 ],
			"type": "SCALAR"
		},
		{
			"bufferView": 0,
			"byteOffset": 2832,
			"componentType": 5123,
			"count": 216,
			"max": [ 927 ],
			"min": [ 93 ],
			"type": "SCALAR"
		},
		{
			"bufferView": 0,
			"byteOffset": 3264,
			"componentType": 5123,
			"count": 180,
			"max": [ 1053 ],
			"min": [ 928 ],
			"type": "SCALAR"
		},
		{
			"bufferView": 0,
			"byteOffset": 3624,
			"componentType": 5123,
			"count": 576,
			"max": [ 1365 ],
			"min": [ 1054 ],
			"type": "SCALAR"
		},
		{
			"bufferView": 2,
			"byteOffset": 32784,
			"componentType": 5126,
			"count": 48,
			"max": [ 1.121912, 12.09761, 1.121912 ],
			"min": [ -1.121912, 0, -1.121912 ],
			"type": "VEC3"
		},
		{
			"bufferView": 2,
			"byteOffset": 33360,
			"componentType": 5126,
			"count": 48,
			"max": [ 1, 1, 1 ],
			"min": [ -1, -1, -1 ],
			"type": "VEC3"
		},
		{
			"bufferView": 1,
			"byteOffset": 10928,
			"componentType": 5126,
			"count": 48,
			"max": [ 0.875, 1 ],
			"min": [ 0.125, 0 ],
			"type": "VEC2"
		},
		{
			"bufferView": 3,
			"byteOffset": 21856,
			"componentType": 5126,
			"count": 48,
			"max": [ 1, 0, 1, 1 ],
			"min": [ -1, 0, -1, 1 ],
			"type": "VEC4"
		},
		{
			"bufferView": 0,
			"byteOffset": 4776,
			"componentType": 5123,
			"count": 84,
			"max": [ 47 ],
			"min": [ 0 ],
			"type": "SCALAR"
		}
	],
	"buffers": [
		{
			"byteLength": 72816,
			"uri": "entity1536n.bin"
		}
	],
	"bufferViews": [
		{
			"buffer": 0,
			"byteLength": 4944,
			"target": 34963,
			"byteOffset": 67872
		},
		{
			"buffer": 0,
			"byteLength": 11312,
			"target": 34962,
			"byteStride": 8,
			"byteOffset": 0
		},
		{
			"buffer": 0,
			"byteLength": 33936,
			"target": 34962,
			"byteStride": 12,
			"byteOffset": 11312
		},
		{
			"buffer": 0,
			"byteLength": 22624,
			"target": 34962,
			"byteStride": 16,
			"byteOffset": 45248
		}
	],
	"images": [
		{
			"uri": "Assets/Visuals/Materials/Textures/Tileset_Metal_03_Albedo.jpg"
		},
		{
			"uri": "Assets/Visuals/Materials/Textures/Tileset_Metal_03_Metallic_converted_metalRoughness.jpg"
		},
		{
			"uri": "Assets/Visuals/Materials/Textures/Tileset_Metal_03_Normal.jpg"
		},
		{
			"uri": "Assets/Visuals/Materials/Textures/Tileset_Metal_02_Albedo.jpg"
		},
		{
			"uri": "Assets/Visuals/Materials/Textures/Tileset_Metal_02_Metallic_converted_metalRoughness.jpg"
		},
		{
			"uri": "Assets/Visuals/Materials/Textures/Tileset_Metal_02_Normal.jpg"
		},
		{
			"uri": "Assets/Visuals/Materials/Textures/Tileset_Metal_02_Emissive.jpg"
		},
		{
			"uri": "Assets/Visuals/Materials/Textures/Tileset_Metal_02_Metallic.jpg"
		},
		{
			"uri": "Assets/Visuals/Materials/Textures/Tileset_Transparencies_01_Albedo.png"
		}
	],
	"materials": [
		{
			"pbrMetallicRoughness": {
				"baseColorTexture" : {
					"index" : 0,
					"texCoord" : 0
				},
				"baseColorFactor": [1, 1, 1, 1],
				"metallicRoughnessTexture" : {
					"index" : 1,
					"texCoord" : 0
				},
				"metallicFactor": 1,
				"roughnessFactor": 1
			},
			"normalTexture" : {
				"index" : 2,
				"texCoord" : 0,
				"scale" : 1
			},
			"emissiveFactor": [0, 0, 0],
			"doubleSided": false,
			"name": "Tileset_Metal_03_Mat"
		},
		{
			"pbrMetallicRoughness": {
				"baseColorFactor": [1, 1, 1, 1],
				"metallicFactor": 0,
				"roughnessFactor": 0.5
			},
			"emissiveFactor": [0.7098798, 0.2883886, 0.3493939],
			"doubleSided": false,
			"name": "Tileset_Emissive_01_Mat"
		},
		{
			"pbrMetallicRoughness": {
				"baseColorTexture" : {
					"index" : 3,
					"texCoord" : 0
				},
				"baseColorFactor": [1, 1, 1, 1],
				"metallicRoughnessTexture" : {
					"index" : 4,
					"texCoord" : 0
				},
				"metallicFactor": 1,
				"roughnessFactor": 1
			},
			"normalTexture" : {
				"index" : 5,
				"texCoord" : 0,
				"scale" : 1
			},
			"emissiveTexture" : {
				"index" : 6,
				"texCoord" : 0
			},
			"emissiveFactor": [0.5, 0.5, 0.5],
			"occlusionTexture" : {
				"index" : 7,
				"texCoord" : 0,
				"strength" : 1
			},
			"doubleSided": false,
			"name": "Tileset_Metal_02_Mat"
		},
		{
			"pbrMetallicRoughness": {
				"baseColorTexture" : {
					"index" : 8,
					"texCoord" : 0
				},
				"baseColorFactor": [1, 1, 1, 1],
				"metallicFactor": 0,
				"roughnessFactor": 0.5
			},
			"alphaMode": "BLEND",
			"alphaCutoff": 0.5,
			"emissiveTexture" : {
				"index" : 8,
				"texCoord" : 0
			},
			"emissiveFactor": [0.3867925, 0.3867925, 0.3867925],
			"doubleSided": false,
			"name": "Tileset_Transparencies_01_Mat"
		},
		{
			"pbrMetallicRoughness": {
				"baseColorFactor": [0.2036906, 1, 0, 1],
				"metallicFactor": 0,
				"roughnessFactor": 0.5
			},
			"emissiveFactor": [0, 0, 0],
			"doubleSided": false,
			"name": "Collider_Mat"
		}
	],
	"meshes": [
		{
			"name": "mesh_Museum_Tree_02_a_3292Museum_Tree_02_a (6)",
			"primitives": [
				{
					"attributes": {
						"POSITION": 0,
						"NORMAL": 1,
						"TEXCOORD_0": 2,
						"TANGENT": 3
					},
					"indices": 4,
					"material": 0,
					"mode": 4
				},
				{
					"attributes": {
						"POSITION": 0,
						"NORMAL": 1,
						"TEXCOORD_0": 2,
						"TANGENT": 3
					},
					"indices": 5,
					"material": 1,
					"mode": 4
				},
				{
					"attributes": {
						"POSITION": 0,
						"NORMAL": 1,
						"TEXCOORD_0": 2,
						"TANGENT": 3
					},
					"indices": 6,
					"material": 2,
					"mode": 4
				},
				{
					"attributes": {
						"POSITION": 0,
						"NORMAL": 1,
						"TEXCOORD_0": 2,
						"TANGENT": 3
					},
					"indices": 7,
					"material": 3,
					"mode": 4
				}
			]
		},
		{
			"name": "mesh_Museum_Tree_02_Collider_3294Museum_Tree_02_Collider",
			"primitives": [
				{
					"attributes": {
						"POSITION": 8,
						"NORMAL": 9,
						"TEXCOORD_0": 10,
						"TANGENT": 11
					},
					"indices": 12,
					"material": 4,
					"mode": 4
				}
			]
		}
	],
	"nodes": [
		{
			"name": "UnityGlTF_root",
			"children": [
				1
			]
		},
		{
			"name": "node_Museum_Tree_02_a (6)",
			"mesh": 0,
			"children": [
				2
			],
			"matrix": [1, 0, 0, 0, 0, 1, 0, 0, 0, 0, 1, 0, 0, 0, 0, 1]
		},
		{
			"name": "node_Museum_Tree_02_Collider",
			"mesh": 1
		}
	],
	"samplers": [
		{
			"magFilter": 9729,
			"minFilter": 9985,
			"wrapS": 10497,
			"wrapT": 10497
		}
	],
	"scenes": [
		{
			"name":"defaultScene",
			"nodes": [
				0
			]
		}
	],
	"scene": 0,
	"textures": [
		{
			"sampler": 0,
			"source": 0
		},
		{
			"sampler": 0,
			"source": 1
		},
		{
			"sampler": 0,
			"source": 2
		},
		{
			"sampler": 0,
			"source": 3
		},
		{
			"sampler": 0,
			"source": 4
		},
		{
			"sampler": 0,
			"source": 5
		},
		{
			"sampler": 0,
			"source": 6
		},
		{
			"sampler": 0,
			"source": 7
		},
		{
			"sampler": 0,
			"source": 8
		}
	]
}