{
	"asset": {
		"generator": "Unity 2018.3.6f1",
		"extras": {
			"exporterVersion" : "2.2.1"
		},
		"version": "2.0"
	},
	"accessors": [
		{
			"bufferView": 2,
			"byteOffset": 0,
			"componentType": 5126,
			"count": 96,
			"max": [ 12.97707, 16.6184, 25.95414 ],
			"min": [ 2.746582E-06, 15.45864, 16.01091 ],
			"type": "VEC3"
		},
		{
			"bufferView": 2,
			"byteOffset": 1152,
			"componentType": 5126,
			"count": 96,
			"max": [ 0.258823, 1, 0.9659263 ],
			"min": [ -0.258821, -1, -0.9659258 ],
			"type": "VEC3"
		},
		{
			"bufferView": 1,
			"byteOffset": 0,
			"componentType": 5126,
			"count": 96,
			"max": [ 1.844881, 0.9998995 ],
			"min": [ 1.844881, 0.401612 ],
			"type": "VEC2"
		},
		{
			"bufferView": 3,
			"byteOffset": 0,
			"componentType": 5126,
			"count": 96,
			"max": [ 1, 0, 0, 1 ],
			"min": [ 1, 0, 0, 1 ],
			"type": "VEC4"
		},
		{
			"bufferView": 0,
			"byteOffset": 0,
			"componentType": 5123,
			"count": 144,
			"max": [ 95 ],
			"min": [ 0 ],
			"type": "SCALAR"
		}
	],
	"buffers": [
		{
			"byteLength": 4896,
			"uri": "entity5886n.bin"
		}
	],
	"bufferViews": [
		{
			"buffer": 0,
			"byteLength": 288,
			"target": 34963,
			"byteOffset": 4608
		},
		{
			"buffer": 0,
			"byteLength": 768,
			"target": 34962,
			"byteStride": 8,
			"byteOffset": 0
		},
		{
			"buffer": 0,
			"byteLength": 2304,
			"target": 34962,
			"byteStride": 12,
			"byteOffset": 768
		},
		{
			"buffer": 0,
			"byteLength": 1536,
			"target": 34962,
			"byteStride": 16,
			"byteOffset": 3072
		}
	],
	"images": [
		{
			"uri": "Assets/Visuals/Materials/Textures/Tileset_Metal_02_Albedo.jpg"
		},
		{
			"uri": "Assets/Visuals/Materials/Textures/Tileset_Metal_02_Normal.jpg"
		}
	],
	"materials": [
		{
			"extensions": {
				"KHR_materials_pbrSpecularGlossiness": {
					"baseColorTexture" : {
						"index" : 0,
						"texCoord" : 0
					},
					"baseColorFactor": [1, 1, 1, 1]				}

			},
			"normalTexture" : {
				"index" : 1,
				"texCoord" : 0,
				"scale" : 1
			},
			"emissiveFactor": [0, 0, 0],
			"doubleSided": false,
			"name": "Walled"
		}
	],
	"meshes": [
		{
			"name": "mesh_Museum_Hex_Base15_12562Museum_Hex_Base15",
			"primitives": [
				{
					"attributes": {
						"POSITION": 0,
						"NORMAL": 1,
						"TEXCOORD_0": 2,
						"TANGENT": 3
					},
					"indices": 4,
					"material": 0,
					"mode": 4
				}
			]
		}
	],
	"nodes": [
		{
			"name": "UnityGlTF_root",
			"children": [
				1
			]
		},
		{
			"name": "node_Museum_Hex_Base15",
			"mesh": 0,
			"matrix": [1, 0, 0, 0, 0, 1, 0, 0, 0, 0, 1, 0, 0, 0, 0, 1]
		}
	],
	"samplers": [
		{
			"magFilter": 9729,
			"minFilter": 9985,
			"wrapS": 10497,
			"wrapT": 10497
		}
	],
	"scenes": [
		{
			"name":"defaultScene",
			"nodes": [
				0
			]
		}
	],
	"scene": 0,
	"textures": [
		{
			"sampler": 0,
			"source": 0
		},
		{
			"sampler": 0,
			"source": 1
		}
	]
}