{
	"asset": {
		"generator": "Unity 2018.3.6f1",
		"extras": {
			"exporterVersion" : "2.2.1"
		},
		"version": "2.0"
	},
	"accessors": [
		{
			"bufferView": 2,
			"byteOffset": 0,
			"componentType": 5126,
			"count": 377,
			"max": [ 25.80295, 16.6184, 25.95414 ],
			"min": [ -1.367117, 0.4586436, -12.96789 ],
			"type": "VEC3"
		},
		{
			"bufferView": 2,
			"byteOffset": 4524,
			"componentType": 5126,
			"count": 377,
			"max": [ 1, 1, 1 ],
			"min": [ -1, -1, -1 ],
			"type": "VEC3"
		},
		{
			"bufferView": 1,
			"byteOffset": 0,
			"componentType": 5126,
			"count": 377,
			"max": [ 2.931266, 0.9998996 ],
			"min": [ 1.844881, 0.401612 ],
			"type": "VEC2"
		},
		{
			"bufferView": 3,
			"byteOffset": 0,
			"componentType": 5126,
			"count": 377,
			"max": [ 1, 0.6483036, 0.004640184, 1 ],
			"min": [ -1, -0.9967117, -0.004626963, -1 ],
			"type": "VEC4"
		},
		{
			"bufferView": 0,
			"byteOffset": 0,
			"componentType": 5123,
			"count": 792,
			"max": [ 376 ],
			"min": [ 0 ],
			"type": "SCALAR"
		}
	],
	"buffers": [
		{
			"byteLength": 19680,
			"uri": "entity5878n.bin"
		}
	],
	"bufferViews": [
		{
			"buffer": 0,
			"byteLength": 1584,
			"target": 34963,
			"byteOffset": 18096
		},
		{
			"buffer": 0,
			"byteLength": 3016,
			"target": 34962,
			"byteStride": 8,
			"byteOffset": 0
		},
		{
			"buffer": 0,
			"byteLength": 9048,
			"target": 34962,
			"byteStride": 12,
			"byteOffset": 3016
		},
		{
			"buffer": 0,
			"byteLength": 6032,
			"target": 34962,
			"byteStride": 16,
			"byteOffset": 12064
		}
	],
	"materials": [
		{
			"pbrMetallicRoughness": {
				"baseColorFactor": [1, 1, 1, 1],
				"metallicFactor": 0,
				"roughnessFactor": 0.5
			},
			"emissiveFactor": [0, 0, 0],
			"doubleSided": false,
			"name": "Default-Material"
		}
	],
	"meshes": [
		{
			"name": "mesh_Museum_Hex_Base10_12560Museum_Hex_Base10",
			"primitives": [
				{
					"attributes": {
						"POSITION": 0,
						"NORMAL": 1,
						"TEXCOORD_0": 2,
						"TANGENT": 3
					},
					"indices": 4,
					"material": 0,
					"mode": 4
				}
			]
		}
	],
	"nodes": [
		{
			"name": "UnityGlTF_root",
			"children": [
				1
			]
		},
		{
			"name": "node_Museum_Hex_Base10",
			"mesh": 0,
			"matrix": [1, 0, 0, 0, 0, 1, 0, 0, 0, 0, 1, 0, 0, 0, 0, 1]
		}
	],
	"scenes": [
		{
			"name":"defaultScene",
			"nodes": [
				0
			]
		}
	],
	"scene": 0
}