{
	"asset": {
		"generator": "Unity 2018.3.6f1",
		"extras": {
			"exporterVersion" : "2.2.1"
		},
		"version": "2.0"
	},
	"accessors": [
		{
			"bufferView": 3,
			"byteOffset": 0,
			"componentType": 5126,
			"count": 31,
			"max": [ 2.418938, 0.2309452, 2.094862 ],
			"min": [ -2.418938, -0.6453201, -2.094862 ],
			"type": "VEC3"
		},
		{
			"bufferView": 3,
			"byteOffset": 372,
			"componentType": 5126,
			"count": 31,
			"max": [ 0.5748222, -0.818278, 0.4978108 ],
			"min": [ -0.5748219, -1, -0.4978115 ],
			"type": "VEC3"
		},
		{
			"bufferView": 2,
			"byteOffset": 0,
			"componentType": 5126,
			"count": 31,
			"max": [ 1.734874, 0.9740162 ],
			"min": [ 0.349324, 0.4513912 ],
			"type": "VEC2"
		},
		{
			"bufferView": 4,
			"byteOffset": 0,
			"componentType": 5126,
			"count": 31,
			"max": [ 0.9738253, 0.4542381, 0.9042445, 1 ],
			"min": [ -1, -0.4542383, -0.9042442, 1 ],
			"type": "VEC4"
		},
		{
			"bufferView": 0,
			"byteOffset": 0,
			"componentType": 5123,
			"count": 18,
			"max": [ 6 ],
			"min": [ 0 ],
			"type": "SCALAR"
		},
		{
			"bufferView": 0,
			"byteOffset": 36,
			"componentType": 5123,
			"count": 36,
			"max": [ 30 ],
			"min": [ 7 ],
			"type": "SCALAR"
		},
		{
			"bufferView": 1,
			"byteOffset": 0,
			"componentType": 5126,
			"count": 750,
			"max": [ 24.96667 ],
			"min": [ 0 ],
			"type": "SCALAR"
		},
		{
			"bufferView": 5,
			"byteOffset": 0,
			"componentType": 5126,
			"count": 750,
			"max": [ 0, 2.45, 0 ],
			"min": [ 0, -0.9199804, 0 ],
			"type": "VEC3"
		},
		{
			"bufferView": 6,
			"byteOffset": 0,
			"componentType": 5126,
			"count": 750,
			"max": [ 0, 1, 0, 0.9999912 ],
			"min": [ 0, 0, 0, -1 ],
			"type": "VEC4"
		},
		{
			"bufferView": 5,
			"byteOffset": 9000,
			"componentType": 5126,
			"count": 750,
			"max": [ 1, 1, 1 ],
			"min": [ 1, 1, 1 ],
			"type": "VEC3"
		},
		{
			"bufferView": 1,
			"byteOffset": 3000,
			"componentType": 5126,
			"count": 750,
			"max": [ 24.96667 ],
			"min": [ 0 ],
			"type": "SCALAR"
		},
		{
			"bufferView": 5,
			"byteOffset": 18000,
			"componentType": 5126,
			"count": 750,
			"max": [ 0, 6.2, 0 ],
			"min": [ 0, 0, 0 ],
			"type": "VEC3"
		},
		{
			"bufferView": 6,
			"byteOffset": 12000,
			"componentType": 5126,
			"count": 750,
			"max": [ 0, 0.9999999, 0, 0.9999999 ],
			"min": [ 0, -0.2123481, 0, -0.976296 ],
			"type": "VEC4"
		},
		{
			"bufferView": 5,
			"byteOffset": 27000,
			"componentType": 5126,
			"count": 750,
			"max": [ 1, 1, 1 ],
			"min": [ 1, 1, 1 ],
			"type": "VEC3"
		},
		{
			"bufferView": 3,
			"byteOffset": 744,
			"componentType": 5126,
			"count": 192,
			"max": [ 7.033868, -3.580526, 6.091508 ],
			"min": [ -7.033868, -4.932536, -6.091508 ],
			"type": "VEC3"
		},
		{
			"bufferView": 3,
			"byteOffset": 3048,
			"componentType": 5126,
			"count": 192,
			"max": [ 0.8660257, 0.989198, 1 ],
			"min": [ -0.8660255, -1, -1 ],
			"type": "VEC3"
		},
		{
			"bufferView": 2,
			"byteOffset": 248,
			"componentType": 5126,
			"count": 192,
			"max": [ 2.200088, 1.49664 ],
			"min": [ -1.680445, 0.001992032 ],
			"type": "VEC2"
		},
		{
			"bufferView": 4,
			"byteOffset": 496,
			"componentType": 5126,
			"count": 192,
			"max": [ 1, 1, 0.8660257, 1 ],
			"min": [ -1, -1, -0.8660256, -1 ],
			"type": "VEC4"
		},
		{
			"bufferView": 0,
			"byteOffset": 108,
			"componentType": 5123,
			"count": 252,
			"max": [ 167 ],
			"min": [ 0 ],
			"type": "SCALAR"
		},
		{
			"bufferView": 0,
			"byteOffset": 612,
			"componentType": 5123,
			"count": 36,
			"max": [ 191 ],
			"min": [ 168 ],
			"type": "SCALAR"
		},
		{
			"bufferView": 3,
			"byteOffset": 5352,
			"componentType": 5126,
			"count": 48,
			"max": [ 6.714491, -1.317889, 5.81492 ],
			"min": [ -6.714491, -6.932871, -5.81492 ],
			"type": "VEC3"
		},
		{
			"bufferView": 3,
			"byteOffset": 5928,
			"componentType": 5126,
			"count": 48,
			"max": [ 1, 0, 0.8660254 ],
			"min": [ -1, 0, -0.8660255 ],
			"type": "VEC3"
		},
		{
			"bufferView": 2,
			"byteOffset": 1784,
			"componentType": 5126,
			"count": 48,
			"max": [ 1, 0.6671566 ],
			"min": [ 0, 0.3265396 ],
			"type": "VEC2"
		},
		{
			"bufferView": 4,
			"byteOffset": 3568,
			"componentType": 5126,
			"count": 48,
			"max": [ 0.8660255, 0, 1, 1 ],
			"min": [ -0.8660256, 0, -1, -1 ],
			"type": "VEC4"
		},
		{
			"bufferView": 0,
			"byteOffset": 684,
			"componentType": 5123,
			"count": 72,
			"max": [ 47 ],
			"min": [ 0 ],
			"type": "SCALAR"
		},
		{
			"bufferView": 3,
			"byteOffset": 6504,
			"componentType": 5126,
			"count": 110,
			"max": [ 7.033868, -11.17511, 6.091508 ],
			"min": [ -7.033868, -12.11648, 0 ],
			"type": "VEC3"
		},
		{
			"bufferView": 3,
			"byteOffset": 7824,
			"componentType": 5126,
			"count": 110,
			"max": [ 0.8660254, 0.9947194, 1 ],
			"min": [ -0.8660254, -0.9947195, -1 ],
			"type": "VEC3"
		},
		{
			"bufferView": 2,
			"byteOffset": 2168,
			"componentType": 5126,
			"count": 110,
			"max": [ 1.946282, 1.490291 ],
			"min": [ -0.8337386, 0.001992032 ],
			"type": "VEC2"
		},
		{
			"bufferView": 4,
			"byteOffset": 4336,
			"componentType": 5126,
			"count": 110,
			"max": [ 1, 1, 0.866026, 1 ],
			"min": [ -0.9988949, -0.1985792, -0.8660258, 1 ],
			"type": "VEC4"
		},
		{
			"bufferView": 0,
			"byteOffset": 828,
			"componentType": 5123,
			"count": 162,
			"max": [ 97 ],
			"min": [ 0 ],
			"type": "SCALAR"
		},
		{
			"bufferView": 0,
			"byteOffset": 1152,
			"componentType": 5123,
			"count": 18,
			"max": [ 109 ],
			"min": [ 98 ],
			"type": "SCALAR"
		}
	],
	"animations": [
		{
			"name": "Museum_Hex_Propeler_01_b (3)",
			"channels": [
				{
					"sampler": 0,
					"target": {
						"node": 2,
						"path": "translation"
					}
				},
				{
					"sampler": 1,
					"target": {
						"node": 2,
						"path": "rotation"
					}
				},
				{
					"sampler": 2,
					"target": {
						"node": 2,
						"path": "scale"
					}
				},
				{
					"sampler": 3,
					"target": {
						"node": 4,
						"path": "translation"
					}
				},
				{
					"sampler": 4,
					"target": {
						"node": 4,
						"path": "rotation"
					}
				},
				{
					"sampler": 5,
					"target": {
						"node": 4,
						"path": "scale"
					}
				}
			],
			"samplers": [
				{
					"input": 6,
					"interpolation": "LINEAR",
					"output": 7
				},
				{
					"input": 6,
					"interpolation": "LINEAR",
					"output": 8
				},
				{
					"input": 6,
					"interpolation": "LINEAR",
					"output": 9
				},
				{
					"input": 10,
					"interpolation": "LINEAR",
					"output": 11
				},
				{
					"input": 10,
					"interpolation": "LINEAR",
					"output": 12
				},
				{
					"input": 10,
					"interpolation": "LINEAR",
					"output": 13
				}
			]
		}
	],
	"buffers": [
		{
			"byteLength": 85476,
			"uri": "entity18698.bin"
		}
	],
	"bufferViews": [
		{
			"buffer": 0,
			"byteLength": 1188,
			"target": 34963,
			"byteOffset": 24288
		},
		{
			"buffer": 0,
			"byteLength": 6000,
			"byteOffset": 0
		},
		{
			"buffer": 0,
			"byteLength": 3048,
			"target": 34962,
			"byteStride": 8,
			"byteOffset": 6000
		},
		{
			"buffer": 0,
			"byteLength": 9144,
			"target": 34962,
			"byteStride": 12,
			"byteOffset": 9048
		},
		{
			"buffer": 0,
			"byteLength": 6096,
			"target": 34962,
			"byteStride": 16,
			"byteOffset": 18192
		},
		{
			"buffer": 0,
			"byteLength": 36000,
			"byteStride": 12,
			"byteOffset": 25476
		},
		{
			"buffer": 0,
			"byteLength": 24000,
			"byteStride": 16,
			"byteOffset": 61476
		}
	],
	"images": [
		{
			"uri": "Assets/Visuals/Materials/Textures/Tileset_Metal_03_Albedo.jpg"
		},
		{
			"uri": "Assets/Visuals/Materials/Textures/Tileset_Metal_03_Metallic_converted_metalRoughness.jpg"
		},
		{
			"uri": "Assets/Visuals/Materials/Textures/Tileset_Metal_03_Normal.jpg"
		},
		{
			"uri": "Assets/Visuals/Materials/Textures/Tileset_Metal_02_Albedo.jpg"
		},
		{
			"uri": "Assets/Visuals/Materials/Textures/Tileset_Metal_02_Metallic_converted_metalRoughness.jpg"
		},
		{
			"uri": "Assets/Visuals/Materials/Textures/Tileset_Metal_02_Normal.jpg"
		},
		{
			"uri": "Assets/Visuals/Materials/Textures/Tileset_Metal_02_Emissive.jpg"
		},
		{
			"uri": "Assets/Visuals/Materials/Textures/Tileset_Metal_02_Metallic.jpg"
		},
		{
			"uri": "Assets/Visuals/Materials/Textures/Tileset_Transparencies_01_Albedo.png"
		}
	],
	"materials": [
		{
			"pbrMetallicRoughness": {
				"baseColorFactor": [1, 1, 1, 1],
				"metallicFactor": 0,
				"roughnessFactor": 0.5
			},
			"emissiveFactor": [0.7098798, 0.2883886, 0.3493939],
			"doubleSided": false,
			"name": "Tileset_Emissive_01_Mat"
		},
		{
			"pbrMetallicRoughness": {
				"baseColorTexture" : {
					"index" : 0,
					"texCoord" : 0
				},
				"baseColorFactor": [1, 1, 1, 1],
				"metallicRoughnessTexture" : {
					"index" : 1,
					"texCoord" : 0
				},
				"metallicFactor": 1,
				"roughnessFactor": 1
			},
			"normalTexture" : {
				"index" : 2,
				"texCoord" : 0,
				"scale" : 1
			},
			"emissiveFactor": [0, 0, 0],
			"doubleSided": false,
			"name": "Tileset_Metal_03_Mat"
		},
		{
			"pbrMetallicRoughness": {
				"baseColorTexture" : {
					"index" : 3,
					"texCoord" : 0
				},
				"baseColorFactor": [1, 1, 1, 1],
				"metallicRoughnessTexture" : {
					"index" : 4,
					"texCoord" : 0
				},
				"metallicFactor": 1,
				"roughnessFactor": 1
			},
			"normalTexture" : {
				"index" : 5,
				"texCoord" : 0,
				"scale" : 1
			},
			"emissiveTexture" : {
				"index" : 6,
				"texCoord" : 0
			},
			"emissiveFactor": [0.5, 0.5, 0.5],
			"occlusionTexture" : {
				"index" : 7,
				"texCoord" : 0,
				"strength" : 1
			},
			"doubleSided": false,
			"name": "Tileset_Metal_02_Mat"
		},
		{
			"pbrMetallicRoughness": {
				"baseColorTexture" : {
					"index" : 8,
					"texCoord" : 0
				},
				"baseColorFactor": [1, 1, 1, 1],
				"metallicFactor": 0,
				"roughnessFactor": 0.5
			},
			"alphaMode": "BLEND",
			"alphaCutoff": 0.5,
			"emissiveTexture" : {
				"index" : 8,
				"texCoord" : 0
			},
			"emissiveFactor": [0.3867925, 0.3867925, 0.3867925],
			"doubleSided": false,
			"name": "Tileset_Transparencies_01_Mat"
		}
	],
	"meshes": [
		{
			"name": "mesh_Museum_Hex_Propeler_01_10132Museum_Hex_Propeler_01_b (3)",
			"primitives": [
				{
					"attributes": {
						"POSITION": 0,
						"NORMAL": 1,
						"TEXCOORD_0": 2,
						"TANGENT": 3
					},
					"indices": 4,
					"material": 0,
					"mode": 4
				},
				{
					"attributes": {
						"POSITION": 0,
						"NORMAL": 1,
						"TEXCOORD_0": 2,
						"TANGENT": 3
					},
					"indices": 5,
					"material": 1,
					"mode": 4
				}
			]
		},
		{
			"name": "mesh_Museum_Hex_Propeler_01_Gear_0_10134Museum_Hex_Propeler_01_Gear_0",
			"primitives": [
				{
					"attributes": {
						"POSITION": 14,
						"NORMAL": 15,
						"TEXCOORD_0": 16,
						"TANGENT": 17
					},
					"indices": 18,
					"material": 2,
					"mode": 4
				},
				{
					"attributes": {
						"POSITION": 14,
						"NORMAL": 15,
						"TEXCOORD_0": 16,
						"TANGENT": 17
					},
					"indices": 19,
					"material": 0,
					"mode": 4
				}
			]
		},
		{
			"name": "mesh_Museum_Hex_Propeler_Fade_10142Museum_Hex_Propeler_Fade",
			"primitives": [
				{
					"attributes": {
						"POSITION": 20,
						"NORMAL": 21,
						"TEXCOORD_0": 22,
						"TANGENT": 23
					},
					"indices": 24,
					"material": 3,
					"mode": 4
				}
			]
		},
		{
			"name": "mesh_Museum_Hex_Propeler_01_Gear_2_10138Museum_Hex_Propeler_01_Gear_2",
			"primitives": [
				{
					"attributes": {
						"POSITION": 25,
						"NORMAL": 26,
						"TEXCOORD_0": 27,
						"TANGENT": 28
					},
					"indices": 29,
					"material": 2,
					"mode": 4
				},
				{
					"attributes": {
						"POSITION": 25,
						"NORMAL": 26,
						"TEXCOORD_0": 27,
						"TANGENT": 28
					},
					"indices": 30,
					"material": 0,
					"mode": 4
				}
			]
		}
	],
	"nodes": [
		{
			"name": "UnityGlTF_root",
			"children": [
				1
			]
		},
		{
			"name": "node_Museum_Hex_Propeler_01_b (3)",
			"mesh": 0,
			"children": [
				2,
				4
			],
			"matrix": [1, 0, 0, 0, 0, 1, 0, 0, 0, 0, 1, 0, 0, 0, 0, 1]
		},
		{
			"name": "node_Museum_Hex_Propeler_01_Gear_0",
			"mesh": 1,
			"children": [
				3
			]
		},
		{
			"name": "node_Museum_Hex_Propeler_Fade",
			"mesh": 2
		},
		{
			"name": "node_Museum_Hex_Propeler_01_Gear_2",
			"mesh": 3
		}
	],
	"samplers": [
		{
			"magFilter": 9729,
			"minFilter": 9985,
			"wrapS": 10497,
			"wrapT": 10497
		}
	],
	"scenes": [
		{
			"name":"defaultScene",
			"nodes": [
				0
			]
		}
	],
	"scene": 0,
	"textures": [
		{
			"sampler": 0,
			"source": 0
		},
		{
			"sampler": 0,
			"source": 1
		},
		{
			"sampler": 0,
			"source": 2
		},
		{
			"sampler": 0,
			"source": 3
		},
		{
			"sampler": 0,
			"source": 4
		},
		{
			"sampler": 0,
			"source": 5
		},
		{
			"sampler": 0,
			"source": 6
		},
		{
			"sampler": 0,
			"source": 7
		},
		{
			"sampler": 0,
			"source": 8
		}
	]
}