{
	"asset": {
		"generator": "Unity 2018.3.6f1",
		"extras": {
			"exporterVersion" : "2.2.1"
		},
		"version": "2.0"
	},
	"accessors": [
		{
			"bufferView": 2,
			"byteOffset": 0,
			"componentType": 5126,
			"count": 1003,
			"max": [ 2.378237, 12.17362, 2.378237 ],
			"min": [ -2.378237, 0, -2.378237 ],
			"type": "VEC3"
		},
		{
			"bufferView": 2,
			"byteOffset": 12036,
			"componentType": 5126,
			"count": 1003,
			"max": [ 1, 1, 0.9999523 ],
			"min": [ -1, -0.9849799, -0.9999523 ],
			"type": "VEC3"
		},
		{
			"bufferView": 1,
			"byteOffset": 0,
			"componentType": 5126,
			"count": 1003,
			"max": [ 1, 1 ],
			"min": [ 0, 0 ],
			"type": "VEC2"
		},
		{
			"bufferView": 3,
			"byteOffset": 0,
			"componentType": 5126,
			"count": 1003,
			"max": [ 1, 0.4966924, 1, 1 ],
			"min": [ -1, -0.4967015, -1, -1 ],
			"type": "VEC4"
		},
		{
			"bufferView": 0,
			"byteOffset": 0,
			"componentType": 5123,
			"count": 576,
			"max": [ 335 ],
			"min": [ 0 ],
			"type": "SCALAR"
		},
		{
			"bufferView": 0,
			"byteOffset": 1152,
			"componentType": 5123,
			"count": 1236,
			"max": [ 1002 ],
			"min": [ 336 ],
			"type": "SCALAR"
		}
	],
	"buffers": [
		{
			"byteLength": 51768,
			"uri": "entity36796n.bin"
		}
	],
	"bufferViews": [
		{
			"buffer": 0,
			"byteLength": 3624,
			"target": 34963,
			"byteOffset": 48144
		},
		{
			"buffer": 0,
			"byteLength": 8024,
			"target": 34962,
			"byteStride": 8,
			"byteOffset": 0
		},
		{
			"buffer": 0,
			"byteLength": 24072,
			"target": 34962,
			"byteStride": 12,
			"byteOffset": 8024
		},
		{
			"buffer": 0,
			"byteLength": 16048,
			"target": 34962,
			"byteStride": 16,
			"byteOffset": 32096
		}
	],
	"materials": [
		{
			"pbrMetallicRoughness": {
				"baseColorFactor": [0.9724381, 0.2971698, 1, 0.4705882],
				"metallicFactor": 0,
				"roughnessFactor": 0
			},
			"alphaMode": "BLEND",
			"alphaCutoff": 0.5,
			"emissiveFactor": [0, 0, 0],
			"doubleSided": false,
			"name": "temp_pink"
		},
		{
			"pbrMetallicRoughness": {
				"baseColorFactor": [1, 1, 1, 1],
				"metallicFactor": 0,
				"roughnessFactor": 0.5
			},
			"emissiveFactor": [0, 0, 0],
			"doubleSided": false,
			"name": "Default-Material"
		}
	],
	"meshes": [
		{
			"name": "mesh_Museum_Tree_02_a_28500Museum_Tree_02_Art (1)",
			"primitives": [
				{
					"attributes": {
						"POSITION": 0,
						"NORMAL": 1,
						"TEXCOORD_0": 2,
						"TANGENT": 3
					},
					"indices": 4,
					"material": 0,
					"mode": 4
				},
				{
					"attributes": {
						"POSITION": 0,
						"NORMAL": 1,
						"TEXCOORD_0": 2,
						"TANGENT": 3
					},
					"indices": 5,
					"material": 1,
					"mode": 4
				}
			]
		}
	],
	"nodes": [
		{
			"name": "UnityGlTF_root",
			"children": [
				1
			]
		},
		{
			"name": "node_Museum_Tree_02_Art (1)",
			"mesh": 0,
			"matrix": [1, 0, 0, 0, 0, 1, 0, 0, 0, 0, 1, 0, 0, 0, 0, 1]
		}
	],
	"scenes": [
		{
			"name":"defaultScene",
			"nodes": [
				0
			]
		}
	],
	"scene": 0
}