{
	"asset": {
		"generator": "Unity 2018.3.6f1",
		"extras": {
			"exporterVersion" : "2.2.1"
		},
		"version": "2.0"
	},
	"accessors": [
		{
			"bufferView": 3,
			"byteOffset": 0,
			"componentType": 5126,
			"count": 54,
			"max": [ 3, 4.090991, 1.125 ],
			"min": [ -3, -0.9982684, -0.125 ],
			"type": "VEC3"
		},
		{
			"bufferView": 3,
			"byteOffset": 648,
			"componentType": 5126,
			"count": 54,
			"max": [ 1, 0.7071068, 1 ],
			"min": [ -1, -0.7124885, -1 ],
			"type": "VEC3"
		},
		{
			"bufferView": 2,
			"byteOffset": 0,
			"componentType": 5126,
			"count": 54,
			"max": [ 1, 1 ],
			"min": [ 0, 0 ],
			"type": "VEC2"
		},
		{
			"bufferView": 4,
			"byteOffset": 0,
			"componentType": 5126,
			"count": 54,
			"max": [ 1, 0, 0, 1 ],
			"min": [ 1, 0, 0, 1 ],
			"type": "VEC4"
		},
		{
			"bufferView": 0,
			"byteOffset": 0,
			"componentType": 5123,
			"count": 108,
			"max": [ 53 ],
			"min": [ 0 ],
			"type": "SCALAR"
		},
		{
			"bufferView": 1,
			"byteOffset": 0,
			"componentType": 5126,
			"count": 60,
			"max": [ 1.966667 ],
			"min": [ 0 ],
			"type": "SCALAR"
		},
		{
			"bufferView": 5,
			"byteOffset": 0,
			"componentType": 5126,
			"count": 60,
			"max": [ 34.69, 2.944, -0.8399999 ],
			"min": [ 34.69, 2.73, -0.8399999 ],
			"type": "VEC3"
		},
		{
			"bufferView": 6,
			"byteOffset": 0,
			"componentType": 5126,
			"count": 60,
			"max": [ 0, -0.9650247, 0, 0.2621593 ],
			"min": [ 0, -0.9650247, 0, 0.2621593 ],
			"type": "VEC4"
		},
		{
			"bufferView": 5,
			"byteOffset": 720,
			"componentType": 5126,
			"count": 60,
			"max": [ 0.364136, 0.3641356, 0.364136 ],
			"min": [ 0.364136, 0.3641356, 0.364136 ],
			"type": "VEC3"
		},
		{
			"bufferView": 3,
			"byteOffset": 1296,
			"componentType": 5126,
			"count": 18,
			"max": [ 3, 2, 1 ],
			"min": [ 1, 0, 0 ],
			"type": "VEC3"
		},
		{
			"bufferView": 3,
			"byteOffset": 1512,
			"componentType": 5126,
			"count": 18,
			"max": [ 1, 1, 1 ],
			"min": [ -0.7071068, -1, -1 ],
			"type": "VEC3"
		},
		{
			"bufferView": 2,
			"byteOffset": 432,
			"componentType": 5126,
			"count": 18,
			"max": [ 0.875, 1 ],
			"min": [ 0.125, 0 ],
			"type": "VEC2"
		},
		{
			"bufferView": 4,
			"byteOffset": 864,
			"componentType": 5126,
			"count": 18,
			"max": [ 0, 0, 1, 1 ],
			"min": [ -1, 0, -1, 1 ],
			"type": "VEC4"
		},
		{
			"bufferView": 0,
			"byteOffset": 216,
			"componentType": 5123,
			"count": 24,
			"max": [ 17 ],
			"min": [ 0 ],
			"type": "SCALAR"
		},
		{
			"bufferView": 3,
			"byteOffset": 1728,
			"componentType": 5126,
			"count": 18,
			"max": [ -1, 2, 1 ],
			"min": [ -3, 0, 0 ],
			"type": "VEC3"
		},
		{
			"bufferView": 3,
			"byteOffset": 1944,
			"componentType": 5126,
			"count": 18,
			"max": [ 0.7071068, 1, 1 ],
			"min": [ -1, -1, -1 ],
			"type": "VEC3"
		},
		{
			"bufferView": 2,
			"byteOffset": 576,
			"componentType": 5126,
			"count": 18,
			"max": [ 0.875, 1 ],
			"min": [ 0.375, 0 ],
			"type": "VEC2"
		},
		{
			"bufferView": 4,
			"byteOffset": 1152,
			"componentType": 5126,
			"count": 18,
			"max": [ 0.7071068, 0, 1, 1 ],
			"min": [ 0, -1, 0, 1 ],
			"type": "VEC4"
		},
		{
			"bufferView": 0,
			"byteOffset": 264,
			"componentType": 5123,
			"count": 24,
			"max": [ 17 ],
			"min": [ 0 ],
			"type": "SCALAR"
		},
		{
			"bufferView": 3,
			"byteOffset": 2160,
			"componentType": 5126,
			"count": 24,
			"max": [ 1.06066, 5.151651, 1 ],
			"min": [ -1.06066, 3.030331, 0 ],
			"type": "VEC3"
		},
		{
			"bufferView": 3,
			"byteOffset": 2448,
			"componentType": 5126,
			"count": 24,
			"max": [ 0.7071068, 0.7071068, 1 ],
			"min": [ -0.7071068, -0.7071068, -1 ],
			"type": "VEC3"
		},
		{
			"bufferView": 2,
			"byteOffset": 720,
			"componentType": 5126,
			"count": 24,
			"max": [ 0.875, 1 ],
			"min": [ 0.125, 0 ],
			"type": "VEC2"
		},
		{
			"bufferView": 4,
			"byteOffset": 1440,
			"componentType": 5126,
			"count": 24,
			"max": [ 0, 0, 1, 1 ],
			"min": [ -0.7071068, -0.7071068, -1, 1 ],
			"type": "VEC4"
		},
		{
			"bufferView": 0,
			"byteOffset": 312,
			"componentType": 5123,
			"count": 36,
			"max": [ 23 ],
			"min": [ 0 ],
			"type": "SCALAR"
		}
	],
	"animations": [
		{
			"name": "Logo_MOMUS_01_Art",
			"channels": [
				{
					"sampler": 0,
					"target": {
						"node": 1,
						"path": "translation"
					}
				},
				{
					"sampler": 1,
					"target": {
						"node": 1,
						"path": "rotation"
					}
				},
				{
					"sampler": 2,
					"target": {
						"node": 1,
						"path": "scale"
					}
				}
			],
			"samplers": [
				{
					"input": 5,
					"interpolation": "LINEAR",
					"output": 6
				},
				{
					"input": 5,
					"interpolation": "LINEAR",
					"output": 7
				},
				{
					"input": 5,
					"interpolation": "LINEAR",
					"output": 8
				}
			]
		}
	],
	"buffers": [
		{
			"byteLength": 8496,
			"uri": "entity20040.bin"
		}
	],
	"bufferViews": [
		{
			"buffer": 0,
			"byteLength": 384,
			"target": 34963,
			"byteOffset": 5712
		},
		{
			"buffer": 0,
			"byteLength": 240,
			"byteOffset": 0
		},
		{
			"buffer": 0,
			"byteLength": 912,
			"target": 34962,
			"byteStride": 8,
			"byteOffset": 240
		},
		{
			"buffer": 0,
			"byteLength": 2736,
			"target": 34962,
			"byteStride": 12,
			"byteOffset": 1152
		},
		{
			"buffer": 0,
			"byteLength": 1824,
			"target": 34962,
			"byteStride": 16,
			"byteOffset": 3888
		},
		{
			"buffer": 0,
			"byteLength": 1440,
			"byteStride": 12,
			"byteOffset": 6096
		},
		{
			"buffer": 0,
			"byteLength": 960,
			"byteStride": 16,
			"byteOffset": 7536
		}
	],
	"materials": [
		{
			"pbrMetallicRoughness": {
				"baseColorFactor": [0.2392157, 0.227451, 0.345098, 1],
				"metallicFactor": 0,
				"roughnessFactor": 1
			},
			"emissiveFactor": [0, 0, 0],
			"doubleSided": false,
			"name": "Logo_MOMUS_Mat_02"
		},
		{
			"pbrMetallicRoughness": {
				"baseColorFactor": [0.4470589, 0.4470589, 0.6470588, 1],
				"metallicFactor": 0,
				"roughnessFactor": 1
			},
			"emissiveFactor": [0, 0, 0],
			"doubleSided": false,
			"name": "Logo_MOMUS_Mat_01"
		}
	],
	"meshes": [
		{
			"name": "mesh_MOMUS_Logo_V_3246Logo_MOMUS_01_Art",
			"primitives": [
				{
					"attributes": {
						"POSITION": 0,
						"NORMAL": 1,
						"TEXCOORD_0": 2,
						"TANGENT": 3
					},
					"indices": 4,
					"material": 0,
					"mode": 4
				}
			]
		},
		{
			"name": "mesh_MOMUS_Logo_Corner_1_3240MOMUS_Logo_Corner_1",
			"primitives": [
				{
					"attributes": {
						"POSITION": 9,
						"NORMAL": 10,
						"TEXCOORD_0": 11,
						"TANGENT": 12
					},
					"indices": 13,
					"material": 1,
					"mode": 4
				}
			]
		},
		{
			"name": "mesh_MOMUS_Logo_Corner_2_3242MOMUS_Logo_Corner_2",
			"primitives": [
				{
					"attributes": {
						"POSITION": 14,
						"NORMAL": 15,
						"TEXCOORD_0": 16,
						"TANGENT": 17
					},
					"indices": 18,
					"material": 1,
					"mode": 4
				}
			]
		},
		{
			"name": "mesh_MOMUS_Logo_Top_3244MOMUS_Logo_Top",
			"primitives": [
				{
					"attributes": {
						"POSITION": 19,
						"NORMAL": 20,
						"TEXCOORD_0": 21,
						"TANGENT": 22
					},
					"indices": 23,
					"material": 1,
					"mode": 4
				}
			]
		}
	],
	"nodes": [
		{
			"name": "UnityGlTF_root",
			"children": [
				1
			]
		},
		{
			"name": "node_Logo_MOMUS_01_Art",
			"mesh": 0,
			"children": [
				2,
				3,
				4
			],
			"matrix": [1, 0, 0, 0, 0, 1, 0, 0, 0, 0, 1, 0, 0, 0, 0, 1]
		},
		{
			"name": "node_MOMUS_Logo_Corner_1",
			"mesh": 1
		},
		{
			"name": "node_MOMUS_Logo_Corner_2",
			"mesh": 2
		},
		{
			"name": "node_MOMUS_Logo_Top",
			"mesh": 3
		}
	],
	"scenes": [
		{
			"name":"defaultScene",
			"nodes": [
				0
			]
		}
	],
	"scene": 0
}