{
	"asset": {
		"generator": "Unity 2018.3.6f1",
		"extras": {
			"exporterVersion" : "2.2.1"
		},
		"version": "2.0"
	},
	"accessors": [
		{
			"bufferView": 3,
			"byteOffset": 0,
			"componentType": 5126,
			"count": 426,
			"max": [ 41.13621, 1.28076, 47.5 ],
			"min": [ -41.13621, -0.2753789, -47.5 ],
			"type": "VEC3"
		},
		{
			"bufferView": 3,
			"byteOffset": 5112,
			"componentType": 5126,
			"count": 426,
			"max": [ 1, 1, 0.8660255 ],
			"min": [ -1, 0, -0.8660255 ],
			"type": "VEC3"
		},
		{
			"bufferView": 2,
			"byteOffset": 0,
			"componentType": 5126,
			"count": 426,
			"max": [ 5.461804, 2.094947 ],
			"min": [ 0, -3.097415E-07 ],
			"type": "VEC2"
		},
		{
			"bufferView": 4,
			"byteOffset": 0,
			"componentType": 5126,
			"count": 426,
			"max": [ 0.8660259, 0, 1, 1 ],
			"min": [ -0.8660256, 0, -1, -1 ],
			"type": "VEC4"
		},
		{
			"bufferView": 0,
			"byteOffset": 0,
			"componentType": 5123,
			"count": 252,
			"max": [ 131 ],
			"min": [ 0 ],
			"type": "SCALAR"
		},
		{
			"bufferView": 0,
			"byteOffset": 504,
			"componentType": 5123,
			"count": 558,
			"max": [ 425 ],
			"min": [ 132 ],
			"type": "SCALAR"
		},
		{
			"bufferView": 3,
			"byteOffset": 10224,
			"componentType": 5126,
			"count": 38,
			"max": [ 41.20319, 0.4757735, 47.57735 ],
			"min": [ -41.20319, -0.4757735, -47.57735 ],
			"type": "VEC3"
		},
		{
			"bufferView": 3,
			"byteOffset": 10680,
			"componentType": 5126,
			"count": 38,
			"max": [ 1, 1, 0.8660255 ],
			"min": [ -1, -1, -0.8660254 ],
			"type": "VEC3"
		},
		{
			"bufferView": 2,
			"byteOffset": 3408,
			"componentType": 5126,
			"count": 38,
			"max": [ 0.65625, 0.9790665 ],
			"min": [ 0.34375, 0.02093351 ],
			"type": "VEC2"
		},
		{
			"bufferView": 4,
			"byteOffset": 6816,
			"componentType": 5126,
			"count": 38,
			"max": [ 0.8660255, 0, 1, 1 ],
			"min": [ -0.8853274, 0, -1, 1 ],
			"type": "VEC4"
		},
		{
			"bufferView": 0,
			"byteOffset": 1620,
			"componentType": 5123,
			"count": 72,
			"max": [ 37 ],
			"min": [ 0 ],
			"type": "SCALAR"
		},
		{
			"bufferView": 3,
			"byteOffset": 11136,
			"componentType": 5126,
			"count": 0,
			"max": [ 0, 0, 0 ],
			"min": [ 0, 0, 0 ],
			"type": "VEC3"
		},
		{
			"bufferView": 0,
			"byteOffset": 1764,
			"componentType": 5123,
			"count": 0,
			"max": [ 0 ],
			"min": [ 0 ],
			"type": "SCALAR"
		},
		{
			"bufferView": 1,
			"byteOffset": 0,
			"componentType": 5126,
			"count": 300,
			"max": [ 9.966667 ],
			"min": [ 0 ],
			"type": "SCALAR"
		},
		{
			"bufferView": 5,
			"byteOffset": 0,
			"componentType": 5126,
			"count": 300,
			"max": [ 0, 0, 0 ],
			"min": [ 0, 0, 0 ],
			"type": "VEC3"
		},
		{
			"bufferView": 6,
			"byteOffset": 0,
			"componentType": 5126,
			"count": 300,
			"max": [ 0, 1, 0, 0.9999452 ],
			"min": [ 0, 0, 0, -1 ],
			"type": "VEC4"
		},
		{
			"bufferView": 5,
			"byteOffset": 3600,
			"componentType": 5126,
			"count": 300,
			"max": [ 1, 1, 1 ],
			"min": [ 1, 1, 1 ],
			"type": "VEC3"
		},
		{
			"bufferView": 3,
			"byteOffset": 11136,
			"componentType": 5126,
			"count": 366,
			"max": [ 2.110422, 2.146763, 3.941446 ],
			"min": [ -0.06085234, 0, -3.941446 ],
			"type": "VEC3"
		},
		{
			"bufferView": 3,
			"byteOffset": 15528,
			"componentType": 5126,
			"count": 366,
			"max": [ 1, 1, 0.721815 ],
			"min": [ -1, -1, -0.7218142 ],
			"type": "VEC3"
		},
		{
			"bufferView": 2,
			"byteOffset": 3712,
			"componentType": 5126,
			"count": 366,
			"max": [ 4.282976, 1.430914 ],
			"min": [ -1.18413, 0.07596186 ],
			"type": "VEC2"
		},
		{
			"bufferView": 4,
			"byteOffset": 7424,
			"componentType": 5126,
			"count": 366,
			"max": [ 1, 1, 1, 1 ],
			"min": [ -0.7218124, -1, -1, -1 ],
			"type": "VEC4"
		},
		{
			"bufferView": 0,
			"byteOffset": 1764,
			"componentType": 5123,
			"count": 660,
			"max": [ 327 ],
			"min": [ 0 ],
			"type": "SCALAR"
		},
		{
			"bufferView": 0,
			"byteOffset": 3084,
			"componentType": 5123,
			"count": 96,
			"max": [ 365 ],
			"min": [ 328 ],
			"type": "SCALAR"
		},
		{
			"bufferView": 3,
			"byteOffset": 19920,
			"componentType": 5126,
			"count": 366,
			"max": [ 2.110422, 2.146763, 3.941446 ],
			"min": [ -0.06085234, 0, -3.941446 ],
			"type": "VEC3"
		},
		{
			"bufferView": 3,
			"byteOffset": 24312,
			"componentType": 5126,
			"count": 366,
			"max": [ 1, 1, 0.721815 ],
			"min": [ -1, -1, -0.7218142 ],
			"type": "VEC3"
		},
		{
			"bufferView": 2,
			"byteOffset": 6640,
			"componentType": 5126,
			"count": 366,
			"max": [ 4.282976, 1.430914 ],
			"min": [ -1.18413, 0.07596186 ],
			"type": "VEC2"
		},
		{
			"bufferView": 4,
			"byteOffset": 13280,
			"componentType": 5126,
			"count": 366,
			"max": [ 1, 1, 1, 1 ],
			"min": [ -0.7218124, -1, -1, -1 ],
			"type": "VEC4"
		},
		{
			"bufferView": 0,
			"byteOffset": 3276,
			"componentType": 5123,
			"count": 660,
			"max": [ 327 ],
			"min": [ 0 ],
			"type": "SCALAR"
		},
		{
			"bufferView": 0,
			"byteOffset": 4596,
			"componentType": 5123,
			"count": 96,
			"max": [ 365 ],
			"min": [ 328 ],
			"type": "SCALAR"
		},
		{
			"bufferView": 3,
			"byteOffset": 28704,
			"componentType": 5126,
			"count": 366,
			"max": [ 2.110422, 2.146763, 3.941446 ],
			"min": [ -0.06085234, 0, -3.941446 ],
			"type": "VEC3"
		},
		{
			"bufferView": 3,
			"byteOffset": 33096,
			"componentType": 5126,
			"count": 366,
			"max": [ 1, 1, 0.721815 ],
			"min": [ -1, -1, -0.7218142 ],
			"type": "VEC3"
		},
		{
			"bufferView": 2,
			"byteOffset": 9568,
			"componentType": 5126,
			"count": 366,
			"max": [ 4.282976, 1.430914 ],
			"min": [ -1.18413, 0.07596186 ],
			"type": "VEC2"
		},
		{
			"bufferView": 4,
			"byteOffset": 19136,
			"componentType": 5126,
			"count": 366,
			"max": [ 1, 1, 1, 1 ],
			"min": [ -0.7218124, -1, -1, -1 ],
			"type": "VEC4"
		},
		{
			"bufferView": 0,
			"byteOffset": 4788,
			"componentType": 5123,
			"count": 660,
			"max": [ 327 ],
			"min": [ 0 ],
			"type": "SCALAR"
		},
		{
			"bufferView": 0,
			"byteOffset": 6108,
			"componentType": 5123,
			"count": 96,
			"max": [ 365 ],
			"min": [ 328 ],
			"type": "SCALAR"
		},
		{
			"bufferView": 3,
			"byteOffset": 37488,
			"componentType": 5126,
			"count": 0,
			"max": [ 0, 0, 0 ],
			"min": [ 0, 0, 0 ],
			"type": "VEC3"
		},
		{
			"bufferView": 0,
			"byteOffset": 6300,
			"componentType": 5123,
			"count": 0,
			"max": [ 0 ],
			"min": [ 0 ],
			"type": "SCALAR"
		},
		{
			"bufferView": 3,
			"byteOffset": 37488,
			"componentType": 5126,
			"count": 424,
			"max": [ 0.3045428, 4.692403, 4.65867 ],
			"min": [ 0, 0, -4.658674 ],
			"type": "VEC3"
		},
		{
			"bufferView": 3,
			"byteOffset": 42576,
			"componentType": 5126,
			"count": 424,
			"max": [ 1, 1, 1 ],
			"min": [ -1, -1, -1 ],
			"type": "VEC3"
		},
		{
			"bufferView": 2,
			"byteOffset": 12496,
			"componentType": 5126,
			"count": 424,
			"max": [ 4.282976, 1.430914 ],
			"min": [ -1.18413, 0.07596186 ],
			"type": "VEC2"
		},
		{
			"bufferView": 4,
			"byteOffset": 24992,
			"componentType": 5126,
			"count": 424,
			"max": [ 1, 1, 1, 1 ],
			"min": [ -0.006766588, -1, -1, -1 ],
			"type": "VEC4"
		},
		{
			"bufferView": 0,
			"byteOffset": 6300,
			"componentType": 5123,
			"count": 90,
			"max": [ 27 ],
			"min": [ 0 ],
			"type": "SCALAR"
		},
		{
			"bufferView": 0,
			"byteOffset": 6480,
			"componentType": 5123,
			"count": 768,
			"max": [ 423 ],
			"min": [ 28 ],
			"type": "SCALAR"
		},
		{
			"bufferView": 3,
			"byteOffset": 47664,
			"componentType": 5126,
			"count": 424,
			"max": [ 0.3045428, 4.692403, 4.65867 ],
			"min": [ 0, 0, -4.658674 ],
			"type": "VEC3"
		},
		{
			"bufferView": 3,
			"byteOffset": 52752,
			"componentType": 5126,
			"count": 424,
			"max": [ 1, 1, 1 ],
			"min": [ -1, -1, -1 ],
			"type": "VEC3"
		},
		{
			"bufferView": 2,
			"byteOffset": 15888,
			"componentType": 5126,
			"count": 424,
			"max": [ 4.282976, 1.430914 ],
			"min": [ -1.18413, 0.07596186 ],
			"type": "VEC2"
		},
		{
			"bufferView": 4,
			"byteOffset": 31776,
			"componentType": 5126,
			"count": 424,
			"max": [ 1, 1, 1, 1 ],
			"min": [ -0.006766588, -1, -1, -1 ],
			"type": "VEC4"
		},
		{
			"bufferView": 0,
			"byteOffset": 8016,
			"componentType": 5123,
			"count": 90,
			"max": [ 27 ],
			"min": [ 0 ],
			"type": "SCALAR"
		},
		{
			"bufferView": 0,
			"byteOffset": 8196,
			"componentType": 5123,
			"count": 768,
			"max": [ 423 ],
			"min": [ 28 ],
			"type": "SCALAR"
		},
		{
			"bufferView": 3,
			"byteOffset": 57840,
			"componentType": 5126,
			"count": 424,
			"max": [ 0.3045428, 4.692403, 4.65867 ],
			"min": [ 0, 0, -4.658674 ],
			"type": "VEC3"
		},
		{
			"bufferView": 3,
			"byteOffset": 62928,
			"componentType": 5126,
			"count": 424,
			"max": [ 1, 1, 1 ],
			"min": [ -1, -1, -1 ],
			"type": "VEC3"
		},
		{
			"bufferView": 2,
			"byteOffset": 19280,
			"componentType": 5126,
			"count": 424,
			"max": [ 4.282976, 1.430914 ],
			"min": [ -1.18413, 0.07596186 ],
			"type": "VEC2"
		},
		{
			"bufferView": 4,
			"byteOffset": 38560,
			"componentType": 5126,
			"count": 424,
			"max": [ 1, 1, 1, 1 ],
			"min": [ -0.006766588, -1, -1, -1 ],
			"type": "VEC4"
		},
		{
			"bufferView": 0,
			"byteOffset": 9732,
			"componentType": 5123,
			"count": 90,
			"max": [ 27 ],
			"min": [ 0 ],
			"type": "SCALAR"
		},
		{
			"bufferView": 0,
			"byteOffset": 9912,
			"componentType": 5123,
			"count": 768,
			"max": [ 423 ],
			"min": [ 28 ],
			"type": "SCALAR"
		},
		{
			"bufferView": 3,
			"byteOffset": 68016,
			"componentType": 5126,
			"count": 424,
			"max": [ 0.3045428, 4.692403, 4.65867 ],
			"min": [ 0, 0, -4.658674 ],
			"type": "VEC3"
		},
		{
			"bufferView": 3,
			"byteOffset": 73104,
			"componentType": 5126,
			"count": 424,
			"max": [ 1, 1, 1 ],
			"min": [ -1, -1, -1 ],
			"type": "VEC3"
		},
		{
			"bufferView": 2,
			"byteOffset": 22672,
			"componentType": 5126,
			"count": 424,
			"max": [ 4.282976, 1.430914 ],
			"min": [ -1.18413, 0.07596186 ],
			"type": "VEC2"
		},
		{
			"bufferView": 4,
			"byteOffset": 45344,
			"componentType": 5126,
			"count": 424,
			"max": [ 1, 1, 1, 1 ],
			"min": [ -0.006766588, -1, -1, -1 ],
			"type": "VEC4"
		},
		{
			"bufferView": 0,
			"byteOffset": 11448,
			"componentType": 5123,
			"count": 90,
			"max": [ 27 ],
			"min": [ 0 ],
			"type": "SCALAR"
		},
		{
			"bufferView": 0,
			"byteOffset": 11628,
			"componentType": 5123,
			"count": 768,
			"max": [ 423 ],
			"min": [ 28 ],
			"type": "SCALAR"
		},
		{
			"bufferView": 3,
			"byteOffset": 78192,
			"componentType": 5126,
			"count": 424,
			"max": [ 0.3045428, 4.692403, 4.65867 ],
			"min": [ 0, 0, -4.658674 ],
			"type": "VEC3"
		},
		{
			"bufferView": 3,
			"byteOffset": 83280,
			"componentType": 5126,
			"count": 424,
			"max": [ 1, 1, 1 ],
			"min": [ -1, -1, -1 ],
			"type": "VEC3"
		},
		{
			"bufferView": 2,
			"byteOffset": 26064,
			"componentType": 5126,
			"count": 424,
			"max": [ 4.282976, 1.430914 ],
			"min": [ -1.18413, 0.07596186 ],
			"type": "VEC2"
		},
		{
			"bufferView": 4,
			"byteOffset": 52128,
			"componentType": 5126,
			"count": 424,
			"max": [ 1, 1, 1, 1 ],
			"min": [ -0.006766588, -1, -1, -1 ],
			"type": "VEC4"
		},
		{
			"bufferView": 0,
			"byteOffset": 13164,
			"componentType": 5123,
			"count": 90,
			"max": [ 27 ],
			"min": [ 0 ],
			"type": "SCALAR"
		},
		{
			"bufferView": 0,
			"byteOffset": 13344,
			"componentType": 5123,
			"count": 768,
			"max": [ 423 ],
			"min": [ 28 ],
			"type": "SCALAR"
		},
		{
			"bufferView": 3,
			"byteOffset": 88368,
			"componentType": 5126,
			"count": 424,
			"max": [ 0.3045428, 4.692403, 4.65867 ],
			"min": [ 0, 0, -4.658674 ],
			"type": "VEC3"
		},
		{
			"bufferView": 3,
			"byteOffset": 93456,
			"componentType": 5126,
			"count": 424,
			"max": [ 1, 1, 1 ],
			"min": [ -1, -1, -1 ],
			"type": "VEC3"
		},
		{
			"bufferView": 2,
			"byteOffset": 29456,
			"componentType": 5126,
			"count": 424,
			"max": [ 4.282976, 1.430914 ],
			"min": [ -1.18413, 0.07596186 ],
			"type": "VEC2"
		},
		{
			"bufferView": 4,
			"byteOffset": 58912,
			"componentType": 5126,
			"count": 424,
			"max": [ 1, 1, 1, 1 ],
			"min": [ -0.006766588, -1, -1, -1 ],
			"type": "VEC4"
		},
		{
			"bufferView": 0,
			"byteOffset": 14880,
			"componentType": 5123,
			"count": 90,
			"max": [ 27 ],
			"min": [ 0 ],
			"type": "SCALAR"
		},
		{
			"bufferView": 0,
			"byteOffset": 15060,
			"componentType": 5123,
			"count": 768,
			"max": [ 423 ],
			"min": [ 28 ],
			"type": "SCALAR"
		}
	],
	"animations": [
		{
			"name": "Ads_2",
			"channels": [
				{
					"sampler": 0,
					"target": {
						"node": 3,
						"path": "translation"
					}
				},
				{
					"sampler": 1,
					"target": {
						"node": 3,
						"path": "rotation"
					}
				},
				{
					"sampler": 2,
					"target": {
						"node": 3,
						"path": "scale"
					}
				}
			],
			"samplers": [
				{
					"input": 13,
					"interpolation": "LINEAR",
					"output": 14
				},
				{
					"input": 13,
					"interpolation": "LINEAR",
					"output": 15
				},
				{
					"input": 13,
					"interpolation": "LINEAR",
					"output": 16
				}
			]
		}
	],
	"buffers": [
		{
			"byteLength": 226884,
			"uri": "entity16274.bin"
		}
	],
	"bufferViews": [
		{
			"buffer": 0,
			"byteLength": 16596,
			"target": 34963,
			"byteOffset": 198288
		},
		{
			"buffer": 0,
			"byteLength": 1200,
			"byteOffset": 0
		},
		{
			"buffer": 0,
			"byteLength": 32848,
			"target": 34962,
			"byteStride": 8,
			"byteOffset": 1200
		},
		{
			"buffer": 0,
			"byteLength": 98544,
			"target": 34962,
			"byteStride": 12,
			"byteOffset": 34048
		},
		{
			"buffer": 0,
			"byteLength": 65696,
			"target": 34962,
			"byteStride": 16,
			"byteOffset": 132592
		},
		{
			"buffer": 0,
			"byteLength": 7200,
			"byteStride": 12,
			"byteOffset": 214884
		},
		{
			"buffer": 0,
			"byteLength": 4800,
			"byteStride": 16,
			"byteOffset": 222084
		}
	],
	"images": [
		{
			"uri": "Assets/Visuals/Materials/Textures/Tileset_Metal_01_Albedo.jpg"
		},
		{
			"uri": "Assets/Visuals/Materials/Textures/Tileset_Metal_01_Metallic_converted_metalRoughness.jpg"
		},
		{
			"uri": "Assets/Visuals/Materials/Textures/Tileset_Metal_01_Normal.jpg"
		},
		{
			"uri": "Assets/Visuals/Materials/Textures/Tileset_Metal_02_Albedo.jpg"
		},
		{
			"uri": "Assets/Visuals/Materials/Textures/Tileset_Metal_02_Metallic_converted_metalRoughness.jpg"
		},
		{
			"uri": "Assets/Visuals/Materials/Textures/Tileset_Metal_02_Normal.jpg"
		},
		{
			"uri": "Assets/Visuals/Materials/Textures/Tileset_Metal_02_Metallic.jpg"
		}
	],
	"materials": [
		{
			"pbrMetallicRoughness": {
				"baseColorTexture" : {
					"index" : 0,
					"texCoord" : 0
				},
				"baseColorFactor": [1, 1, 1, 1],
				"metallicRoughnessTexture" : {
					"index" : 1,
					"texCoord" : 0
				},
				"metallicFactor": 1,
				"roughnessFactor": 1
			},
			"normalTexture" : {
				"index" : 2,
				"texCoord" : 0,
				"scale" : 1
			},
			"emissiveFactor": [0, 0, 0],
			"doubleSided": false,
			"name": "Tileset_Metal_01_Mat"
		},
		{
			"pbrMetallicRoughness": {
				"baseColorTexture" : {
					"index" : 3,
					"texCoord" : 0
				},
				"baseColorFactor": [1, 1, 1, 1],
				"metallicRoughnessTexture" : {
					"index" : 4,
					"texCoord" : 0
				},
				"metallicFactor": 1,
				"roughnessFactor": 1
			},
			"normalTexture" : {
				"index" : 5,
				"texCoord" : 0,
				"scale" : 1
			},
			"emissiveFactor": [0, 0, 0],
			"occlusionTexture" : {
				"index" : 6,
				"texCoord" : 0,
				"strength" : 1
			},
			"doubleSided": false,
			"name": "Tileset_Metal_02_Mat"
		},
		{
			"pbrMetallicRoughness": {
				"baseColorFactor": [1, 1, 1, 1],
				"metallicFactor": 0,
				"roughnessFactor": 0.5
			},
			"emissiveFactor": [0, 0, 0],
			"doubleSided": false,
			"name": "Default-Material"
		}
	],
	"meshes": [
		{
			"name": "mesh_Museum_Hex_Base_01_10564Museum_Hex_Base",
			"primitives": [
				{
					"attributes": {
						"POSITION": 0,
						"NORMAL": 1,
						"TEXCOORD_0": 2,
						"TANGENT": 3
					},
					"indices": 4,
					"material": 0,
					"mode": 4
				},
				{
					"attributes": {
						"POSITION": 0,
						"NORMAL": 1,
						"TEXCOORD_0": 2,
						"TANGENT": 3
					},
					"indices": 5,
					"material": 1,
					"mode": 4
				}
			]
		},
		{
			"name": "mesh_Museum_Hex_Base_01_Collider_10566Museum_Hex_Base_01_Collider",
			"primitives": [
				{
					"attributes": {
						"POSITION": 6,
						"NORMAL": 7,
						"TEXCOORD_0": 8,
						"TANGENT": 9
					},
					"indices": 10,
					"material": 2,
					"mode": 4
				}
			]
		},
		{
			"name": "mesh_Cube_11240Ads_2",
			"primitives": [
				{
					"attributes": {
						"POSITION": 11
					},
					"indices": 12,
					"material": 2,
					"mode": 4
				}
			]
		},
		{
			"name": "mesh_Museum_Ad_Projector_02_11296Museum_Ad_Projector_02 (1)",
			"primitives": [
				{
					"attributes": {
						"POSITION": 17,
						"NORMAL": 18,
						"TEXCOORD_0": 19,
						"TANGENT": 20
					},
					"indices": 21,
					"material": 1,
					"mode": 4
				},
				{
					"attributes": {
						"POSITION": 17,
						"NORMAL": 18,
						"TEXCOORD_0": 19,
						"TANGENT": 20
					},
					"indices": 22,
					"material": 2,
					"mode": 4
				}
			]
		},
		{
			"name": "mesh_Museum_Ad_Projector_02_11296Museum_Ad_Projector_02 (2)",
			"primitives": [
				{
					"attributes": {
						"POSITION": 23,
						"NORMAL": 24,
						"TEXCOORD_0": 25,
						"TANGENT": 26
					},
					"indices": 27,
					"material": 1,
					"mode": 4
				},
				{
					"attributes": {
						"POSITION": 23,
						"NORMAL": 24,
						"TEXCOORD_0": 25,
						"TANGENT": 26
					},
					"indices": 28,
					"material": 2,
					"mode": 4
				}
			]
		},
		{
			"name": "mesh_Museum_Ad_Projector_02_11296Museum_Ad_Projector_02 (3)",
			"primitives": [
				{
					"attributes": {
						"POSITION": 29,
						"NORMAL": 30,
						"TEXCOORD_0": 31,
						"TANGENT": 32
					},
					"indices": 33,
					"material": 1,
					"mode": 4
				},
				{
					"attributes": {
						"POSITION": 29,
						"NORMAL": 30,
						"TEXCOORD_0": 31,
						"TANGENT": 32
					},
					"indices": 34,
					"material": 2,
					"mode": 4
				}
			]
		},
		{
			"name": "mesh_Cube_11240Ads_1",
			"primitives": [
				{
					"attributes": {
						"POSITION": 35
					},
					"indices": 36,
					"material": 2,
					"mode": 4
				}
			]
		},
		{
			"name": "mesh_Museum_Ad_Projector_01_10384Museum_Ad_Projector_01 (1)",
			"primitives": [
				{
					"attributes": {
						"POSITION": 37,
						"NORMAL": 38,
						"TEXCOORD_0": 39,
						"TANGENT": 40
					},
					"indices": 41,
					"material": 2,
					"mode": 4
				},
				{
					"attributes": {
						"POSITION": 37,
						"NORMAL": 38,
						"TEXCOORD_0": 39,
						"TANGENT": 40
					},
					"indices": 42,
					"material": 1,
					"mode": 4
				}
			]
		},
		{
			"name": "mesh_Museum_Ad_Projector_01_10384Museum_Ad_Projector_01 (2)",
			"primitives": [
				{
					"attributes": {
						"POSITION": 43,
						"NORMAL": 44,
						"TEXCOORD_0": 45,
						"TANGENT": 46
					},
					"indices": 47,
					"material": 2,
					"mode": 4
				},
				{
					"attributes": {
						"POSITION": 43,
						"NORMAL": 44,
						"TEXCOORD_0": 45,
						"TANGENT": 46
					},
					"indices": 48,
					"material": 1,
					"mode": 4
				}
			]
		},
		{
			"name": "mesh_Museum_Ad_Projector_01_10384Museum_Ad_Projector_01 (3)",
			"primitives": [
				{
					"attributes": {
						"POSITION": 49,
						"NORMAL": 50,
						"TEXCOORD_0": 51,
						"TANGENT": 52
					},
					"indices": 53,
					"material": 2,
					"mode": 4
				},
				{
					"attributes": {
						"POSITION": 49,
						"NORMAL": 50,
						"TEXCOORD_0": 51,
						"TANGENT": 52
					},
					"indices": 54,
					"material": 1,
					"mode": 4
				}
			]
		},
		{
			"name": "mesh_Museum_Ad_Projector_01_10384Museum_Ad_Projector_01 (4)",
			"primitives": [
				{
					"attributes": {
						"POSITION": 55,
						"NORMAL": 56,
						"TEXCOORD_0": 57,
						"TANGENT": 58
					},
					"indices": 59,
					"material": 2,
					"mode": 4
				},
				{
					"attributes": {
						"POSITION": 55,
						"NORMAL": 56,
						"TEXCOORD_0": 57,
						"TANGENT": 58
					},
					"indices": 60,
					"material": 1,
					"mode": 4
				}
			]
		},
		{
			"name": "mesh_Museum_Ad_Projector_01_10384Museum_Ad_Projector_01 (5)",
			"primitives": [
				{
					"attributes": {
						"POSITION": 61,
						"NORMAL": 62,
						"TEXCOORD_0": 63,
						"TANGENT": 64
					},
					"indices": 65,
					"material": 2,
					"mode": 4
				},
				{
					"attributes": {
						"POSITION": 61,
						"NORMAL": 62,
						"TEXCOORD_0": 63,
						"TANGENT": 64
					},
					"indices": 66,
					"material": 1,
					"mode": 4
				}
			]
		},
		{
			"name": "mesh_Museum_Ad_Projector_01_10384Museum_Ad_Projector_01 (6)",
			"primitives": [
				{
					"attributes": {
						"POSITION": 67,
						"NORMAL": 68,
						"TEXCOORD_0": 69,
						"TANGENT": 70
					},
					"indices": 71,
					"material": 2,
					"mode": 4
				},
				{
					"attributes": {
						"POSITION": 67,
						"NORMAL": 68,
						"TEXCOORD_0": 69,
						"TANGENT": 70
					},
					"indices": 72,
					"material": 1,
					"mode": 4
				}
			]
		}
	],
	"nodes": [
		{
			"name": "UnityGlTF_root",
			"children": [
				1
			]
		},
		{
			"name": "node_Museum_Hex_Base",
			"mesh": 0,
			"children": [
				2,
				3,
				7
			],
			"matrix": [1, 0, 0, 0, 0, 1, 0, 0, 0, 0, 1, 0, 0, 0, 0, 1]
		},
		{
			"name": "node_Museum_Hex_Base_01_Collider",
			"mesh": 1,
			"translation": [ -2.407536E-14, -0.2753792, 4.015477E-14]
		},
		{
			"name": "node_Ads_2",
			"mesh": 2,
			"children": [
				4,
				5,
				6
			]
		},
		{
			"name": "node_Museum_Ad_Projector_02 (1)",
			"mesh": 3,
			"translation": [ 4.929317, 7.18, -8.537907],
			"scale": [ 1.389001, 1.389, 1.389001],
			"rotation": [0, 0.8660244, 0, -0.5000018]
		},
		{
			"name": "node_Museum_Ad_Projector_02 (2)",
			"mesh": 4,
			"translation": [ 4.929394, 7.18, 8.537865],
			"scale": [ 1.389002, 1.389, 1.389002],
			"rotation": [0, 0.8660266, 0, 0.4999978]
		},
		{
			"name": "node_Museum_Ad_Projector_02 (3)",
			"mesh": 5,
			"translation": [ -9.858704, 7.18, 4.959106E-05],
			"scale": [ 1.389001, 1.389, 1.389001],
			"rotation": [0, 2.473593E-06, 0, 1]
		},
		{
			"name": "node_Ads_1",
			"mesh": 6,
			"children": [
				8,
				9,
				10,
				11,
				12,
				13
			]
		},
		{
			"name": "node_Museum_Ad_Projector_01 (1)",
			"mesh": 7,
			"translation": [ 4.224972, 1.95, -7.317934],
			"rotation": [0, 0.8660244, 0, -0.5000018]
		},
		{
			"name": "node_Museum_Ad_Projector_01 (2)",
			"mesh": 8,
			"translation": [ 4.22506, 1.95, 7.317883],
			"rotation": [0, 0.8660274, 0, 0.4999967]
		},
		{
			"name": "node_Museum_Ad_Projector_01 (3)",
			"mesh": 9,
			"translation": [ -8.450001, 1.95, 0]
		},
		{
			"name": "node_Museum_Ad_Projector_01 (4)",
			"mesh": 10,
			"translation": [ -4.272621, 1.95, -7.235451],
			"rotation": [0, 0.4999992, 0, -0.8660259]
		},
		{
			"name": "node_Museum_Ad_Projector_01 (5)",
			"mesh": 11,
			"translation": [ 8.402393, 1.95, 0.08240891],
			"rotation": [0, 1, 0, -2.950429E-06]
		},
		{
			"name": "node_Museum_Ad_Projector_01 (6)",
			"mesh": 12,
			"translation": [ -4.272541, 1.95, 7.400414],
			"rotation": [0, 0.5000044, 0, 0.8660229]
		}
	],
	"samplers": [
		{
			"magFilter": 9729,
			"minFilter": 9985,
			"wrapS": 10497,
			"wrapT": 10497
		}
	],
	"scenes": [
		{
			"name":"defaultScene",
			"nodes": [
				0
			]
		}
	],
	"scene": 0,
	"textures": [
		{
			"sampler": 0,
			"source": 0
		},
		{
			"sampler": 0,
			"source": 1
		},
		{
			"sampler": 0,
			"source": 2
		},
		{
			"sampler": 0,
			"source": 3
		},
		{
			"sampler": 0,
			"source": 4
		},
		{
			"sampler": 0,
			"source": 5
		},
		{
			"sampler": 0,
			"source": 6
		}
	]
}