{
	"asset": {
		"generator": "Unity 2018.3.6f1",
		"extras": {
			"exporterVersion" : "2.2.1"
		},
		"version": "2.0"
	},
	"accessors": [
		{
			"bufferView": 2,
			"byteOffset": 0,
			"componentType": 5126,
			"count": 892,
			"max": [ 2.784153, 4.244853, 0.7917181 ],
			"min": [ -2.784153, -5.722046E-08, -0.7437088 ],
			"type": "VEC3"
		},
		{
			"bufferView": 2,
			"byteOffset": 10704,
			"componentType": 5126,
			"count": 892,
			"max": [ 0.9985759, 1, 1 ],
			"min": [ -0.9985759, -1, -1 ],
			"type": "VEC3"
		},
		{
			"bufferView": 1,
			"byteOffset": 0,
			"componentType": 5126,
			"count": 892,
			"max": [ 2.271411, 1.275656 ],
			"min": [ -1.649463, 0.101657 ],
			"type": "VEC2"
		},
		{
			"bufferView": 3,
			"byteOffset": 0,
			"componentType": 5126,
			"count": 892,
			"max": [ 1, 0.8988586, 1, 1 ],
			"min": [ -1, -0.8741865, -1, -1 ],
			"type": "VEC4"
		},
		{
			"bufferView": 0,
			"byteOffset": 0,
			"componentType": 5123,
			"count": 276,
			"max": [ 95 ],
			"min": [ 0 ],
			"type": "SCALAR"
		},
		{
			"bufferView": 0,
			"byteOffset": 552,
			"componentType": 5123,
			"count": 612,
			"max": [ 499 ],
			"min": [ 96 ],
			"type": "SCALAR"
		},
		{
			"bufferView": 0,
			"byteOffset": 1776,
			"componentType": 5123,
			"count": 288,
			"max": [ 695 ],
			"min": [ 500 ],
			"type": "SCALAR"
		},
		{
			"bufferView": 0,
			"byteOffset": 2352,
			"componentType": 5123,
			"count": 312,
			"max": [ 811 ],
			"min": [ 696 ],
			"type": "SCALAR"
		},
		{
			"bufferView": 0,
			"byteOffset": 2976,
			"componentType": 5123,
			"count": 252,
			"max": [ 891 ],
			"min": [ 812 ],
			"type": "SCALAR"
		},
		{
			"bufferView": 2,
			"byteOffset": 21408,
			"componentType": 5126,
			"count": 68,
			"max": [ 2.788024, 4.244853, 0.7917217 ],
			"min": [ -2.788024, -3.650784E-07, -0.7437121 ],
			"type": "VEC3"
		},
		{
			"bufferView": 2,
			"byteOffset": 22224,
			"componentType": 5126,
			"count": 68,
			"max": [ 0.9973487, 1, 1 ],
			"min": [ -0.9973487, -1, -1 ],
			"type": "VEC3"
		},
		{
			"bufferView": 1,
			"byteOffset": 7136,
			"componentType": 5126,
			"count": 68,
			"max": [ 0.875, 0.75 ],
			"min": [ 0.125, 0 ],
			"type": "VEC2"
		},
		{
			"bufferView": 3,
			"byteOffset": 14272,
			"componentType": 5126,
			"count": 68,
			"max": [ 1, 0, 1, 1 ],
			"min": [ -1, 0, -1, 1 ],
			"type": "VEC4"
		},
		{
			"bufferView": 0,
			"byteOffset": 3480,
			"componentType": 5123,
			"count": 120,
			"max": [ 67 ],
			"min": [ 0 ],
			"type": "SCALAR"
		}
	],
	"buffers": [
		{
			"byteLength": 49800,
			"uri": "entity21816.bin"
		}
	],
	"bufferViews": [
		{
			"buffer": 0,
			"byteLength": 3720,
			"target": 34963,
			"byteOffset": 46080
		},
		{
			"buffer": 0,
			"byteLength": 7680,
			"target": 34962,
			"byteStride": 8,
			"byteOffset": 0
		},
		{
			"buffer": 0,
			"byteLength": 23040,
			"target": 34962,
			"byteStride": 12,
			"byteOffset": 7680
		},
		{
			"buffer": 0,
			"byteLength": 15360,
			"target": 34962,
			"byteStride": 16,
			"byteOffset": 30720
		}
	],
	"images": [
		{
			"uri": "Assets/Visuals/Materials/Textures/Tileset_Metal_02_Albedo.jpg"
		},
		{
			"uri": "Assets/Visuals/Materials/Textures/Tileset_Metal_02_Metallic_converted_metalRoughness.jpg"
		},
		{
			"uri": "Assets/Visuals/Materials/Textures/Tileset_Metal_02_Normal.jpg"
		},
		{
			"uri": "Assets/Visuals/Materials/Textures/Tileset_Metal_02_Emissive.jpg"
		},
		{
			"uri": "Assets/Visuals/Materials/Textures/Tileset_Metal_02_Metallic.jpg"
		},
		{
			"uri": "Assets/Visuals/Materials/Textures/Tileset_Metal_03_Albedo.jpg"
		},
		{
			"uri": "Assets/Visuals/Materials/Textures/Tileset_Metal_03_Metallic_converted_metalRoughness.jpg"
		},
		{
			"uri": "Assets/Visuals/Materials/Textures/Tileset_Metal_03_Normal.jpg"
		}
	],
	"materials": [
		{
			"pbrMetallicRoughness": {
				"baseColorFactor": [0.2075472, 0.2075472, 0.2075472, 0.4],
				"metallicFactor": 0,
				"roughnessFactor": 0.2
			},
			"alphaMode": "BLEND",
			"alphaCutoff": 0.5,
			"emissiveFactor": [0, 0, 0],
			"doubleSided": false,
			"name": "Glass_Windowed_Mat"
		},
		{
			"pbrMetallicRoughness": {
				"baseColorTexture" : {
					"index" : 0,
					"texCoord" : 0
				},
				"baseColorFactor": [1, 1, 1, 1],
				"metallicRoughnessTexture" : {
					"index" : 1,
					"texCoord" : 0
				},
				"metallicFactor": 1,
				"roughnessFactor": 1
			},
			"normalTexture" : {
				"index" : 2,
				"texCoord" : 0,
				"scale" : 1
			},
			"emissiveTexture" : {
				"index" : 3,
				"texCoord" : 0
			},
			"emissiveFactor": [0.5, 0.5, 0.5],
			"occlusionTexture" : {
				"index" : 4,
				"texCoord" : 0,
				"strength" : 1
			},
			"doubleSided": false,
			"name": "Tileset_Metal_02_Mat"
		},
		{
			"pbrMetallicRoughness": {
				"baseColorTexture" : {
					"index" : 5,
					"texCoord" : 0
				},
				"baseColorFactor": [1, 1, 1, 1],
				"metallicRoughnessTexture" : {
					"index" : 6,
					"texCoord" : 0
				},
				"metallicFactor": 1,
				"roughnessFactor": 1
			},
			"normalTexture" : {
				"index" : 7,
				"texCoord" : 0,
				"scale" : 1
			},
			"emissiveFactor": [0, 0, 0],
			"doubleSided": false,
			"name": "Tileset_Metal_03_Mat"
		},
		{
			"pbrMetallicRoughness": {
				"baseColorFactor": [1, 0.4039216, 0.4941177, 1],
				"metallicFactor": 0,
				"roughnessFactor": 0.5
			},
			"emissiveFactor": [1, 0.1356334, 0.2086369],
			"doubleSided": false,
			"name": "Tileset_Emissive_02_Mat"
		},
		{
			"pbrMetallicRoughness": {
				"baseColorFactor": [1, 0.8588236, 0, 1],
				"metallicFactor": 0,
				"roughnessFactor": 0.5
			},
			"emissiveFactor": [1, 0.708376, 0],
			"doubleSided": false,
			"name": "Tileset_Emissive_03_Mat"
		},
		{
			"pbrMetallicRoughness": {
				"baseColorFactor": [0.2036906, 1, 0, 1],
				"metallicFactor": 0,
				"roughnessFactor": 0.5
			},
			"emissiveFactor": [0, 0, 0],
			"doubleSided": false,
			"name": "Collider_Mat"
		}
	],
	"meshes": [
		{
			"name": "mesh_Museum_Expo_Area_Entry_01_4346Museum_Expo_Area_Entry (1)",
			"primitives": [
				{
					"attributes": {
						"POSITION": 0,
						"NORMAL": 1,
						"TEXCOORD_0": 2,
						"TANGENT": 3
					},
					"indices": 4,
					"material": 0,
					"mode": 4
				},
				{
					"attributes": {
						"POSITION": 0,
						"NORMAL": 1,
						"TEXCOORD_0": 2,
						"TANGENT": 3
					},
					"indices": 5,
					"material": 1,
					"mode": 4
				},
				{
					"attributes": {
						"POSITION": 0,
						"NORMAL": 1,
						"TEXCOORD_0": 2,
						"TANGENT": 3
					},
					"indices": 6,
					"material": 2,
					"mode": 4
				},
				{
					"attributes": {
						"POSITION": 0,
						"NORMAL": 1,
						"TEXCOORD_0": 2,
						"TANGENT": 3
					},
					"indices": 7,
					"material": 3,
					"mode": 4
				},
				{
					"attributes": {
						"POSITION": 0,
						"NORMAL": 1,
						"TEXCOORD_0": 2,
						"TANGENT": 3
					},
					"indices": 8,
					"material": 4,
					"mode": 4
				}
			]
		},
		{
			"name": "mesh_Museum_Expo_Area_Entry_01_Collider_4348Museum_Expo_Area_Entry_01_Collider",
			"primitives": [
				{
					"attributes": {
						"POSITION": 9,
						"NORMAL": 10,
						"TEXCOORD_0": 11,
						"TANGENT": 12
					},
					"indices": 13,
					"material": 5,
					"mode": 4
				}
			]
		}
	],
	"nodes": [
		{
			"name": "UnityGlTF_root",
			"children": [
				1
			]
		},
		{
			"name": "node_Museum_Expo_Area_Entry (1)",
			"mesh": 0,
			"children": [
				2
			],
			"matrix": [1, 0, 0, 0, 0, 1, 0, 0, 0, 0, 1, 0, 0, 0, 0, 1]
		},
		{
			"name": "node_Museum_Expo_Area_Entry_01_Collider",
			"mesh": 1
		}
	],
	"samplers": [
		{
			"magFilter": 9729,
			"minFilter": 9985,
			"wrapS": 10497,
			"wrapT": 10497
		}
	],
	"scenes": [
		{
			"name":"defaultScene",
			"nodes": [
				0
			]
		}
	],
	"scene": 0,
	"textures": [
		{
			"sampler": 0,
			"source": 0
		},
		{
			"sampler": 0,
			"source": 1
		},
		{
			"sampler": 0,
			"source": 2
		},
		{
			"sampler": 0,
			"source": 3
		},
		{
			"sampler": 0,
			"source": 4
		},
		{
			"sampler": 0,
			"source": 5
		},
		{
			"sampler": 0,
			"source": 6
		},
		{
			"sampler": 0,
			"source": 7
		}
	]
}