{
	"asset": {
		"generator": "Unity 2018.3.6f1",
		"extras": {
			"exporterVersion" : "2.2.1"
		},
		"version": "2.0"
	},
	"accessors": [
		{
			"bufferView": 2,
			"byteOffset": 0,
			"componentType": 5126,
			"count": 158,
			"max": [ 7.033868, 1.678067, 6.091508 ],
			"min": [ -7.033868, -1.678067, -6.091508 ],
			"type": "VEC3"
		},
		{
			"bufferView": 2,
			"byteOffset": 1896,
			"componentType": 5126,
			"count": 158,
			"max": [ 0.8660255, 1, 1 ],
			"min": [ -0.8660255, -1, -1 ],
			"type": "VEC3"
		},
		{
			"bufferView": 1,
			"byteOffset": 0,
			"componentType": 5126,
			"count": 158,
			"max": [ 0.650676, 0.9740162 ],
			"min": [ 0.349324, 0.02553782 ],
			"type": "VEC2"
		},
		{
			"bufferView": 3,
			"byteOffset": 0,
			"componentType": 5126,
			"count": 158,
			"max": [ 1, 0.1850509, 0.8660255, 1 ],
			"min": [ -1, -0.185051, -0.8660256, 1 ],
			"type": "VEC4"
		},
		{
			"bufferView": 0,
			"byteOffset": 0,
			"componentType": 5123,
			"count": 276,
			"max": [ 131 ],
			"min": [ 0 ],
			"type": "SCALAR"
		},
		{
			"bufferView": 0,
			"byteOffset": 552,
			"componentType": 5123,
			"count": 54,
			"max": [ 144 ],
			"min": [ 132 ],
			"type": "SCALAR"
		},
		{
			"bufferView": 0,
			"byteOffset": 660,
			"componentType": 5123,
			"count": 54,
			"max": [ 157 ],
			"min": [ 145 ],
			"type": "SCALAR"
		},
		{
			"bufferView": 2,
			"byteOffset": 3792,
			"componentType": 5126,
			"count": 38,
			"max": [ 7.070359, 1.086649, 6.123111 ],
			"min": [ -7.070359, -1.086649, -6.123111 ],
			"type": "VEC3"
		},
		{
			"bufferView": 2,
			"byteOffset": 4248,
			"componentType": 5126,
			"count": 38,
			"max": [ 0.8660255, 1, 1 ],
			"min": [ -0.8660255, -1, -1 ],
			"type": "VEC3"
		},
		{
			"bufferView": 1,
			"byteOffset": 1264,
			"componentType": 5126,
			"count": 38,
			"max": [ 0.65625, 0.9790665 ],
			"min": [ 0.34375, 0.02093351 ],
			"type": "VEC2"
		},
		{
			"bufferView": 3,
			"byteOffset": 2528,
			"componentType": 5126,
			"count": 38,
			"max": [ 1, 0, 0.8660255, 1 ],
			"min": [ -1, 0, -0.8660255, 1 ],
			"type": "VEC4"
		},
		{
			"bufferView": 0,
			"byteOffset": 768,
			"componentType": 5123,
			"count": 72,
			"max": [ 37 ],
			"min": [ 0 ],
			"type": "SCALAR"
		},
		{
			"bufferView": 2,
			"byteOffset": 4704,
			"componentType": 5126,
			"count": 44,
			"max": [ 2.391362, 0.2197215, 0 ],
			"min": [ -2.391362, -0.2197215, -1.6 ],
			"type": "VEC3"
		},
		{
			"bufferView": 2,
			"byteOffset": 5232,
			"componentType": 5126,
			"count": 44,
			"max": [ 1, 1, 0.9611551 ],
			"min": [ -1, -1, -1 ],
			"type": "VEC3"
		},
		{
			"bufferView": 1,
			"byteOffset": 1568,
			"componentType": 5126,
			"count": 44,
			"max": [ 0.875, 1 ],
			"min": [ 0.125, 0 ],
			"type": "VEC2"
		},
		{
			"bufferView": 3,
			"byteOffset": 3136,
			"componentType": 5126,
			"count": 44,
			"max": [ 1, 0, 1, 1 ],
			"min": [ -1, 0, -1, 1 ],
			"type": "VEC4"
		},
		{
			"bufferView": 0,
			"byteOffset": 912,
			"componentType": 5123,
			"count": 78,
			"max": [ 43 ],
			"min": [ 0 ],
			"type": "SCALAR"
		},
		{
			"bufferView": 2,
			"byteOffset": 5760,
			"componentType": 5126,
			"count": 24,
			"max": [ 2.447117, 0.2197215, 0 ],
			"min": [ -2.447117, -0.2197215, -1.6 ],
			"type": "VEC3"
		},
		{
			"bufferView": 2,
			"byteOffset": 6048,
			"componentType": 5126,
			"count": 24,
			"max": [ 0.9805523, 0.9953384, 1 ],
			"min": [ -0.9805523, -0.9953384, -1 ],
			"type": "VEC3"
		},
		{
			"bufferView": 1,
			"byteOffset": 1920,
			"componentType": 5126,
			"count": 24,
			"max": [ 0.875, 1 ],
			"min": [ 0.125, 0 ],
			"type": "VEC2"
		},
		{
			"bufferView": 3,
			"byteOffset": 3840,
			"componentType": 5126,
			"count": 24,
			"max": [ -0.1953779, 0.09458473, 0.978518, 1 ],
			"min": [ -1, -0.09458473, -0.978518, 1 ],
			"type": "VEC4"
		},
		{
			"bufferView": 0,
			"byteOffset": 1068,
			"componentType": 5123,
			"count": 36,
			"max": [ 23 ],
			"min": [ 0 ],
			"type": "SCALAR"
		}
	],
	"buffers": [
		{
			"byteLength": 13812,
			"uri": "entity10262n.bin"
		}
	],
	"bufferViews": [
		{
			"buffer": 0,
			"byteLength": 1140,
			"target": 34963,
			"byteOffset": 12672
		},
		{
			"buffer": 0,
			"byteLength": 2112,
			"target": 34962,
			"byteStride": 8,
			"byteOffset": 0
		},
		{
			"buffer": 0,
			"byteLength": 6336,
			"target": 34962,
			"byteStride": 12,
			"byteOffset": 2112
		},
		{
			"buffer": 0,
			"byteLength": 4224,
			"target": 34962,
			"byteStride": 16,
			"byteOffset": 8448
		}
	],
	"images": [
		{
			"uri": "Assets/Visuals/Materials/Textures/Tileset_Metal_02_Albedo.jpg"
		},
		{
			"uri": "Assets/Visuals/Materials/Textures/Tileset_Metal_02_Metallic_converted_metalRoughness.jpg"
		},
		{
			"uri": "Assets/Visuals/Materials/Textures/Tileset_Metal_02_Normal.jpg"
		},
		{
			"uri": "Assets/Visuals/Materials/Textures/Tileset_Metal_02_Metallic.jpg"
		}
	],
	"materials": [
		{
			"pbrMetallicRoughness": {
				"baseColorFactor": [1, 1, 1, 1],
				"metallicFactor": 0,
				"roughnessFactor": 0.5
			},
			"emissiveFactor": [0, 0, 0],
			"doubleSided": false,
			"name": "Default-Material"
		},
		{
			"pbrMetallicRoughness": {
				"baseColorFactor": [1, 0.9857922, 0.4103774, 0.3411765],
				"metallicFactor": 0,
				"roughnessFactor": 0
			},
			"alphaMode": "BLEND",
			"alphaCutoff": 0.5,
			"emissiveFactor": [0, 0, 0],
			"doubleSided": false,
			"name": "temp_yellow"
		},
		{
			"pbrMetallicRoughness": {
				"baseColorFactor": [0.9724381, 0.2971698, 1, 0.4705882],
				"metallicFactor": 0,
				"roughnessFactor": 0
			},
			"alphaMode": "BLEND",
			"alphaCutoff": 0.5,
			"emissiveFactor": [0, 0, 0],
			"doubleSided": false,
			"name": "temp_pink"
		},
		{
			"pbrMetallicRoughness": {
				"baseColorFactor": [0.2036906, 1, 0, 1],
				"metallicFactor": 0,
				"roughnessFactor": 0.5
			},
			"emissiveFactor": [0, 0, 0],
			"doubleSided": false,
			"name": "Collider_Mat"
		},
		{
			"pbrMetallicRoughness": {
				"baseColorTexture" : {
					"index" : 0,
					"texCoord" : 0
				},
				"baseColorFactor": [1, 1, 1, 1],
				"metallicRoughnessTexture" : {
					"index" : 1,
					"texCoord" : 0
				},
				"metallicFactor": 1,
				"roughnessFactor": 1
			},
			"normalTexture" : {
				"index" : 2,
				"texCoord" : 0,
				"scale" : 1
			},
			"emissiveFactor": [0, 0, 0],
			"occlusionTexture" : {
				"index" : 3,
				"texCoord" : 0,
				"strength" : 1
			},
			"doubleSided": false,
			"name": "Tileset_Metal_02_Mat"
		}
	],
	"meshes": [
		{
			"name": "mesh_Museum_Hex_Floor_Piece_a_9958Museum_Hex_Floor_Piece_a",
			"primitives": [
				{
					"attributes": {
						"POSITION": 0,
						"NORMAL": 1,
						"TEXCOORD_0": 2,
						"TANGENT": 3
					},
					"indices": 4,
					"material": 0,
					"mode": 4
				},
				{
					"attributes": {
						"POSITION": 0,
						"NORMAL": 1,
						"TEXCOORD_0": 2,
						"TANGENT": 3
					},
					"indices": 5,
					"material": 1,
					"mode": 4
				},
				{
					"attributes": {
						"POSITION": 0,
						"NORMAL": 1,
						"TEXCOORD_0": 2,
						"TANGENT": 3
					},
					"indices": 6,
					"material": 2,
					"mode": 4
				}
			]
		},
		{
			"name": "mesh_Museum_Hex_Floor_Piece_Collider_9962Museum_Hex_Floor_Piece_Collider",
			"primitives": [
				{
					"attributes": {
						"POSITION": 7,
						"NORMAL": 8,
						"TEXCOORD_0": 9,
						"TANGENT": 10
					},
					"indices": 11,
					"material": 3,
					"mode": 4
				}
			]
		},
		{
			"name": "mesh_Museum_Hex_Floor_Ramp_11008Museum_Hex_Floor_Ramp",
			"primitives": [
				{
					"attributes": {
						"POSITION": 12,
						"NORMAL": 13,
						"TEXCOORD_0": 14,
						"TANGENT": 15
					},
					"indices": 16,
					"material": 4,
					"mode": 4
				}
			]
		},
		{
			"name": "mesh_Museum_Hex_Floor_Ramp_Collider_11010Museum_Hex_Floor_Ramp_Collider",
			"primitives": [
				{
					"attributes": {
						"POSITION": 17,
						"NORMAL": 18,
						"TEXCOORD_0": 19,
						"TANGENT": 20
					},
					"indices": 21,
					"material": 3,
					"mode": 4
				}
			]
		}
	],
	"nodes": [
		{
			"name": "UnityGlTF_root",
			"children": [
				1
			]
		},
		{
			"name": "node_Museum_Hex_Floor_Piece_a",
			"mesh": 0,
			"children": [
				2,
				3
			],
			"matrix": [1, 0, 0, 0, 0, 1, 0, 0, 0, 0, 1, 0, 0, 0, 0, 1]
		},
		{
			"name": "node_Museum_Hex_Floor_Piece_Collider",
			"mesh": 1
		},
		{
			"name": "node_Museum_Hex_Floor_Ramp",
			"mesh": 2,
			"children": [
				4
			],
			"translation": [ 0, -0.62, 6],
			"rotation": [-7.450581E-09, -0.9969494, 0.07805103, 1.498432E-07]
		},
		{
			"name": "node_Museum_Hex_Floor_Ramp_Collider",
			"mesh": 3
		}
	],
	"samplers": [
		{
			"magFilter": 9729,
			"minFilter": 9985,
			"wrapS": 10497,
			"wrapT": 10497
		}
	],
	"scenes": [
		{
			"name":"defaultScene",
			"nodes": [
				0
			]
		}
	],
	"scene": 0,
	"textures": [
		{
			"sampler": 0,
			"source": 0
		},
		{
			"sampler": 0,
			"source": 1
		},
		{
			"sampler": 0,
			"source": 2
		},
		{
			"sampler": 0,
			"source": 3
		}
	]
}