{
	"asset": {
		"generator": "Unity 2018.3.6f1",
		"extras": {
			"exporterVersion" : "2.2.1"
		},
		"version": "2.0"
	},
	"accessors": [
		{
			"bufferView": 2,
			"byteOffset": 0,
			"componentType": 5126,
			"count": 108,
			"max": [ 3.516934, 5.838072, -2.02377 ],
			"min": [ -3.516934, 0.8606984, -6.091523 ],
			"type": "VEC3"
		},
		{
			"bufferView": 2,
			"byteOffset": 1296,
			"componentType": 5126,
			"count": 108,
			"max": [ 1, 0.9999988, 1 ],
			"min": [ -1, -0.9999988, -1 ],
			"type": "VEC3"
		},
		{
			"bufferView": 1,
			"byteOffset": 0,
			"componentType": 5126,
			"count": 108,
			"max": [ 0.875, 0.75 ],
			"min": [ 0.125, 0 ],
			"type": "VEC2"
		},
		{
			"bufferView": 3,
			"byteOffset": 0,
			"componentType": 5126,
			"count": 108,
			"max": [ 1, 0.1704569, 1, 1 ],
			"min": [ -1, -0.1704571, -0.8660443, -1 ],
			"type": "VEC4"
		},
		{
			"bufferView": 0,
			"byteOffset": 0,
			"componentType": 5123,
			"count": 48,
			"max": [ 31 ],
			"min": [ 0 ],
			"type": "SCALAR"
		},
		{
			"bufferView": 0,
			"byteOffset": 96,
			"componentType": 5123,
			"count": 36,
			"max": [ 55 ],
			"min": [ 32 ],
			"type": "SCALAR"
		},
		{
			"bufferView": 0,
			"byteOffset": 168,
			"componentType": 5123,
			"count": 144,
			"max": [ 107 ],
			"min": [ 56 ],
			"type": "SCALAR"
		}
	],
	"buffers": [
		{
			"byteLength": 5640,
			"uri": "entity47356n.bin"
		}
	],
	"bufferViews": [
		{
			"buffer": 0,
			"byteLength": 456,
			"target": 34963,
			"byteOffset": 5184
		},
		{
			"buffer": 0,
			"byteLength": 864,
			"target": 34962,
			"byteStride": 8,
			"byteOffset": 0
		},
		{
			"buffer": 0,
			"byteLength": 2592,
			"target": 34962,
			"byteStride": 12,
			"byteOffset": 864
		},
		{
			"buffer": 0,
			"byteLength": 1728,
			"target": 34962,
			"byteStride": 16,
			"byteOffset": 3456
		}
	],
	"materials": [
		{
			"pbrMetallicRoughness": {
				"baseColorFactor": [1, 1, 1, 1],
				"metallicFactor": 0,
				"roughnessFactor": 0.5
			},
			"emissiveFactor": [0, 0, 0],
			"doubleSided": false,
			"name": "Default-Material"
		},
		{
			"pbrMetallicRoughness": {
				"baseColorFactor": [1, 0.9857922, 0.4103774, 0.3411765],
				"metallicFactor": 0,
				"roughnessFactor": 0
			},
			"alphaMode": "BLEND",
			"alphaCutoff": 0.5,
			"emissiveFactor": [0, 0, 0],
			"doubleSided": false,
			"name": "temp_yellow"
		}
	],
	"meshes": [
		{
			"name": "mesh_Museum_Hex_Roof_Piece_01_31710Museum_Hex_Roof_Piece_01",
			"primitives": [
				{
					"attributes": {
						"POSITION": 0,
						"NORMAL": 1,
						"TEXCOORD_0": 2,
						"TANGENT": 3
					},
					"indices": 4,
					"material": 0,
					"mode": 4
				},
				{
					"attributes": {
						"POSITION": 0,
						"NORMAL": 1,
						"TEXCOORD_0": 2,
						"TANGENT": 3
					},
					"indices": 5,
					"material": 0,
					"mode": 4
				},
				{
					"attributes": {
						"POSITION": 0,
						"NORMAL": 1,
						"TEXCOORD_0": 2,
						"TANGENT": 3
					},
					"indices": 6,
					"material": 1,
					"mode": 4
				}
			]
		}
	],
	"nodes": [
		{
			"name": "UnityGlTF_root",
			"children": [
				1
			]
		},
		{
			"name": "node_Museum_Hex_Roof_Piece_01",
			"mesh": 0,
			"matrix": [1, 0, 0, 0, 0, 1, 0, 0, 0, 0, 1, 0, 0, 0, 0, 1]
		}
	],
	"scenes": [
		{
			"name":"defaultScene",
			"nodes": [
				0
			]
		}
	],
	"scene": 0
}