{
	"asset": {
		"generator": "Unity 2018.3.6f1",
		"extras": {
			"exporterVersion" : "2.2.1"
		},
		"version": "2.0"
	},
	"accessors": [
		{
			"bufferView": 2,
			"byteOffset": 0,
			"componentType": 5126,
			"count": 157,
			"max": [ 7.033868, 1.525879E-06, 6.091508 ],
			"min": [ -7.033868, -4.932536, -6.091508 ],
			"type": "VEC3"
		},
		{
			"bufferView": 2,
			"byteOffset": 1884,
			"componentType": 5126,
			"count": 157,
			"max": [ 0.8660255, 0.989198, 1 ],
			"min": [ -0.8660255, -1, -1 ],
			"type": "VEC3"
		},
		{
			"bufferView": 1,
			"byteOffset": 0,
			"componentType": 5126,
			"count": 157,
			"max": [ 0.650676, 0.9740162 ],
			"min": [ 0.349324, 0.02553782 ],
			"type": "VEC2"
		},
		{
			"bufferView": 3,
			"byteOffset": 0,
			"componentType": 5126,
			"count": 157,
			"max": [ 1, 0.4542381, 0.8660256, 1 ],
			"min": [ -1, -0.4542383, -0.8660256, -1 ],
			"type": "VEC4"
		},
		{
			"bufferView": 0,
			"byteOffset": 0,
			"componentType": 5123,
			"count": 252,
			"max": [ 143 ],
			"min": [ 0 ],
			"type": "SCALAR"
		},
		{
			"bufferView": 0,
			"byteOffset": 504,
			"componentType": 5123,
			"count": 54,
			"max": [ 156 ],
			"min": [ 144 ],
			"type": "SCALAR"
		},
		{
			"bufferView": 2,
			"byteOffset": 3768,
			"componentType": 5126,
			"count": 63,
			"max": [ 7.033868, -6.916328, 1.048128E-06 ],
			"min": [ -3.516933, -8.422953, -6.091508 ],
			"type": "VEC3"
		},
		{
			"bufferView": 2,
			"byteOffset": 4524,
			"componentType": 5126,
			"count": 63,
			"max": [ 0.8660255, 0.9866385, 1 ],
			"min": [ -0.8660259, -0.9866381, -1 ],
			"type": "VEC3"
		},
		{
			"bufferView": 1,
			"byteOffset": 1256,
			"componentType": 5126,
			"count": 63,
			"max": [ 0.5753381, 0.843527 ],
			"min": [ 0.349324, 0.156027 ],
			"type": "VEC2"
		},
		{
			"bufferView": 3,
			"byteOffset": 2512,
			"componentType": 5126,
			"count": 63,
			"max": [ 1, 0.8867435, 0.8592138, 1 ],
			"min": [ -1, -0.2709565, -0.8660257, -1 ],
			"type": "VEC4"
		},
		{
			"bufferView": 0,
			"byteOffset": 612,
			"componentType": 5123,
			"count": 96,
			"max": [ 62 ],
			"min": [ 0 ],
			"type": "SCALAR"
		},
		{
			"bufferView": 2,
			"byteOffset": 5280,
			"componentType": 5126,
			"count": 88,
			"max": [ 7.033868, -11.17511, 6.091508 ],
			"min": [ -7.033868, -12.11648, 0 ],
			"type": "VEC3"
		},
		{
			"bufferView": 2,
			"byteOffset": 6336,
			"componentType": 5126,
			"count": 88,
			"max": [ 0.8660254, 0.9947194, 1 ],
			"min": [ -0.8660254, -0.9947195, -1 ],
			"type": "VEC3"
		},
		{
			"bufferView": 1,
			"byteOffset": 1760,
			"componentType": 5126,
			"count": 88,
			"max": [ 0.650676, 0.9740162 ],
			"min": [ 0.349324, 0.02553782 ],
			"type": "VEC2"
		},
		{
			"bufferView": 3,
			"byteOffset": 3520,
			"componentType": 5126,
			"count": 88,
			"max": [ 1, 0.5655676, 0.866026, 1 ],
			"min": [ -1, -0.7021403, -0.8660255, -1 ],
			"type": "VEC4"
		},
		{
			"bufferView": 0,
			"byteOffset": 804,
			"componentType": 5123,
			"count": 132,
			"max": [ 87 ],
			"min": [ 0 ],
			"type": "SCALAR"
		},
		{
			"bufferView": 2,
			"byteOffset": 7392,
			"componentType": 5126,
			"count": 40,
			"max": [ -3.224721, -14.92827, 6.091507 ],
			"min": [ -7.033868, -15.60393, 0 ],
			"type": "VEC3"
		},
		{
			"bufferView": 2,
			"byteOffset": 7872,
			"componentType": 5126,
			"count": 40,
			"max": [ 0.8660258, 0.9972692, 0.5000007 ],
			"min": [ -0.8660253, -0.9972692, -1 ],
			"type": "VEC3"
		},
		{
			"bufferView": 1,
			"byteOffset": 2464,
			"componentType": 5126,
			"count": 40,
			"max": [ 0.650676, 0.9740162 ],
			"min": [ 0.575338, 0.02553786 ],
			"type": "VEC2"
		},
		{
			"bufferView": 3,
			"byteOffset": 4928,
			"componentType": 5126,
			"count": 40,
			"max": [ 1, 0.01349917, 0.8660259, 1 ],
			"min": [ -0.5000001, -0.7238314, -0.8659685, -1 ],
			"type": "VEC4"
		},
		{
			"bufferView": 0,
			"byteOffset": 1068,
			"componentType": 5123,
			"count": 60,
			"max": [ 39 ],
			"min": [ 0 ],
			"type": "SCALAR"
		}
	],
	"buffers": [
		{
			"byteLength": 17892,
			"uri": "entity16938.bin"
		}
	],
	"bufferViews": [
		{
			"buffer": 0,
			"byteLength": 1188,
			"target": 34963,
			"byteOffset": 16704
		},
		{
			"buffer": 0,
			"byteLength": 2784,
			"target": 34962,
			"byteStride": 8,
			"byteOffset": 0
		},
		{
			"buffer": 0,
			"byteLength": 8352,
			"target": 34962,
			"byteStride": 12,
			"byteOffset": 2784
		},
		{
			"buffer": 0,
			"byteLength": 5568,
			"target": 34962,
			"byteStride": 16,
			"byteOffset": 11136
		}
	],
	"materials": [
		{
			"pbrMetallicRoughness": {
				"baseColorFactor": [1, 1, 1, 1],
				"metallicFactor": 0,
				"roughnessFactor": 0.5
			},
			"emissiveFactor": [0, 0, 0],
			"doubleSided": false,
			"name": "Default-Material"
		}
	],
	"meshes": [
		{
			"name": "mesh_Museum_Hex_Propeler_01_10020Museum_Hex_Propeler_01_Art",
			"primitives": [
				{
					"attributes": {
						"POSITION": 0,
						"NORMAL": 1,
						"TEXCOORD_0": 2,
						"TANGENT": 3
					},
					"indices": 4,
					"material": 0,
					"mode": 4
				},
				{
					"attributes": {
						"POSITION": 0,
						"NORMAL": 1,
						"TEXCOORD_0": 2,
						"TANGENT": 3
					},
					"indices": 5,
					"material": 0,
					"mode": 4
				}
			]
		},
		{
			"name": "mesh_Museum_Hex_Propeler_01_Gear_1_10022Museum_Hex_Propeler_01_Gear_1",
			"primitives": [
				{
					"attributes": {
						"POSITION": 6,
						"NORMAL": 7,
						"TEXCOORD_0": 8,
						"TANGENT": 9
					},
					"indices": 10,
					"material": 0,
					"mode": 4
				}
			]
		},
		{
			"name": "mesh_Museum_Hex_Propeler_01_Gear_2_10024Museum_Hex_Propeler_01_Gear_2",
			"primitives": [
				{
					"attributes": {
						"POSITION": 11,
						"NORMAL": 12,
						"TEXCOORD_0": 13,
						"TANGENT": 14
					},
					"indices": 15,
					"material": 0,
					"mode": 4
				}
			]
		},
		{
			"name": "mesh_Museum_Hex_Propeler_01_Gear_3_10026Museum_Hex_Propeler_01_Gear_3",
			"primitives": [
				{
					"attributes": {
						"POSITION": 16,
						"NORMAL": 17,
						"TEXCOORD_0": 18,
						"TANGENT": 19
					},
					"indices": 20,
					"material": 0,
					"mode": 4
				}
			]
		}
	],
	"nodes": [
		{
			"name": "UnityGlTF_root",
			"children": [
				1
			]
		},
		{
			"name": "node_Museum_Hex_Propeler_01_Art",
			"mesh": 0,
			"children": [
				2
			],
			"matrix": [1, 0, 0, 0, 0, 1, 0, 0, 0, 0, 1, 0, 0, 0, 0, 1]
		},
		{
			"name": "node_Museum_Hex_Propeler_01_Gear_1",
			"mesh": 1,
			"children": [
				3
			]
		},
		{
			"name": "node_Museum_Hex_Propeler_01_Gear_2",
			"mesh": 2,
			"children": [
				4
			]
		},
		{
			"name": "node_Museum_Hex_Propeler_01_Gear_3",
			"mesh": 3
		}
	],
	"scenes": [
		{
			"name":"defaultScene",
			"nodes": [
				0
			]
		}
	],
	"scene": 0
}