{
	"asset": {
		"generator": "Unity 2018.3.6f1",
		"extras": {
			"exporterVersion" : "2.2.1"
		},
		"version": "2.0"
	},
	"accessors": [
		{
			"bufferView": 1,
			"byteOffset": 0,
			"componentType": 5126,
			"count": 4354,
			"max": [ 24.68461, 92.12392, 17.74277 ],
			"min": [ -34.78846, -5.812971, -18.88668 ],
			"type": "VEC3"
		},
		{
			"bufferView": 1,
			"byteOffset": 52248,
			"componentType": 5126,
			"count": 4354,
			"max": [ 0.9999443, 0.9993356, 0.9996895 ],
			"min": [ -0.9999782, -0.9997697, -0.9983647 ],
			"type": "VEC3"
		},
		{
			"bufferView": 2,
			"byteOffset": 0,
			"componentType": 5126,
			"count": 4354,
			"max": [ 1, 0, 0, 1 ],
			"min": [ 1, 0, 0, 1 ],
			"type": "VEC4"
		},
		{
			"bufferView": 0,
			"byteOffset": 0,
			"componentType": 5123,
			"count": 4632,
			"max": [ 4353 ],
			"min": [ 0 ],
			"type": "SCALAR"
		}
	],
	"buffers": [
		{
			"byteLength": 183424,
			"uri": "entity10712n.bin"
		}
	],
	"bufferViews": [
		{
			"buffer": 0,
			"byteLength": 9264,
			"target": 34963,
			"byteOffset": 174160
		},
		{
			"buffer": 0,
			"byteLength": 104496,
			"target": 34962,
			"byteStride": 12,
			"byteOffset": 0
		},
		{
			"buffer": 0,
			"byteLength": 69664,
			"target": 34962,
			"byteStride": 16,
			"byteOffset": 104496
		}
	],
	"materials": [
		{
			"pbrMetallicRoughness": {
				"baseColorFactor": [1, 1, 1, 1],
				"metallicFactor": 0,
				"roughnessFactor": 0.5
			},
			"emissiveFactor": [0, 0, 0],
			"doubleSided": false,
			"name": "Default-Material"
		}
	],
	"meshes": [
		{
			"name": "mesh_Museum_Tree_01_14146Museum_Tree_01_Art",
			"primitives": [
				{
					"attributes": {
						"POSITION": 0,
						"NORMAL": 1,
						"TANGENT": 2
					},
					"indices": 3,
					"material": 0,
					"mode": 4
				}
			]
		}
	],
	"nodes": [
		{
			"name": "UnityGlTF_root",
			"children": [
				1
			]
		},
		{
			"name": "node_Museum_Tree_01_Art",
			"mesh": 0,
			"matrix": [1, 0, 0, 0, 0, 1, 0, 0, 0, 0, 1, 0, 0, 0, 0, 1]
		}
	],
	"scenes": [
		{
			"name":"defaultScene",
			"nodes": [
				0
			]
		}
	],
	"scene": 0
}