{
	"asset": {
		"generator": "Unity 2018.3.6f1",
		"extras": {
			"exporterVersion" : "2.2.1"
		},
		"version": "2.0"
	},
	"accessors": [
		{
			"bufferView": 2,
			"byteOffset": 0,
			"componentType": 5126,
			"count": 408,
			"max": [ 4.643297, 6.006278, 1.465299 ],
			"min": [ 3.109625, 5.843696, -0.2667522 ],
			"type": "VEC3"
		},
		{
			"bufferView": 2,
			"byteOffset": 4896,
			"componentType": 5126,
			"count": 408,
			"max": [ 0.8975962, 1, 1 ],
			"min": [ -0.8899671, -1, -1 ],
			"type": "VEC3"
		},
		{
			"bufferView": 1,
			"byteOffset": 0,
			"componentType": 5126,
			"count": 408,
			"max": [ 1, 1 ],
			"min": [ 0, -3.352761E-08 ],
			"type": "VEC2"
		},
		{
			"bufferView": 3,
			"byteOffset": 0,
			"componentType": 5126,
			"count": 408,
			"max": [ 1, 1, 1, 1 ],
			"min": [ -1, -1, -0.4846423, -1 ],
			"type": "VEC4"
		},
		{
			"bufferView": 0,
			"byteOffset": 0,
			"componentType": 5123,
			"count": 192,
			"max": [ 112 ],
			"min": [ 0 ],
			"type": "SCALAR"
		},
		{
			"bufferView": 0,
			"byteOffset": 384,
			"componentType": 5123,
			"count": 492,
			"max": [ 346 ],
			"min": [ 113 ],
			"type": "SCALAR"
		},
		{
			"bufferView": 0,
			"byteOffset": 1368,
			"componentType": 5123,
			"count": 264,
			"max": [ 407 ],
			"min": [ 6 ],
			"type": "SCALAR"
		}
	],
	"buffers": [
		{
			"byteLength": 21480,
			"uri": "entity11306.bin"
		}
	],
	"bufferViews": [
		{
			"buffer": 0,
			"byteLength": 1896,
			"target": 34963,
			"byteOffset": 19584
		},
		{
			"buffer": 0,
			"byteLength": 3264,
			"target": 34962,
			"byteStride": 8,
			"byteOffset": 0
		},
		{
			"buffer": 0,
			"byteLength": 9792,
			"target": 34962,
			"byteStride": 12,
			"byteOffset": 3264
		},
		{
			"buffer": 0,
			"byteLength": 6528,
			"target": 34962,
			"byteStride": 16,
			"byteOffset": 13056
		}
	],
	"materials": [
		{
			"pbrMetallicRoughness": {
				"baseColorFactor": [1, 0.6179246, 0.6179246, 0.5176471],
				"metallicFactor": 0,
				"roughnessFactor": 1
			},
			"alphaMode": "BLEND",
			"alphaCutoff": 0.5,
			"emissiveFactor": [0, 0, 0],
			"doubleSided": false,
			"name": "Trans_mat"
		}
	],
	"meshes": [
		{
			"name": "mesh_museum_building_02_020_10850museum_building_02_020",
			"primitives": [
				{
					"attributes": {
						"POSITION": 0,
						"NORMAL": 1,
						"TEXCOORD_0": 2,
						"TANGENT": 3
					},
					"indices": 4,
					"material": 0,
					"mode": 4
				},
				{
					"attributes": {
						"POSITION": 0,
						"NORMAL": 1,
						"TEXCOORD_0": 2,
						"TANGENT": 3
					},
					"indices": 5,
					"material": 0,
					"mode": 4
				},
				{
					"attributes": {
						"POSITION": 0,
						"NORMAL": 1,
						"TEXCOORD_0": 2,
						"TANGENT": 3
					},
					"indices": 6,
					"material": 0,
					"mode": 4
				}
			]
		}
	],
	"nodes": [
		{
			"name": "UnityGlTF_root",
			"children": [
				1
			]
		},
		{
			"name": "node_museum_building_02_020",
			"mesh": 0,
			"matrix": [1, 0, 0, 0, 0, 1, 0, 0, 0, 0, 1, 0, 0, 0, 0, 1]
		}
	],
	"scenes": [
		{
			"name":"defaultScene",
			"nodes": [
				0
			]
		}
	],
	"scene": 0
}