{
	"asset": {
		"generator": "Unity 2018.3.6f1",
		"extras": {
			"exporterVersion" : "2.2.1"
		},
		"version": "2.0"
	},
	"accessors": [
		{
			"bufferView": 2,
			"byteOffset": 0,
			"componentType": 5126,
			"count": 157,
			"max": [ 7.033868, 1.525879E-06, 6.091508 ],
			"min": [ -7.033868, -4.932536, -6.091508 ],
			"type": "VEC3"
		},
		{
			"bufferView": 2,
			"byteOffset": 1884,
			"componentType": 5126,
			"count": 157,
			"max": [ 0.8660255, 0.989198, 1 ],
			"min": [ -0.8660255, -1, -1 ],
			"type": "VEC3"
		},
		{
			"bufferView": 1,
			"byteOffset": 0,
			"componentType": 5126,
			"count": 157,
			"max": [ 0.650676, 0.9740162 ],
			"min": [ 0.349324, 0.02553782 ],
			"type": "VEC2"
		},
		{
			"bufferView": 3,
			"byteOffset": 0,
			"componentType": 5126,
			"count": 157,
			"max": [ 1, 0.4542381, 0.8660256, 1 ],
			"min": [ -1, -0.4542383, -0.8660256, -1 ],
			"type": "VEC4"
		},
		{
			"bufferView": 0,
			"byteOffset": 0,
			"componentType": 5123,
			"count": 252,
			"max": [ 143 ],
			"min": [ 0 ],
			"type": "SCALAR"
		},
		{
			"bufferView": 0,
			"byteOffset": 504,
			"componentType": 5123,
			"count": 54,
			"max": [ 156 ],
			"min": [ 144 ],
			"type": "SCALAR"
		},
		{
			"bufferView": 2,
			"byteOffset": 3768,
			"componentType": 5126,
			"count": 40,
			"max": [ -3.224721, -10.73113, 6.091507 ],
			"min": [ -7.033868, -11.40679, 0 ],
			"type": "VEC3"
		},
		{
			"bufferView": 2,
			"byteOffset": 4248,
			"componentType": 5126,
			"count": 40,
			"max": [ 0.866026, 0.9972697, 0.5000015 ],
			"min": [ -0.8660256, -0.9972696, -1 ],
			"type": "VEC3"
		},
		{
			"bufferView": 1,
			"byteOffset": 1256,
			"componentType": 5126,
			"count": 40,
			"max": [ 0.650676, 0.9740162 ],
			"min": [ 0.575338, 0.02553786 ],
			"type": "VEC2"
		},
		{
			"bufferView": 3,
			"byteOffset": 2512,
			"componentType": 5126,
			"count": 40,
			"max": [ 1, 0.01349919, 0.8660259, 1 ],
			"min": [ -0.4999991, -0.7238306, -0.8659682, -1 ],
			"type": "VEC4"
		},
		{
			"bufferView": 0,
			"byteOffset": 612,
			"componentType": 5123,
			"count": 60,
			"max": [ 39 ],
			"min": [ 0 ],
			"type": "SCALAR"
		}
	],
	"buffers": [
		{
			"byteLength": 10188,
			"uri": "entity18732.bin"
		}
	],
	"bufferViews": [
		{
			"buffer": 0,
			"byteLength": 732,
			"target": 34963,
			"byteOffset": 9456
		},
		{
			"buffer": 0,
			"byteLength": 1576,
			"target": 34962,
			"byteStride": 8,
			"byteOffset": 0
		},
		{
			"buffer": 0,
			"byteLength": 4728,
			"target": 34962,
			"byteStride": 12,
			"byteOffset": 1576
		},
		{
			"buffer": 0,
			"byteLength": 3152,
			"target": 34962,
			"byteStride": 16,
			"byteOffset": 6304
		}
	],
	"materials": [
		{
			"pbrMetallicRoughness": {
				"baseColorFactor": [1, 1, 1, 1],
				"metallicFactor": 0,
				"roughnessFactor": 0.5
			},
			"emissiveFactor": [0, 0, 0],
			"doubleSided": false,
			"name": "Default-Material"
		}
	],
	"meshes": [
		{
			"name": "mesh_Museum_Hex_Propeler_03_10964Museum_Hex_Propeler_03_Art",
			"primitives": [
				{
					"attributes": {
						"POSITION": 0,
						"NORMAL": 1,
						"TEXCOORD_0": 2,
						"TANGENT": 3
					},
					"indices": 4,
					"material": 0,
					"mode": 4
				},
				{
					"attributes": {
						"POSITION": 0,
						"NORMAL": 1,
						"TEXCOORD_0": 2,
						"TANGENT": 3
					},
					"indices": 5,
					"material": 0,
					"mode": 4
				}
			]
		},
		{
			"name": "mesh_Museum_Hex_Propeler_03_Gear_1_10966Museum_Hex_Propeler_03_Gear_1",
			"primitives": [
				{
					"attributes": {
						"POSITION": 6,
						"NORMAL": 7,
						"TEXCOORD_0": 8,
						"TANGENT": 9
					},
					"indices": 10,
					"material": 0,
					"mode": 4
				}
			]
		}
	],
	"nodes": [
		{
			"name": "UnityGlTF_root",
			"children": [
				1
			]
		},
		{
			"name": "node_Museum_Hex_Propeler_03_Art",
			"mesh": 0,
			"children": [
				2
			],
			"matrix": [1, 0, 0, 0, 0, 1, 0, 0, 0, 0, 1, 0, 0, 0, 0, 1]
		},
		{
			"name": "node_Museum_Hex_Propeler_03_Gear_1",
			"mesh": 1,
			"translation": [ 0, 3.640971, 0]
		}
	],
	"scenes": [
		{
			"name":"defaultScene",
			"nodes": [
				0
			]
		}
	],
	"scene": 0
}