{
	"asset": {
		"generator": "Unity 2018.3.6f1",
		"extras": {
			"exporterVersion" : "2.2.1"
		},
		"version": "2.0"
	},
	"accessors": [
		{
			"bufferView": 2,
			"byteOffset": 0,
			"componentType": 5126,
			"count": 186,
			"max": [ 47.5, 0.5, 41.13621 ],
			"min": [ -47.5, 1.907349E-07, -41.13621 ],
			"type": "VEC3"
		},
		{
			"bufferView": 2,
			"byteOffset": 2232,
			"componentType": 5126,
			"count": 186,
			"max": [ 0.8660255, 1, 1 ],
			"min": [ -0.8660255, 0, -1 ],
			"type": "VEC3"
		},
		{
			"bufferView": 1,
			"byteOffset": 0,
			"componentType": 5126,
			"count": 186,
			"max": [ 2.272865, 1.7279 ],
			"min": [ 0, -1.192093E-07 ],
			"type": "VEC2"
		},
		{
			"bufferView": 3,
			"byteOffset": 0,
			"componentType": 5126,
			"count": 186,
			"max": [ 1, 0, 0.8660255, 1 ],
			"min": [ -1, 0, -0.8660255, -1 ],
			"type": "VEC4"
		},
		{
			"bufferView": 0,
			"byteOffset": 0,
			"componentType": 5123,
			"count": 252,
			"max": [ 131 ],
			"min": [ 0 ],
			"type": "SCALAR"
		},
		{
			"bufferView": 0,
			"byteOffset": 504,
			"componentType": 5123,
			"count": 90,
			"max": [ 185 ],
			"min": [ 132 ],
			"type": "SCALAR"
		},
		{
			"bufferView": 2,
			"byteOffset": 4464,
			"componentType": 5126,
			"count": 38,
			"max": [ 47.57735, 0.4757735, 41.2032 ],
			"min": [ -47.57735, -0.4757735, -41.20319 ],
			"type": "VEC3"
		},
		{
			"bufferView": 2,
			"byteOffset": 4920,
			"componentType": 5126,
			"count": 38,
			"max": [ 0.8660255, 1, 1 ],
			"min": [ -0.8660255, -1, -1 ],
			"type": "VEC3"
		},
		{
			"bufferView": 1,
			"byteOffset": 1488,
			"componentType": 5126,
			"count": 38,
			"max": [ 0.65625, 0.9790665 ],
			"min": [ 0.34375, 0.02093351 ],
			"type": "VEC2"
		},
		{
			"bufferView": 3,
			"byteOffset": 2976,
			"componentType": 5126,
			"count": 38,
			"max": [ 1, 0, 0.8660255, 1 ],
			"min": [ -1, 0, -0.8660255, 1 ],
			"type": "VEC4"
		},
		{
			"bufferView": 0,
			"byteOffset": 684,
			"componentType": 5123,
			"count": 72,
			"max": [ 37 ],
			"min": [ 0 ],
			"type": "SCALAR"
		}
	],
	"buffers": [
		{
			"byteLength": 11580,
			"uri": "entity23564n.bin"
		}
	],
	"bufferViews": [
		{
			"buffer": 0,
			"byteLength": 828,
			"target": 34963,
			"byteOffset": 10752
		},
		{
			"buffer": 0,
			"byteLength": 1792,
			"target": 34962,
			"byteStride": 8,
			"byteOffset": 0
		},
		{
			"buffer": 0,
			"byteLength": 5376,
			"target": 34962,
			"byteStride": 12,
			"byteOffset": 1792
		},
		{
			"buffer": 0,
			"byteLength": 3584,
			"target": 34962,
			"byteStride": 16,
			"byteOffset": 7168
		}
	],
	"images": [
		{
			"uri": "Assets/Visuals/Materials/Textures/Tileset_Metal_01_Albedo.jpg"
		},
		{
			"uri": "Assets/Visuals/Materials/Textures/Tileset_Metal_01_Metallic_converted_metalRoughness.jpg"
		},
		{
			"uri": "Assets/Visuals/Materials/Textures/Tileset_Metal_01_Normal.jpg"
		},
		{
			"uri": "Assets/Visuals/Materials/Textures/Tileset_Metal_02_Albedo.jpg"
		},
		{
			"uri": "Assets/Visuals/Materials/Textures/Tileset_Metal_02_Metallic_converted_metalRoughness.jpg"
		},
		{
			"uri": "Assets/Visuals/Materials/Textures/Tileset_Metal_02_Normal.jpg"
		}
	],
	"materials": [
		{
			"pbrMetallicRoughness": {
				"baseColorTexture" : {
					"index" : 0,
					"texCoord" : 0
				},
				"baseColorFactor": [1, 1, 1, 1],
				"metallicRoughnessTexture" : {
					"index" : 1,
					"texCoord" : 0
				},
				"metallicFactor": 1,
				"roughnessFactor": 1
			},
			"normalTexture" : {
				"index" : 2,
				"texCoord" : 0,
				"scale" : 1
			},
			"emissiveFactor": [0, 0, 0],
			"doubleSided": false,
			"name": "Tileset_Metal_01_Mat"
		},
		{
			"pbrMetallicRoughness": {
				"baseColorTexture" : {
					"index" : 3,
					"texCoord" : 0
				},
				"baseColorFactor": [1, 1, 1, 1],
				"metallicRoughnessTexture" : {
					"index" : 4,
					"texCoord" : 0
				},
				"metallicFactor": 1,
				"roughnessFactor": 1
			},
			"normalTexture" : {
				"index" : 5,
				"texCoord" : 0,
				"scale" : 1
			},
			"emissiveFactor": [0, 0, 0],
			"doubleSided": false,
			"name": "Tileset_Metal_02_Mat"
		},
		{
			"pbrMetallicRoughness": {
				"baseColorFactor": [0.2036906, 1, 0, 1],
				"metallicFactor": 0,
				"roughnessFactor": 0.5
			},
			"emissiveFactor": [0, 0, 0],
			"doubleSided": false,
			"name": "Collider_Mat"
		}
	],
	"meshes": [
		{
			"name": "mesh_Museum_Hex_Base_37406Museum_Hex_Base",
			"primitives": [
				{
					"attributes": {
						"POSITION": 0,
						"NORMAL": 1,
						"TEXCOORD_0": 2,
						"TANGENT": 3
					},
					"indices": 4,
					"material": 0,
					"mode": 4
				},
				{
					"attributes": {
						"POSITION": 0,
						"NORMAL": 1,
						"TEXCOORD_0": 2,
						"TANGENT": 3
					},
					"indices": 5,
					"material": 1,
					"mode": 4
				}
			]
		},
		{
			"name": "mesh_Museum_Hex_Base_Collider_37418Museum_Hex_Base_Collider",
			"primitives": [
				{
					"attributes": {
						"POSITION": 6,
						"NORMAL": 7,
						"TEXCOORD_0": 8,
						"TANGENT": 9
					},
					"indices": 10,
					"material": 2,
					"mode": 4
				}
			]
		}
	],
	"nodes": [
		{
			"name": "UnityGlTF_root",
			"children": [
				1
			]
		},
		{
			"name": "node_Museum_Hex_Base",
			"mesh": 0,
			"children": [
				2
			],
			"matrix": [1, 0, 0, 0, 0, 1, 0, 0, 0, 0, 1, 0, 0, 0, 0, 1]
		},
		{
			"name": "node_Museum_Hex_Base_Collider",
			"mesh": 1
		}
	],
	"samplers": [
		{
			"magFilter": 9729,
			"minFilter": 9985,
			"wrapS": 10497,
			"wrapT": 10497
		}
	],
	"scenes": [
		{
			"name":"defaultScene",
			"nodes": [
				0
			]
		}
	],
	"scene": 0,
	"textures": [
		{
			"sampler": 0,
			"source": 0
		},
		{
			"sampler": 0,
			"source": 1
		},
		{
			"sampler": 0,
			"source": 2
		},
		{
			"sampler": 0,
			"source": 3
		},
		{
			"sampler": 0,
			"source": 4
		},
		{
			"sampler": 0,
			"source": 5
		}
	]
}