{
	"asset": {
		"generator": "Unity 2018.3.6f1",
		"extras": {
			"exporterVersion" : "2.2.1"
		},
		"version": "2.0"
	},
	"accessors": [
		{
			"bufferView": 2,
			"byteOffset": 0,
			"componentType": 5126,
			"count": 88,
			"max": [ 7.643851, 0.8693411, 5.640357 ],
			"min": [ 4.126619, 0.325062, 1.054251 ],
			"type": "VEC3"
		},
		{
			"bufferView": 2,
			"byteOffset": 1056,
			"componentType": 5126,
			"count": 88,
			"max": [ 0.8547397, 1, 0.9466593 ],
			"min": [ -0.982346, -1, -0.8660254 ],
			"type": "VEC3"
		},
		{
			"bufferView": 1,
			"byteOffset": 0,
			"componentType": 5126,
			"count": 88,
			"max": [ 1.696729, 3.007624 ],
			"min": [ -2.102053, -1.629513 ],
			"type": "VEC2"
		},
		{
			"bufferView": 3,
			"byteOffset": 0,
			"componentType": 5126,
			"count": 88,
			"max": [ 0.8935528, 0.9996403, 0.8727303, 1 ],
			"min": [ -0.934542, -0.9996382, -0.8757712, -1 ],
			"type": "VEC4"
		},
		{
			"bufferView": 0,
			"byteOffset": 0,
			"componentType": 5123,
			"count": 138,
			"max": [ 87 ],
			"min": [ 0 ],
			"type": "SCALAR"
		},
		{
			"bufferView": 2,
			"byteOffset": 2112,
			"componentType": 5126,
			"count": 24,
			"max": [ 7.724479, 1.086649, 5.687682 ],
			"min": [ 4.051841, 0.242447, 0.926488 ],
			"type": "VEC3"
		},
		{
			"bufferView": 2,
			"byteOffset": 2400,
			"componentType": 5126,
			"count": 24,
			"max": [ 0.8660254, 0.9953384, 0.9473121 ],
			"min": [ -0.8660254, -0.9953384, -0.7510543 ],
			"type": "VEC3"
		},
		{
			"bufferView": 1,
			"byteOffset": 704,
			"componentType": 5126,
			"count": 24,
			"max": [ 0.875, 1 ],
			"min": [ 0.125, 0 ],
			"type": "VEC2"
		},
		{
			"bufferView": 3,
			"byteOffset": 1408,
			"componentType": 5126,
			"count": 24,
			"max": [ 0.919447, 0.4092758, 0.3108901, 1 ],
			"min": [ -0.7289622, -0.4064351, -0.8660255, 1 ],
			"type": "VEC4"
		},
		{
			"bufferView": 0,
			"byteOffset": 276,
			"componentType": 5123,
			"count": 36,
			"max": [ 23 ],
			"min": [ 0 ],
			"type": "SCALAR"
		}
	],
	"buffers": [
		{
			"byteLength": 5724,
			"uri": "entity9252n.bin"
		}
	],
	"bufferViews": [
		{
			"buffer": 0,
			"byteLength": 348,
			"target": 34963,
			"byteOffset": 5376
		},
		{
			"buffer": 0,
			"byteLength": 896,
			"target": 34962,
			"byteStride": 8,
			"byteOffset": 0
		},
		{
			"buffer": 0,
			"byteLength": 2688,
			"target": 34962,
			"byteStride": 12,
			"byteOffset": 896
		},
		{
			"buffer": 0,
			"byteLength": 1792,
			"target": 34962,
			"byteStride": 16,
			"byteOffset": 3584
		}
	],
	"images": [
		{
			"uri": "Assets/Visuals/Materials/Textures/Tileset_Metal_03_Albedo.jpg"
		},
		{
			"uri": "Assets/Visuals/Materials/Textures/Tileset_Metal_03_Metallic_converted_metalRoughness.jpg"
		},
		{
			"uri": "Assets/Visuals/Materials/Textures/Tileset_Metal_03_Normal.jpg"
		}
	],
	"materials": [
		{
			"pbrMetallicRoughness": {
				"baseColorTexture" : {
					"index" : 0,
					"texCoord" : 0
				},
				"baseColorFactor": [1, 1, 1, 1],
				"metallicRoughnessTexture" : {
					"index" : 1,
					"texCoord" : 0
				},
				"metallicFactor": 1,
				"roughnessFactor": 1
			},
			"normalTexture" : {
				"index" : 2,
				"texCoord" : 0,
				"scale" : 1
			},
			"emissiveFactor": [0, 0, 0],
			"doubleSided": false,
			"name": "Tileset_Metal_03_Mat"
		},
		{
			"pbrMetallicRoughness": {
				"baseColorFactor": [0.2036906, 1, 0, 1],
				"metallicFactor": 0,
				"roughnessFactor": 0.5
			},
			"emissiveFactor": [0, 0, 0],
			"doubleSided": false,
			"name": "Collider_Mat"
		}
	],
	"meshes": [
		{
			"name": "mesh_Museum_Hex_Floor_Ramp_11302Museum_Hex_Floor_Ramp_Art",
			"primitives": [
				{
					"attributes": {
						"POSITION": 0,
						"NORMAL": 1,
						"TEXCOORD_0": 2,
						"TANGENT": 3
					},
					"indices": 4,
					"material": 0,
					"mode": 4
				}
			]
		},
		{
			"name": "mesh_Museum_Hex_Floor_Ramp_Collider_11304Museum_Hex_Floor_Ramp_Collider",
			"primitives": [
				{
					"attributes": {
						"POSITION": 5,
						"NORMAL": 6,
						"TEXCOORD_0": 7,
						"TANGENT": 8
					},
					"indices": 9,
					"material": 1,
					"mode": 4
				}
			]
		}
	],
	"nodes": [
		{
			"name": "UnityGlTF_root",
			"children": [
				1
			]
		},
		{
			"name": "node_Museum_Hex_Floor_Ramp_Art",
			"mesh": 0,
			"children": [
				2
			],
			"matrix": [1, 0, 0, 0, 0, 1, 0, 0, 0, 0, 1, 0, 0, 0, 0, 1]
		},
		{
			"name": "node_Museum_Hex_Floor_Ramp_Collider",
			"mesh": 1
		}
	],
	"samplers": [
		{
			"magFilter": 9729,
			"minFilter": 9985,
			"wrapS": 10497,
			"wrapT": 10497
		}
	],
	"scenes": [
		{
			"name":"defaultScene",
			"nodes": [
				0
			]
		}
	],
	"scene": 0,
	"textures": [
		{
			"sampler": 0,
			"source": 0
		},
		{
			"sampler": 0,
			"source": 1
		},
		{
			"sampler": 0,
			"source": 2
		}
	]
}