{
	"asset": {
		"generator": "Unity 2018.3.6f1",
		"extras": {
			"exporterVersion" : "2.2.1"
		},
		"version": "2.0"
	},
	"accessors": [
		{
			"bufferView": 2,
			"byteOffset": 0,
			"componentType": 5126,
			"count": 156,
			"max": [ -16.01091, 31.6184, 12.97707 ],
			"min": [ -25.95414, 30.45864, 2.441406E-06 ],
			"type": "VEC3"
		},
		{
			"bufferView": 2,
			"byteOffset": 1872,
			"componentType": 5126,
			"count": 156,
			"max": [ 0.9659265, 1, 0.988008 ],
			"min": [ -0.9659261, -1, -0.9328389 ],
			"type": "VEC3"
		},
		{
			"bufferView": 1,
			"byteOffset": 0,
			"componentType": 5126,
			"count": 156,
			"max": [ 1.844881, 0.9998995 ],
			"min": [ 1.844881, 0.401612 ],
			"type": "VEC2"
		},
		{
			"bufferView": 3,
			"byteOffset": 0,
			"componentType": 5126,
			"count": 156,
			"max": [ 1, 0, 0, 1 ],
			"min": [ 1, 0, 0, 1 ],
			"type": "VEC4"
		},
		{
			"bufferView": 0,
			"byteOffset": 0,
			"componentType": 5123,
			"count": 252,
			"max": [ 155 ],
			"min": [ 0 ],
			"type": "SCALAR"
		}
	],
	"buffers": [
		{
			"byteLength": 7992,
			"uri": "entity19282n.bin"
		}
	],
	"bufferViews": [
		{
			"buffer": 0,
			"byteLength": 504,
			"target": 34963,
			"byteOffset": 7488
		},
		{
			"buffer": 0,
			"byteLength": 1248,
			"target": 34962,
			"byteStride": 8,
			"byteOffset": 0
		},
		{
			"buffer": 0,
			"byteLength": 3744,
			"target": 34962,
			"byteStride": 12,
			"byteOffset": 1248
		},
		{
			"buffer": 0,
			"byteLength": 2496,
			"target": 34962,
			"byteStride": 16,
			"byteOffset": 4992
		}
	],
	"materials": [
		{
			"pbrMetallicRoughness": {
				"baseColorFactor": [1, 1, 1, 1],
				"metallicFactor": 0,
				"roughnessFactor": 0.5
			},
			"emissiveFactor": [0, 0, 0],
			"doubleSided": false,
			"name": "Default-Material"
		}
	],
	"meshes": [
		{
			"name": "mesh_Museum_Hex_Base22_15946Museum_Hex_Base22",
			"primitives": [
				{
					"attributes": {
						"POSITION": 0,
						"NORMAL": 1,
						"TEXCOORD_0": 2,
						"TANGENT": 3
					},
					"indices": 4,
					"material": 0,
					"mode": 4
				}
			]
		}
	],
	"nodes": [
		{
			"name": "UnityGlTF_root",
			"children": [
				1
			]
		},
		{
			"name": "node_Museum_Hex_Base22",
			"mesh": 0,
			"matrix": [1, 0, 0, 0, 0, 1, 0, 0, 0, 0, 1, 0, 0, 0, 0, 1]
		}
	],
	"scenes": [
		{
			"name":"defaultScene",
			"nodes": [
				0
			]
		}
	],
	"scene": 0
}