{
	"asset": {
		"generator": "Unity 2018.3.6f1",
		"extras": {
			"exporterVersion" : "2.2.1"
		},
		"version": "2.0"
	},
	"accessors": [
		{
			"bufferView": 2,
			"byteOffset": 0,
			"componentType": 5126,
			"count": 536,
			"max": [ 0.1396809, 3.060294, 0.5395402 ],
			"min": [ 0.04725476, 1.899968, -0.5395402 ],
			"type": "VEC3"
		},
		{
			"bufferView": 2,
			"byteOffset": 6432,
			"componentType": 5126,
			"count": 536,
			"max": [ 1, 1, 1 ],
			"min": [ -1, -1, -1 ],
			"type": "VEC3"
		},
		{
			"bufferView": 1,
			"byteOffset": 0,
			"componentType": 5126,
			"count": 536,
			"max": [ 1.263212, 2.157839 ],
			"min": [ -1.184917, -0.00223989 ],
			"type": "VEC2"
		},
		{
			"bufferView": 3,
			"byteOffset": 0,
			"componentType": 5126,
			"count": 536,
			"max": [ 0.9989253, 1, 1, 1 ],
			"min": [ -1, -1, -1, -1 ],
			"type": "VEC4"
		},
		{
			"bufferView": 0,
			"byteOffset": 0,
			"componentType": 5123,
			"count": 582,
			"max": [ 343 ],
			"min": [ 0 ],
			"type": "SCALAR"
		},
		{
			"bufferView": 0,
			"byteOffset": 1164,
			"componentType": 5123,
			"count": 348,
			"max": [ 503 ],
			"min": [ 344 ],
			"type": "SCALAR"
		},
		{
			"bufferView": 0,
			"byteOffset": 1860,
			"componentType": 5123,
			"count": 48,
			"max": [ 535 ],
			"min": [ 504 ],
			"type": "SCALAR"
		},
		{
			"bufferView": 2,
			"byteOffset": 12864,
			"componentType": 5126,
			"count": 240,
			"max": [ 0.5801904, 0.1391595, 0.510664 ],
			"min": [ -0.5801855, -0.001339416, -0.5110645 ],
			"type": "VEC3"
		},
		{
			"bufferView": 2,
			"byteOffset": 15744,
			"componentType": 5126,
			"count": 240,
			"max": [ 0.8799063, 0.9999971, 0.9999964 ],
			"min": [ -1, -0.9999964, -0.9995921 ],
			"type": "VEC3"
		},
		{
			"bufferView": 1,
			"byteOffset": 4288,
			"componentType": 5126,
			"count": 240,
			"max": [ 1.709227, 1.277208 ],
			"min": [ -1.14484, 0.001992064 ],
			"type": "VEC2"
		},
		{
			"bufferView": 3,
			"byteOffset": 8576,
			"componentType": 5126,
			"count": 240,
			"max": [ 1, 0.2553741, 0.9999971, 1 ],
			"min": [ -1, -0.2523012, -0.9999964, 1 ],
			"type": "VEC4"
		},
		{
			"bufferView": 0,
			"byteOffset": 1956,
			"componentType": 5123,
			"count": 18,
			"max": [ 6 ],
			"min": [ 0 ],
			"type": "SCALAR"
		},
		{
			"bufferView": 0,
			"byteOffset": 1992,
			"componentType": 5123,
			"count": 360,
			"max": [ 178 ],
			"min": [ 7 ],
			"type": "SCALAR"
		},
		{
			"bufferView": 0,
			"byteOffset": 2712,
			"componentType": 5123,
			"count": 162,
			"max": [ 239 ],
			"min": [ 179 ],
			"type": "SCALAR"
		}
	],
	"buffers": [
		{
			"byteLength": 40284,
			"uri": "entity6746.bin"
		}
	],
	"bufferViews": [
		{
			"buffer": 0,
			"byteLength": 3036,
			"target": 34963,
			"byteOffset": 37248
		},
		{
			"buffer": 0,
			"byteLength": 6208,
			"target": 34962,
			"byteStride": 8,
			"byteOffset": 0
		},
		{
			"buffer": 0,
			"byteLength": 18624,
			"target": 34962,
			"byteStride": 12,
			"byteOffset": 6208
		},
		{
			"buffer": 0,
			"byteLength": 12416,
			"target": 34962,
			"byteStride": 16,
			"byteOffset": 24832
		}
	],
	"images": [
		{
			"uri": "Assets/Visuals/Materials/Textures/Tileset_Metal_02_Albedo.jpg"
		},
		{
			"uri": "Assets/Visuals/Materials/Textures/Tileset_Metal_02_Metallic_converted_metalRoughness.jpg"
		},
		{
			"uri": "Assets/Visuals/Materials/Textures/Tileset_Metal_02_Normal.jpg"
		},
		{
			"uri": "Assets/Visuals/Materials/Textures/Tileset_Metal_02_Emissive.jpg"
		},
		{
			"uri": "Assets/Visuals/Materials/Textures/Tileset_Metal_02_Metallic.jpg"
		},
		{
			"uri": "Assets/Visuals/Materials/Textures/Tileset_Metal_03_Albedo.jpg"
		},
		{
			"uri": "Assets/Visuals/Materials/Textures/Tileset_Metal_03_Metallic_converted_metalRoughness.jpg"
		},
		{
			"uri": "Assets/Visuals/Materials/Textures/Tileset_Metal_03_Normal.jpg"
		},
		{
			"uri": "Assets/Visuals/Materials/Textures/Tileset_Transparencies_01_Albedo.png"
		}
	],
	"materials": [
		{
			"pbrMetallicRoughness": {
				"baseColorTexture" : {
					"index" : 0,
					"texCoord" : 0
				},
				"baseColorFactor": [1, 1, 1, 1],
				"metallicRoughnessTexture" : {
					"index" : 1,
					"texCoord" : 0
				},
				"metallicFactor": 1,
				"roughnessFactor": 1
			},
			"normalTexture" : {
				"index" : 2,
				"texCoord" : 0,
				"scale" : 1
			},
			"emissiveTexture" : {
				"index" : 3,
				"texCoord" : 0
			},
			"emissiveFactor": [0.5, 0.5, 0.5],
			"occlusionTexture" : {
				"index" : 4,
				"texCoord" : 0,
				"strength" : 1
			},
			"doubleSided": false,
			"name": "Tileset_Metal_02_Mat"
		},
		{
			"pbrMetallicRoughness": {
				"baseColorTexture" : {
					"index" : 5,
					"texCoord" : 0
				},
				"baseColorFactor": [1, 1, 1, 1],
				"metallicRoughnessTexture" : {
					"index" : 6,
					"texCoord" : 0
				},
				"metallicFactor": 1,
				"roughnessFactor": 1
			},
			"normalTexture" : {
				"index" : 7,
				"texCoord" : 0,
				"scale" : 1
			},
			"emissiveFactor": [0, 0, 0],
			"doubleSided": false,
			"name": "Tileset_Metal_03_Mat"
		},
		{
			"pbrMetallicRoughness": {
				"baseColorTexture" : {
					"index" : 8,
					"texCoord" : 0
				},
				"baseColorFactor": [1, 1, 1, 1],
				"metallicFactor": 0,
				"roughnessFactor": 0.5
			},
			"alphaMode": "BLEND",
			"alphaCutoff": 0.5,
			"emissiveTexture" : {
				"index" : 8,
				"texCoord" : 0
			},
			"emissiveFactor": [0.3867925, 0.3867925, 0.3867925],
			"doubleSided": false,
			"name": "Tileset_Transparencies_01_Mat"
		},
		{
			"pbrMetallicRoughness": {
				"baseColorFactor": [0.2075472, 0.2075472, 0.2075472, 0.4],
				"metallicFactor": 0,
				"roughnessFactor": 0.2
			},
			"alphaMode": "BLEND",
			"alphaCutoff": 0.5,
			"emissiveFactor": [0, 0, 0],
			"doubleSided": false,
			"name": "Glass_Windowed_Mat"
		},
		{
			"pbrMetallicRoughness": {
				"baseColorFactor": [1, 0.4039216, 0.4941177, 1],
				"metallicFactor": 0,
				"roughnessFactor": 0.5
			},
			"emissiveFactor": [1, 0.1356334, 0.2086369],
			"doubleSided": false,
			"name": "Tileset_Emissive_02_Mat"
		}
	],
	"meshes": [
		{
			"name": "mesh_Museum_Deco_InfoScreen_01_4080Museum_Deco_InfoScreen_01_Art",
			"primitives": [
				{
					"attributes": {
						"POSITION": 0,
						"NORMAL": 1,
						"TEXCOORD_0": 2,
						"TANGENT": 3
					},
					"indices": 4,
					"material": 0,
					"mode": 4
				},
				{
					"attributes": {
						"POSITION": 0,
						"NORMAL": 1,
						"TEXCOORD_0": 2,
						"TANGENT": 3
					},
					"indices": 5,
					"material": 1,
					"mode": 4
				},
				{
					"attributes": {
						"POSITION": 0,
						"NORMAL": 1,
						"TEXCOORD_0": 2,
						"TANGENT": 3
					},
					"indices": 6,
					"material": 2,
					"mode": 4
				}
			]
		},
		{
			"name": "mesh_Hex_Deco_01_2942Hex_Deco (3)",
			"primitives": [
				{
					"attributes": {
						"POSITION": 7,
						"NORMAL": 8,
						"TEXCOORD_0": 9,
						"TANGENT": 10
					},
					"indices": 11,
					"material": 3,
					"mode": 4
				},
				{
					"attributes": {
						"POSITION": 7,
						"NORMAL": 8,
						"TEXCOORD_0": 9,
						"TANGENT": 10
					},
					"indices": 12,
					"material": 0,
					"mode": 4
				},
				{
					"attributes": {
						"POSITION": 7,
						"NORMAL": 8,
						"TEXCOORD_0": 9,
						"TANGENT": 10
					},
					"indices": 13,
					"material": 4,
					"mode": 4
				}
			]
		}
	],
	"nodes": [
		{
			"name": "UnityGlTF_root",
			"children": [
				1
			]
		},
		{
			"name": "node_Museum_Deco_InfoScreen_01_Art",
			"mesh": 0,
			"children": [
				2
			],
			"matrix": [1, 0, 0, 0, 0, 1, 0, 0, 0, 0, 1, 0, 0, 0, 0, 1]
		},
		{
			"name": "node_Hex_Deco (3)",
			"mesh": 1,
			"translation": [ -0.007923224, 0.00316608, 0.04258726]
		}
	],
	"samplers": [
		{
			"magFilter": 9729,
			"minFilter": 9985,
			"wrapS": 10497,
			"wrapT": 10497
		}
	],
	"scenes": [
		{
			"name":"defaultScene",
			"nodes": [
				0
			]
		}
	],
	"scene": 0,
	"textures": [
		{
			"sampler": 0,
			"source": 0
		},
		{
			"sampler": 0,
			"source": 1
		},
		{
			"sampler": 0,
			"source": 2
		},
		{
			"sampler": 0,
			"source": 3
		},
		{
			"sampler": 0,
			"source": 4
		},
		{
			"sampler": 0,
			"source": 5
		},
		{
			"sampler": 0,
			"source": 6
		},
		{
			"sampler": 0,
			"source": 7
		},
		{
			"sampler": 0,
			"source": 8
		}
	]
}