{
	"asset": {
		"generator": "Unity 2018.3.6f1",
		"extras": {
			"exporterVersion" : "2.2.1"
		},
		"version": "2.0"
	},
	"accessors": [
		{
			"bufferView": 2,
			"byteOffset": 0,
			"componentType": 5126,
			"count": 230,
			"max": [ 7.033868, 1.086649, 6.091508 ],
			"min": [ -7.033868, 0.05751259, -6.091508 ],
			"type": "VEC3"
		},
		{
			"bufferView": 2,
			"byteOffset": 2760,
			"componentType": 5126,
			"count": 230,
			"max": [ 0.8660255, 1, 1 ],
			"min": [ -0.8660255, -1, -1 ],
			"type": "VEC3"
		},
		{
			"bufferView": 1,
			"byteOffset": 0,
			"componentType": 5126,
			"count": 230,
			"max": [ 1.909184, 2.771842 ],
			"min": [ -2.346073, 0.213053 ],
			"type": "VEC2"
		},
		{
			"bufferView": 3,
			"byteOffset": 0,
			"componentType": 5126,
			"count": 230,
			"max": [ 1, 0.3281617, 0.8673398, 1 ],
			"min": [ -1, -0.3281514, -0.8673397, -1 ],
			"type": "VEC4"
		},
		{
			"bufferView": 0,
			"byteOffset": 0,
			"componentType": 5123,
			"count": 288,
			"max": [ 167 ],
			"min": [ 0 ],
			"type": "SCALAR"
		},
		{
			"bufferView": 0,
			"byteOffset": 576,
			"componentType": 5123,
			"count": 24,
			"max": [ 181 ],
			"min": [ 168 ],
			"type": "SCALAR"
		},
		{
			"bufferView": 0,
			"byteOffset": 624,
			"componentType": 5123,
			"count": 72,
			"max": [ 229 ],
			"min": [ 182 ],
			"type": "SCALAR"
		},
		{
			"bufferView": 2,
			"byteOffset": 5520,
			"componentType": 5126,
			"count": 38,
			"max": [ 7.070359, 1.086649, 6.123111 ],
			"min": [ -7.070359, 0.05751251, -6.123111 ],
			"type": "VEC3"
		},
		{
			"bufferView": 2,
			"byteOffset": 5976,
			"componentType": 5126,
			"count": 38,
			"max": [ 0.8660255, 1, 1 ],
			"min": [ -0.8660255, -1, -1 ],
			"type": "VEC3"
		},
		{
			"bufferView": 1,
			"byteOffset": 1840,
			"componentType": 5126,
			"count": 38,
			"max": [ 0.65625, 0.9790665 ],
			"min": [ 0.34375, 0.02093351 ],
			"type": "VEC2"
		},
		{
			"bufferView": 3,
			"byteOffset": 3680,
			"componentType": 5126,
			"count": 38,
			"max": [ 1, 0, 0.8660255, 1 ],
			"min": [ -1, 0, -0.8660255, 1 ],
			"type": "VEC4"
		},
		{
			"bufferView": 0,
			"byteOffset": 768,
			"componentType": 5123,
			"count": 72,
			"max": [ 37 ],
			"min": [ 0 ],
			"type": "SCALAR"
		},
		{
			"bufferView": 2,
			"byteOffset": 6432,
			"componentType": 5126,
			"count": 42,
			"max": [ 2.926242, 1.088716, 2.5342 ],
			"min": [ -2.926243, 0.9132179, -2.5342 ],
			"type": "VEC3"
		},
		{
			"bufferView": 2,
			"byteOffset": 6936,
			"componentType": 5126,
			"count": 42,
			"max": [ 0.2246081, 1, 0.2593549 ],
			"min": [ -0.224608, 0.965782, -0.2593549 ],
			"type": "VEC3"
		},
		{
			"bufferView": 1,
			"byteOffset": 2144,
			"componentType": 5126,
			"count": 42,
			"max": [ 0.3412822, 1.000003 ],
			"min": [ 0, 0.717016 ],
			"type": "VEC2"
		},
		{
			"bufferView": 3,
			"byteOffset": 4288,
			"componentType": 5126,
			"count": 42,
			"max": [ 0.5000075, 0, 0.8660296, 1 ],
			"min": [ -1, 0, -0.8660219, -1 ],
			"type": "VEC4"
		},
		{
			"bufferView": 0,
			"byteOffset": 912,
			"componentType": 5123,
			"count": 90,
			"max": [ 41 ],
			"min": [ 0 ],
			"type": "SCALAR"
		},
		{
			"bufferView": 2,
			"byteOffset": 7440,
			"componentType": 5126,
			"count": 88,
			"max": [ 7.643851, 0.8693411, 5.640357 ],
			"min": [ 4.126619, 0.325062, 1.054251 ],
			"type": "VEC3"
		},
		{
			"bufferView": 2,
			"byteOffset": 8496,
			"componentType": 5126,
			"count": 88,
			"max": [ 0.8547397, 1, 0.9466593 ],
			"min": [ -0.982346, -1, -0.8660254 ],
			"type": "VEC3"
		},
		{
			"bufferView": 1,
			"byteOffset": 2480,
			"componentType": 5126,
			"count": 88,
			"max": [ 1.696729, 3.007624 ],
			"min": [ -2.102053, -1.629513 ],
			"type": "VEC2"
		},
		{
			"bufferView": 3,
			"byteOffset": 4960,
			"componentType": 5126,
			"count": 88,
			"max": [ 0.8935528, 0.9996403, 0.8727303, 1 ],
			"min": [ -0.934542, -0.9996382, -0.8757712, -1 ],
			"type": "VEC4"
		},
		{
			"bufferView": 0,
			"byteOffset": 1092,
			"componentType": 5123,
			"count": 138,
			"max": [ 87 ],
			"min": [ 0 ],
			"type": "SCALAR"
		},
		{
			"bufferView": 2,
			"byteOffset": 9552,
			"componentType": 5126,
			"count": 24,
			"max": [ 7.724479, 1.086649, 5.687682 ],
			"min": [ 4.051841, 0.242447, 0.926488 ],
			"type": "VEC3"
		},
		{
			"bufferView": 2,
			"byteOffset": 9840,
			"componentType": 5126,
			"count": 24,
			"max": [ 0.8660254, 0.9953384, 0.9473121 ],
			"min": [ -0.8660254, -0.9953384, -0.7510543 ],
			"type": "VEC3"
		},
		{
			"bufferView": 1,
			"byteOffset": 3184,
			"componentType": 5126,
			"count": 24,
			"max": [ 0.875, 1 ],
			"min": [ 0.125, 0 ],
			"type": "VEC2"
		},
		{
			"bufferView": 3,
			"byteOffset": 6368,
			"componentType": 5126,
			"count": 24,
			"max": [ 0.919447, 0.4092758, 0.3108901, 1 ],
			"min": [ -0.7289622, -0.4064351, -0.8660255, 1 ],
			"type": "VEC4"
		},
		{
			"bufferView": 0,
			"byteOffset": 1368,
			"componentType": 5123,
			"count": 36,
			"max": [ 23 ],
			"min": [ 0 ],
			"type": "SCALAR"
		}
	],
	"buffers": [
		{
			"byteLength": 21696,
			"uri": "entity9472n.bin"
		}
	],
	"bufferViews": [
		{
			"buffer": 0,
			"byteLength": 1440,
			"target": 34963,
			"byteOffset": 20256
		},
		{
			"buffer": 0,
			"byteLength": 3376,
			"target": 34962,
			"byteStride": 8,
			"byteOffset": 0
		},
		{
			"buffer": 0,
			"byteLength": 10128,
			"target": 34962,
			"byteStride": 12,
			"byteOffset": 3376
		},
		{
			"buffer": 0,
			"byteLength": 6752,
			"target": 34962,
			"byteStride": 16,
			"byteOffset": 13504
		}
	],
	"images": [
		{
			"uri": "Assets/Visuals/Materials/Textures/Tileset_Metal_02_Albedo.jpg"
		},
		{
			"uri": "Assets/Visuals/Materials/Textures/Tileset_Metal_02_Metallic_converted_metalRoughness.jpg"
		},
		{
			"uri": "Assets/Visuals/Materials/Textures/Tileset_Metal_02_Normal.jpg"
		},
		{
			"uri": "Assets/Visuals/Materials/Textures/Tileset_Metal_02_Emissive.jpg"
		},
		{
			"uri": "Assets/Visuals/Materials/Textures/Tileset_Metal_02_Metallic.jpg"
		},
		{
			"uri": "Assets/Visuals/Materials/Textures/Tileset_Metal_01_Albedo.jpg"
		},
		{
			"uri": "Assets/Visuals/Materials/Textures/Tileset_Metal_01_Metallic_converted_metalRoughness.jpg"
		},
		{
			"uri": "Assets/Visuals/Materials/Textures/Tileset_Metal_01_Normal.jpg"
		},
		{
			"uri": "Assets/Visuals/Materials/Textures/Tileset_Metal_03_Albedo.jpg"
		},
		{
			"uri": "Assets/Visuals/Materials/Textures/Tileset_Metal_03_Metallic_converted_metalRoughness.jpg"
		},
		{
			"uri": "Assets/Visuals/Materials/Textures/Tileset_Metal_03_Normal.jpg"
		},
		{
			"uri": "Assets/Visuals/Materials/Textures/Tileset_Transparencies_01_Albedo.png"
		}
	],
	"materials": [
		{
			"pbrMetallicRoughness": {
				"baseColorTexture" : {
					"index" : 0,
					"texCoord" : 0
				},
				"baseColorFactor": [1, 1, 1, 1],
				"metallicRoughnessTexture" : {
					"index" : 1,
					"texCoord" : 0
				},
				"metallicFactor": 1,
				"roughnessFactor": 1
			},
			"normalTexture" : {
				"index" : 2,
				"texCoord" : 0,
				"scale" : 1
			},
			"emissiveTexture" : {
				"index" : 3,
				"texCoord" : 0
			},
			"emissiveFactor": [0.5, 0.5, 0.5],
			"occlusionTexture" : {
				"index" : 4,
				"texCoord" : 0,
				"strength" : 1
			},
			"doubleSided": false,
			"name": "Tileset_Metal_02_Mat"
		},
		{
			"pbrMetallicRoughness": {
				"baseColorTexture" : {
					"index" : 5,
					"texCoord" : 0
				},
				"baseColorFactor": [0.5943396, 0.5943396, 0.5943396, 1],
				"metallicRoughnessTexture" : {
					"index" : 6,
					"texCoord" : 0
				},
				"metallicFactor": 1,
				"roughnessFactor": 1
			},
			"normalTexture" : {
				"index" : 7,
				"texCoord" : 0,
				"scale" : 1
			},
			"emissiveFactor": [0, 0, 0],
			"doubleSided": false,
			"name": "Tileset_Metal_01_Mat"
		},
		{
			"pbrMetallicRoughness": {
				"baseColorTexture" : {
					"index" : 8,
					"texCoord" : 0
				},
				"baseColorFactor": [1, 1, 1, 1],
				"metallicRoughnessTexture" : {
					"index" : 9,
					"texCoord" : 0
				},
				"metallicFactor": 1,
				"roughnessFactor": 1
			},
			"normalTexture" : {
				"index" : 10,
				"texCoord" : 0,
				"scale" : 1
			},
			"emissiveFactor": [0, 0, 0],
			"doubleSided": false,
			"name": "Tileset_Metal_03_Mat"
		},
		{
			"pbrMetallicRoughness": {
				"baseColorFactor": [0.2036906, 1, 0, 1],
				"metallicFactor": 0,
				"roughnessFactor": 0.5
			},
			"emissiveFactor": [0, 0, 0],
			"doubleSided": false,
			"name": "Collider_Mat"
		},
		{
			"pbrMetallicRoughness": {
				"baseColorTexture" : {
					"index" : 11,
					"texCoord" : 0
				},
				"baseColorFactor": [1, 1, 1, 1],
				"metallicFactor": 0,
				"roughnessFactor": 0.5
			},
			"alphaMode": "BLEND",
			"alphaCutoff": 0.5,
			"emissiveTexture" : {
				"index" : 11,
				"texCoord" : 0
			},
			"emissiveFactor": [0.3867925, 0.3867925, 0.3867925],
			"doubleSided": false,
			"name": "Tileset_Transparencies_01_Mat"
		}
	],
	"meshes": [
		{
			"name": "mesh_Museum_Hex_Floor_Piece_a_10016Museum_Hex_Floor_Piece_a (1)",
			"primitives": [
				{
					"attributes": {
						"POSITION": 0,
						"NORMAL": 1,
						"TEXCOORD_0": 2,
						"TANGENT": 3
					},
					"indices": 4,
					"material": 0,
					"mode": 4
				},
				{
					"attributes": {
						"POSITION": 0,
						"NORMAL": 1,
						"TEXCOORD_0": 2,
						"TANGENT": 3
					},
					"indices": 5,
					"material": 1,
					"mode": 4
				},
				{
					"attributes": {
						"POSITION": 0,
						"NORMAL": 1,
						"TEXCOORD_0": 2,
						"TANGENT": 3
					},
					"indices": 6,
					"material": 2,
					"mode": 4
				}
			]
		},
		{
			"name": "mesh_Museum_Hex_Floor_Piece_Collider_a_10024Museum_Hex_Floor_Piece_Collider",
			"primitives": [
				{
					"attributes": {
						"POSITION": 7,
						"NORMAL": 8,
						"TEXCOORD_0": 9,
						"TANGENT": 10
					},
					"indices": 11,
					"material": 3,
					"mode": 4
				}
			]
		},
		{
			"name": "mesh_Museum_Hex_Floor_Piece_a_transparency_10018Museum_Hex_Floor_Piece_a_transparency",
			"primitives": [
				{
					"attributes": {
						"POSITION": 12,
						"NORMAL": 13,
						"TEXCOORD_0": 14,
						"TANGENT": 15
					},
					"indices": 16,
					"material": 4,
					"mode": 4
				}
			]
		},
		{
			"name": "mesh_Museum_Hex_Floor_Ramp_11302Museum_Hex_Floor_Ramp_Art",
			"primitives": [
				{
					"attributes": {
						"POSITION": 17,
						"NORMAL": 18,
						"TEXCOORD_0": 19,
						"TANGENT": 20
					},
					"indices": 21,
					"material": 2,
					"mode": 4
				}
			]
		},
		{
			"name": "mesh_Museum_Hex_Floor_Ramp_Collider_11304Museum_Hex_Floor_Ramp_Collider",
			"primitives": [
				{
					"attributes": {
						"POSITION": 22,
						"NORMAL": 23,
						"TEXCOORD_0": 24,
						"TANGENT": 25
					},
					"indices": 26,
					"material": 3,
					"mode": 4
				}
			]
		}
	],
	"nodes": [
		{
			"name": "UnityGlTF_root",
			"children": [
				1
			]
		},
		{
			"name": "node_Museum_Hex_Floor_Piece_a (1)",
			"mesh": 0,
			"children": [
				2,
				3,
				4
			],
			"matrix": [1, 0, 0, 0, 0, 1, 0, 0, 0, 0, 1, 0, 0, 0, 0, 1]
		},
		{
			"name": "node_Museum_Hex_Floor_Piece_Collider",
			"mesh": 1
		},
		{
			"name": "node_Museum_Hex_Floor_Piece_a_transparency",
			"mesh": 2
		},
		{
			"name": "node_Museum_Hex_Floor_Ramp_Art",
			"mesh": 3,
			"children": [
				5
			],
			"rotation": [0, 0.8660244, 0, -0.5000018]
		},
		{
			"name": "node_Museum_Hex_Floor_Ramp_Collider",
			"mesh": 4
		}
	],
	"samplers": [
		{
			"magFilter": 9729,
			"minFilter": 9985,
			"wrapS": 10497,
			"wrapT": 10497
		}
	],
	"scenes": [
		{
			"name":"defaultScene",
			"nodes": [
				0
			]
		}
	],
	"scene": 0,
	"textures": [
		{
			"sampler": 0,
			"source": 0
		},
		{
			"sampler": 0,
			"source": 1
		},
		{
			"sampler": 0,
			"source": 2
		},
		{
			"sampler": 0,
			"source": 3
		},
		{
			"sampler": 0,
			"source": 4
		},
		{
			"sampler": 0,
			"source": 5
		},
		{
			"sampler": 0,
			"source": 6
		},
		{
			"sampler": 0,
			"source": 7
		},
		{
			"sampler": 0,
			"source": 8
		},
		{
			"sampler": 0,
			"source": 9
		},
		{
			"sampler": 0,
			"source": 10
		},
		{
			"sampler": 0,
			"source": 11
		}
	]
}